<svg width="1558" xmlns:xlink="http://www.w3.org/1999/xlink" xmlns:ev="http://www.w3.org/2001/xml-events" viewBox="0 0 1558 1418" id="page100" ed:vSpacing="30" xmlns="http://www.w3.org/2000/svg" ed:hSpacing="30" ed:name="Page-1" height="1418" xmlns:ed="https://www.edrawsoft.cn/xml/2017/SVGExtensions/"><style type="text/css"><![CDATA[
g[ed\:togtopicid],g[ed\:hyperlink],g[ed\:comment],g[ed\:note] {cursor:pointer;}
g[id] {-moz-user-select: none;-ms-user-select: none;user-select: none;}
svg text::selection,svg tspan::selection{background-color: #4285f4;color: #ffffff;fill: #ffffff;}
.st2 {fill:#303030;font-family:微软雅黑;font-size:12pt}
.st3 {fill:#454545;font-family:微软雅黑;font-size:10pt}
.st1 {fill:#ffffff;font-family:微软雅黑;font-size:14pt}
]]></style><defs><linearGradient y2="100%" id="lg1" y1="0%" x1="0%" x2="0%"><stop stop-color="#ffffff" offset="0"/><stop stop-color="#f0f5f0" offset="0.25"/><stop stop-color="#e1ebe1" offset="0.75"/><stop stop-color="#c8d7c8" offset="1"/></linearGradient></defs><rect width="1558" x="0" y="0" height="1418" fill="#ffffff"/><path stroke="#696969" stroke-linejoin="round" ed:parentid="101" id="103" ed:tosuperid="102" d="M-66.9,265.9C7.8,148.1,-62.9,-294.4,113,-294.4" transform="matrix(1,0,0,1,299,415)" stroke-linecap="round" fill="none"/><path stroke="#696969" stroke-linejoin="round" ed:parentid="101" id="105" ed:tosuperid="104" d="M-57.3,116.1C1.1,43.2,-3,-144.6,113,-144.6" transform="matrix(1,0,0,1,299,564)" stroke-linecap="round" fill="none"/><path stroke="#696969" stroke-linejoin="round" ed:parentid="102" id="107" ed:tosuperid="106" d="M-13.5,12.4C0.2,12.4,-1.3,-12.4,13.5,-12.4" transform="matrix(1,0,0,1,870,108)" stroke-linecap="round" fill="none"/><path stroke="#696969" stroke-linejoin="round" ed:parentid="102" id="109" ed:tosuperid="108" d="M-13.5,-18.6C1.5,-18.6,-4.3,18.6,13.5,18.6" transform="matrix(1,0,0,1,870,139)" stroke-linecap="round" fill="none"/><path stroke="#696969" stroke-linejoin="round" ed:parentid="102" id="111" ed:tosuperid="110" d="M-13.5,-49.6C5.3,-49.6,-13.3,49.6,13.5,49.6" transform="matrix(1,0,0,1,870,170)" stroke-linecap="round" fill="none"/><path stroke="#696969" stroke-linejoin="round" ed:parentid="101" id="113" ed:tosuperid="112" d="M50,-4.1C71.4,-6,92.2,-7.4,113,-7.4" transform="matrix(1,0,0,1,299,702)" stroke-linecap="round" fill="none"/><path stroke="#696969" stroke-linejoin="round" ed:parentid="104" id="115" ed:tosuperid="114" d="M-13.5,55.9C5.4,55.9,-13.5,-55.9,13.5,-55.9" transform="matrix(1,0,0,1,854,364)" stroke-linecap="round" fill="none"/><path stroke="#696969" stroke-linejoin="round" ed:parentid="104" id="117" ed:tosuperid="116" d="M-13.5,24.9C2.7,24.9,-7.1,-24.9,13.5,-24.9" transform="matrix(1,0,0,1,854,395)" stroke-linecap="round" fill="none"/><path stroke="#696969" stroke-linejoin="round" ed:parentid="104" id="119" ed:tosuperid="118" d="M-13.5,-21.6C2.1,-21.6,-5.7,21.6,13.5,21.6" transform="matrix(1,0,0,1,854,441)" stroke-linecap="round" fill="none"/><path stroke="#696969" stroke-linejoin="round" ed:parentid="104" id="121" ed:tosuperid="120" d="M-13.5,-68.1C5.4,-68.1,-13.5,68.1,13.5,68.1" transform="matrix(1,0,0,1,854,488)" stroke-linecap="round" fill="none"/><path stroke="#696969" stroke-linejoin="round" ed:parentid="112" id="123" ed:tosuperid="122" d="M-13.5,24.9C2.7,24.9,-7.1,-24.9,13.5,-24.9" transform="matrix(1,0,0,1,774,669)" stroke-linecap="round" fill="none"/><path stroke="#696969" stroke-linejoin="round" ed:parentid="112" id="125" ed:tosuperid="124" d="M-13.5,9.4C-0.5,9.4,0.3,-9.4,13.5,-9.4" transform="matrix(1,0,0,1,774,685)" stroke-linecap="round" fill="none"/><path stroke="#696969" stroke-linejoin="round" ed:parentid="112" id="127" ed:tosuperid="126" d="M-13.5,-6.1C-1.3,-6.1,2.1,6.1,13.5,6.1" transform="matrix(1,0,0,1,774,700)" stroke-linecap="round" fill="none"/><path stroke="#696969" stroke-linejoin="round" ed:parentid="112" id="129" ed:tosuperid="128" d="M-13.5,-21.6C2.1,-21.6,-5.7,21.6,13.5,21.6" transform="matrix(1,0,0,1,774,716)" stroke-linecap="round" fill="none"/><path stroke="#696969" stroke-linejoin="round" ed:parentid="112" id="131" ed:tosuperid="130" d="M-13.5,-37.1C4.4,-37.1,-11.3,37.1,13.5,37.1" transform="matrix(1,0,0,1,774,731)" stroke-linecap="round" fill="none"/><path stroke="#696969" stroke-linejoin="round" ed:parentid="101" id="133" ed:tosuperid="132" d="M-38.1,-39.4C9.9,0.4,39.2,67.9,113,67.9" transform="matrix(1,0,0,1,299,777)" stroke-linecap="round" fill="none"/><path stroke="#696969" stroke-linejoin="round" ed:parentid="132" id="135" ed:tosuperid="134" d="M-13.5,9.4C-0.5,9.4,0.3,-9.4,13.5,-9.4" transform="matrix(1,0,0,1,678,835)" stroke-linecap="round" fill="none"/><path stroke="#696969" stroke-linejoin="round" ed:parentid="132" id="137" ed:tosuperid="136" d="M-13.5,-6.1C-1.3,-6.1,2.1,6.1,13.5,6.1" transform="matrix(1,0,0,1,678,851)" stroke-linecap="round" fill="none"/><path stroke="#696969" stroke-linejoin="round" ed:parentid="132" id="139" ed:tosuperid="138" d="M-13.5,-21.6C2.1,-21.6,-5.7,21.6,13.5,21.6" transform="matrix(1,0,0,1,678,866)" stroke-linecap="round" fill="none"/><path stroke="#696969" stroke-linejoin="round" ed:parentid="101" id="141" ed:tosuperid="140" d="M-54.9,-99.1C1.5,-32.5,5.5,127.6,113,127.6" transform="matrix(1,0,0,1,299,837)" stroke-linecap="round" fill="none"/><path stroke="#696969" stroke-linejoin="round" ed:parentid="140" id="143" ed:tosuperid="142" d="M-13.5,9.4C-0.5,9.4,0.3,-9.4,13.5,-9.4" transform="matrix(1,0,0,1,742,955)" stroke-linecap="round" fill="none"/><path stroke="#696969" stroke-linejoin="round" ed:parentid="140" id="145" ed:tosuperid="144" d="M-13.5,-6.1C-1.3,-6.1,2.1,6.1,13.5,6.1" transform="matrix(1,0,0,1,742,970)" stroke-linecap="round" fill="none"/><path stroke="#696969" stroke-linejoin="round" ed:parentid="140" id="147" ed:tosuperid="146" d="M-13.5,-21.6C2.1,-21.6,-5.7,21.6,13.5,21.6" transform="matrix(1,0,0,1,742,986)" stroke-linecap="round" fill="none"/><path stroke="#696969" stroke-linejoin="round" ed:parentid="101" id="149" ed:tosuperid="148" d="M-62.5,-174.4C2.4,-82.1,-29.7,202.9,113,202.9" transform="matrix(1,0,0,1,299,912)" stroke-linecap="round" fill="none"/><path stroke="#696969" stroke-linejoin="round" ed:parentid="101" id="151" ed:tosuperid="150" d="M-66.3,-249.6C6.7,-136.1,-57.8,278.1,113,278.1" transform="matrix(1,0,0,1,299,987)" stroke-linecap="round" fill="none"/><path stroke="#696969" stroke-linejoin="round" ed:parentid="148" id="153" ed:tosuperid="152" d="M-13.5,24.9C2.7,24.9,-7.1,-24.9,13.5,-24.9" transform="matrix(1,0,0,1,918,1090)" stroke-linecap="round" fill="none"/><path stroke="#696969" stroke-linejoin="round" ed:parentid="148" id="155" ed:tosuperid="154" d="M-13.5,9.4C-0.5,9.4,0.3,-9.4,13.5,-9.4" transform="matrix(1,0,0,1,918,1105)" stroke-linecap="round" fill="none"/><path stroke="#696969" stroke-linejoin="round" ed:parentid="148" id="157" ed:tosuperid="156" d="M-13.5,-6.1C-1.3,-6.1,2.1,6.1,13.5,6.1" transform="matrix(1,0,0,1,918,1121)" stroke-linecap="round" fill="none"/><path stroke="#696969" stroke-linejoin="round" ed:parentid="148" id="159" ed:tosuperid="158" d="M-13.5,-21.6C2.1,-21.6,-5.7,21.6,13.5,21.6" transform="matrix(1,0,0,1,918,1136)" stroke-linecap="round" fill="none"/><path stroke="#696969" stroke-linejoin="round" ed:parentid="148" id="161" ed:tosuperid="160" d="M-13.5,-37.1C4.4,-37.1,-11.3,37.1,13.5,37.1" transform="matrix(1,0,0,1,918,1152)" stroke-linecap="round" fill="none"/><path stroke="#696969" stroke-linejoin="round" ed:parentid="101" id="163" ed:tosuperid="162" d="M-68.2,-301.6C10.1,-175,-72.5,330.1,113,330.1" transform="matrix(1,0,0,1,299,1039)" stroke-linecap="round" fill="none"/><path stroke="#696969" stroke-linejoin="round" ed:parentid="150" id="165" ed:tosuperid="164" d="M-13.5,9.4C-0.5,9.4,0.3,-9.4,13.5,-9.4" transform="matrix(1,0,0,1,961,1256)" stroke-linecap="round" fill="none"/><path stroke="#696969" stroke-linejoin="round" ed:parentid="150" id="167" ed:tosuperid="166" d="M-13.5,-6.1C-1.3,-6.1,2.1,6.1,13.5,6.1" transform="matrix(1,0,0,1,961,1271)" stroke-linecap="round" fill="none"/><path stroke="#696969" stroke-linejoin="round" ed:parentid="150" id="169" ed:tosuperid="168" d="M-13.5,-21.6C2.1,-21.6,-5.7,21.6,13.5,21.6" transform="matrix(1,0,0,1,961,1287)" stroke-linecap="round" fill="none"/><path stroke="#696969" stroke-linejoin="round" ed:parentid="162" id="171" ed:tosuperid="170" d="M-13.5,1.6C-2.3,1.6,4.5,-1.6,13.5,-1.6" transform="matrix(1,0,0,1,838,1368)" stroke-linecap="round" fill="none"/><path stroke="#696969" stroke-linejoin="round" ed:parentid="162" id="173" ed:tosuperid="172" d="M-13.5,-13.9C0.5,-13.9,-2,13.9,13.5,13.9" transform="matrix(1,0,0,1,838,1383)" stroke-linecap="round" fill="none"/><path stroke="#696969" stroke-linejoin="round" ed:parentid="102" id="175" ed:tosuperid="174" d="M-13.5,27.9C3.2,27.9,-8.3,-27.9,13.5,-27.9" transform="matrix(1,0,0,1,870,92)" stroke-linecap="round" fill="none"/><path stroke="#696969" stroke-linejoin="round" ed:parentid="108" id="179" ed:tosuperid="178" d="M-13.5,15.5C0.8,15.5,-2.8,-15.5,13.5,-15.5" transform="matrix(1,0,0,1,1080,142)" stroke-linecap="round" fill="none"/><path stroke="#696969" stroke-linejoin="round" ed:parentid="108" id="181" ed:tosuperid="180" d="M-13.5,0C-2.7,0,5.4,0,13.5,0" transform="matrix(1,0,0,1,1080,158)" stroke-linecap="round" fill="none"/><path stroke="#696969" stroke-linejoin="round" ed:parentid="108" id="183" ed:tosuperid="182" d="M-13.5,-15.5C0.8,-15.5,-2.8,15.5,13.5,15.5" transform="matrix(1,0,0,1,1080,173)" stroke-linecap="round" fill="none"/><path stroke="#696969" stroke-linejoin="round" ed:parentid="104" id="185" ed:tosuperid="184" d="M-13.5,71.4C5.4,71.4,-13.5,-71.4,13.5,-71.4" transform="matrix(1,0,0,1,854,348)" stroke-linecap="round" fill="none"/><path stroke="#696969" stroke-linejoin="round" ed:parentid="116" id="187" ed:tosuperid="186" d="M-13.5,15.5C0.8,15.5,-2.8,-15.5,13.5,-15.5" transform="matrix(1,0,0,1,1194,355)" stroke-linecap="round" fill="none"/><path stroke="#696969" stroke-linejoin="round" ed:parentid="116" id="189" ed:tosuperid="188" d="M-13.5,0C-2.7,0,5.4,0,13.5,0" transform="matrix(1,0,0,1,1194,370)" stroke-linecap="round" fill="none"/><path stroke="#696969" stroke-linejoin="round" ed:parentid="116" id="191" ed:tosuperid="190" d="M-13.5,-15.5C0.8,-15.5,-2.8,15.5,13.5,15.5" transform="matrix(1,0,0,1,1194,386)" stroke-linecap="round" fill="none"/><path stroke="#696969" stroke-linejoin="round" ed:parentid="118" id="193" ed:tosuperid="192" d="M-13.5,15.5C0.8,15.5,-2.8,-15.5,13.5,-15.5" transform="matrix(1,0,0,1,1233,448)" stroke-linecap="round" fill="none"/><path stroke="#696969" stroke-linejoin="round" ed:parentid="118" id="195" ed:tosuperid="194" d="M-13.5,0C-2.7,0,5.4,0,13.5,0" transform="matrix(1,0,0,1,1233,463)" stroke-linecap="round" fill="none"/><path stroke="#696969" stroke-linejoin="round" ed:parentid="118" id="197" ed:tosuperid="196" d="M-13.5,-15.5C0.8,-15.5,-2.8,15.5,13.5,15.5" transform="matrix(1,0,0,1,1233,479)" stroke-linecap="round" fill="none"/><path stroke="#696969" stroke-linejoin="round" ed:parentid="120" id="199" ed:tosuperid="198" d="M-13.5,15.5C0.8,15.5,-2.8,-15.5,13.5,-15.5" transform="matrix(1,0,0,1,1038,541)" stroke-linecap="round" fill="none"/><path stroke="#696969" stroke-linejoin="round" ed:parentid="120" id="201" ed:tosuperid="200" d="M-13.5,0C-2.7,0,5.4,0,13.5,0" transform="matrix(1,0,0,1,1038,556)" stroke-linecap="round" fill="none"/><path stroke="#696969" stroke-linejoin="round" ed:parentid="120" id="203" ed:tosuperid="202" d="M-13.5,-15.5C0.8,-15.5,-2.8,15.5,13.5,15.5" transform="matrix(1,0,0,1,1038,572)" stroke-linecap="round" fill="none"/><g ed:width="326" ed:topictype="mainidea" id="101" ed:layout="rightmap" ed:height="57" transform="matrix(1,0,0,1,23,681)"><path stroke="#435fbc" stroke-width="3" stroke-linejoin="round" d="M4,0L322,0C324.7,0,326,1.3,326,4L326,53C326,55.7,324.7,57,322,57L4,57C1.3,57,0,55.7,0,53L0,4C0,1.3,1.3,0,4,0z" fill="#435fbc"/><text class="st1"><tspan style="white-space:pre" x="21" y="34.5">《从1到N-企业数字化生存指南》</tspan></text></g><g ed:width="444" ed:parentid="101" id="102" ed:height="37" transform="matrix(1,0,0,1,412,102)"><path stroke="#ebecf3" stroke-linejoin="round" d="M4,0L440,0C442.7,0,444,1.3,444,4L444,33C444,35.7,442.7,37,440,37L4,37C1.3,37,0,35.7,0,33L0,4C0,1.3,1.3,0,4,0z" fill="#ebecf3"/><text class="st2"><tspan style="white-space:pre" x="18" y="23.4">第一章 在数字化时代，企业将浴血重生还是被颠覆被遗忘</tspan></text></g><g ed:width="428" ed:parentid="101" id="104" ed:height="37" transform="matrix(1,0,0,1,412,401)"><path stroke="#ebecf3" stroke-linejoin="round" d="M4,0L424,0C426.7,0,428,1.3,428,4L428,33C428,35.7,426.7,37,424,37L4,37C1.3,37,0,35.7,0,33L0,4C0,1.3,1.3,0,4,0z" fill="#ebecf3"/><text class="st2"><tspan style="white-space:pre" x="18" y="23.4">第二章 企业数字化生存指：为什么？做什么？怎么做？</tspan></text></g><g ed:width="312" ed:parentid="102" id="106" ed:height="24.5" transform="matrix(1,0,0,1,883,71)"><path stroke="#696969" stroke-linejoin="round" d="M0,24.5L312,24.5" fill="none"/><text class="st3"><tspan style="white-space:pre" x="8" y="16.1">1.1.数字化会席卷所有行业--区别只在于规模和速度</tspan></text></g><g ed:width="183" ed:parentid="102" id="108" ed:height="24.5" transform="matrix(1,0,0,1,883,133)"><path stroke="#696969" stroke-linejoin="round" d="M0,24.5L183,24.5" fill="none"/><text class="st3"><tspan style="white-space:pre" x="8" y="16.1">1.2.既有的市场定义不再适用</tspan></text></g><g ed:width="235" ed:parentid="102" id="110" ed:height="24.5" transform="matrix(1,0,0,1,883,195)"><path stroke="#696969" stroke-linejoin="round" d="M0,24.5L235,24.5" fill="none"/><text class="st3"><tspan style="white-space:pre" x="8" y="16.1">1.3.新技术推动变革速度呈指数级增长</tspan></text></g><g ed:width="348" ed:parentid="101" id="112" ed:height="37" transform="matrix(1,0,0,1,412,676)"><path stroke="#ebecf3" stroke-linejoin="round" d="M4,0L344,0C346.7,0,348,1.3,348,4L348,33C348,35.7,346.7,37,344,37L4,37C1.3,37,0,35.7,0,33L0,4C0,1.3,1.3,0,4,0z" fill="#ebecf3"/><text class="st2"><tspan style="white-space:pre" x="18" y="23.4">第三章 做什么？选择并部署恰当的智能技术</tspan></text></g><g ed:width="313" ed:parentid="104" id="114" ed:height="24.5" transform="matrix(1,0,0,1,867,284)"><path stroke="#696969" stroke-linejoin="round" d="M0,24.5L313,24.5" fill="none"/><text class="st3"><tspan style="white-space:pre" x="8" y="16.1">2.1.为什么？根据行业特性，界定数字化的明确目标</tspan></text></g><g ed:width="313" ed:parentid="104" id="116" ed:height="24.5" transform="matrix(1,0,0,1,867,346)"><path stroke="#696969" stroke-linejoin="round" d="M0,24.5L313,24.5" fill="none"/><text class="st3"><tspan style="white-space:pre" x="8" y="16.1">2.2.做什么？新生态体系，新业务框架，新技术基础</tspan></text></g><g ed:width="352" ed:parentid="104" id="118" ed:height="24.5" transform="matrix(1,0,0,1,867,439)"><path stroke="#696969" stroke-linejoin="round" d="M0,24.5L352,24.5" fill="none"/><text class="st3"><tspan style="white-space:pre" x="8" y="16.1">2.3.怎么做？数字化转型的过程、人才、组织、文化和制度</tspan></text></g><g ed:width="157" ed:parentid="104" id="120" ed:height="24.5" transform="matrix(1,0,0,1,867,532)"><path stroke="#696969" stroke-linejoin="round" d="M0,24.5L157,24.5" fill="none"/><text class="st3"><tspan style="white-space:pre" x="8" y="16.1">2.4.成熟企业的优势资产</tspan></text></g><g ed:width="456" ed:parentid="112" id="122" ed:height="24.5" transform="matrix(1,0,0,1,787,620)"><path stroke="#696969" stroke-linejoin="round" d="M0,24.5L456,24.5" fill="none"/><text class="st3"><tspan style="white-space:pre" x="8" y="16.1">3.1.数字化出行：随时联网、使用方便的电动汽车，往往还具备自动巡航功能</tspan></text></g><g ed:width="449" ed:parentid="112" id="124" ed:height="24.5" transform="matrix(1,0,0,1,787,651)"><path stroke="#696969" stroke-linejoin="round" d="M0,24.5L449,24.5" fill="none"/><text class="st3"><tspan style="white-space:pre" x="8" y="16.1">3.2.新零售：通过技术/数据赋能，利用生态体系合作，重塑消费者客户体验</tspan></text></g><g ed:width="365" ed:parentid="112" id="126" ed:height="24.5" transform="matrix(1,0,0,1,787,682)"><path stroke="#696969" stroke-linejoin="round" d="M0,24.5L365,24.5" fill="none"/><text class="st3"><tspan style="white-space:pre" x="8" y="16.1">3.3.数字化健康：通过创新提高医疗服务质量，降低医疗成本</tspan></text></g><g ed:width="456" ed:parentid="112" id="128" ed:height="24.5" transform="matrix(1,0,0,1,787,713)"><path stroke="#696969" stroke-linejoin="round" d="M0,24.5L456,24.5" fill="none"/><text class="st3"><tspan style="white-space:pre" x="8" y="16.1">3.4.数字化银行：谁还需要银行？金融科技对银行业的现有业务模式构成威胁</tspan></text></g><g ed:width="222" ed:parentid="112" id="130" ed:height="24.5" transform="matrix(1,0,0,1,787,744)"><path stroke="#696969" stroke-linejoin="round" d="M0,24.5L222,24.5" fill="none"/><text class="st3"><tspan style="white-space:pre" x="8" y="16.1">3.5.数字化物流：效率驱动下的变革</tspan></text></g><g ed:width="252" ed:parentid="101" id="132" ed:height="37" transform="matrix(1,0,0,1,412,826)"><path stroke="#ebecf3" stroke-linejoin="round" d="M4,0L248,0C250.7,0,252,1.3,252,4L252,33C252,35.7,250.7,37,248,37L4,37C1.3,37,0,35.7,0,33L0,4C0,1.3,1.3,0,4,0z" fill="#ebecf3"/><text class="st2"><tspan style="white-space:pre" x="18" y="23.4">第四章 做什么？开发业务架构</tspan></text></g><g ed:width="269" ed:parentid="132" id="134" ed:height="24.5" transform="matrix(1,0,0,1,691,802)"><path stroke="#696969" stroke-linejoin="round" d="M0,24.5L269,24.5" fill="none"/><text class="st3"><tspan style="white-space:pre" x="8" y="16.1">4.1.客户体验：数字化助力银行业升级（1）</tspan></text></g><g ed:width="274" ed:parentid="132" id="136" ed:height="24.5" transform="matrix(1,0,0,1,691,833)"><path stroke="#696969" stroke-linejoin="round" d="M0,24.5L274,24.5" fill="none"/><text class="st3"><tspan style="white-space:pre" x="8" y="16.1">4.2.数字化产品开发：敏捷开发与开放式创新</tspan></text></g><g ed:width="222" ed:parentid="132" id="138" ed:height="24.5" transform="matrix(1,0,0,1,691,864)"><path stroke="#696969" stroke-linejoin="round" d="M0,24.5L222,24.5" fill="none"/><text class="st3"><tspan style="white-space:pre" x="8" y="16.1">4.3.设计思维：以人为本的创新方法</tspan></text></g><g ed:width="316" ed:parentid="101" id="140" ed:height="37" transform="matrix(1,0,0,1,412,946)"><path stroke="#ebecf3" stroke-linejoin="round" d="M4,0L312,0C314.7,0,316,1.3,316,4L316,33C316,35.7,314.7,37,312,37L4,37C1.3,37,0,35.7,0,33L0,4C0,1.3,1.3,0,4,0z" fill="#ebecf3"/><text class="st2"><tspan style="white-space:pre" x="18" y="23.4">第五章 做什么？夯实数字化的技术基础</tspan></text></g><g ed:width="181" ed:parentid="140" id="142" ed:height="24.5" transform="matrix(1,0,0,1,755,921)"><path stroke="#696969" stroke-linejoin="round" d="M0,24.5L181,24.5" fill="none"/><text class="st3"><tspan style="white-space:pre" x="8" y="16.1">5.1.双速IT：加快数字化转型</tspan></text></g><g ed:width="144" ed:parentid="140" id="144" ed:height="24.5" transform="matrix(1,0,0,1,755,952)"><path stroke="#696969" stroke-linejoin="round" d="M0,24.5L144,24.5" fill="none"/><text class="st3"><tspan style="white-space:pre" x="8" y="16.1">5.2.大数据和人工智能</tspan></text></g><g ed:width="222" ed:parentid="140" id="146" ed:height="24.5" transform="matrix(1,0,0,1,755,983)"><path stroke="#696969" stroke-linejoin="round" d="M0,24.5L222,24.5" fill="none"/><text class="st3"><tspan style="white-space:pre" x="8" y="16.1">5.3.网络安全：安全数字经济的艺术</tspan></text></g><g ed:width="492" ed:parentid="101" id="148" ed:height="37" transform="matrix(1,0,0,1,412,1096)"><path stroke="#ebecf3" stroke-linejoin="round" d="M4,0L488,0C490.7,0,492,1.3,492,4L492,33C492,35.7,490.7,37,488,37L4,37C1.3,37,0,35.7,0,33L0,4C0,1.3,1.3,0,4,0z" fill="#ebecf3"/><text class="st2"><tspan style="white-space:pre" x="18" y="23.4">第六章 怎么做？数字化转型的过程：全面计划到规模化系统推广</tspan></text></g><g ed:width="535" ed:parentid="101" id="150" ed:height="58" transform="matrix(1,0,0,1,412,1236)"><path stroke="#ebecf3" stroke-linejoin="round" d="M4,0L531,0C533.7,0,535,1.3,535,4L535,54C535,56.7,533.7,58,531,58L4,58C1.3,58,0,56.7,0,54L0,4C0,1.3,1.3,0,4,0z" fill="#ebecf3"/><text class="st2"><tspan style="white-space:pre" x="18" y="23.4">第七章 怎么做？数字化转型成功基础：规模化培养数字化人才和建设</tspan><tspan style="white-space:pre" x="18" y="44.5">敏捷组织</tspan></text></g><g ed:width="157" ed:parentid="148" id="152" ed:height="24.5" transform="matrix(1,0,0,1,931,1041)"><path stroke="#696969" stroke-linejoin="round" d="M0,24.5L157,24.5" fill="none"/><text class="st3"><tspan style="white-space:pre" x="8" y="16.1">6.1.创建数字化转型计划</tspan></text></g><g ed:width="170" ed:parentid="148" id="154" ed:height="24.5" transform="matrix(1,0,0,1,931,1072)"><path stroke="#696969" stroke-linejoin="round" d="M0,24.5L170,24.5" fill="none"/><text class="st3"><tspan style="white-space:pre" x="8" y="16.1">6.2.切换到数字化运营体系</tspan></text></g><g ed:width="235" ed:parentid="148" id="156" ed:height="24.5" transform="matrix(1,0,0,1,931,1103)"><path stroke="#696969" stroke-linejoin="round" d="M0,24.5L235,24.5" fill="none"/><text class="st3"><tspan style="white-space:pre" x="8" y="16.1">6.3.以速度为指导原则进行规模化推广</tspan></text></g><g ed:width="118" ed:parentid="148" id="158" ed:height="24.5" transform="matrix(1,0,0,1,931,1134)"><path stroke="#696969" stroke-linejoin="round" d="M0,24.5L118,24.5" fill="none"/><text class="st3"><tspan style="white-space:pre" x="8" y="16.1">6.4.以客户为中心</tspan></text></g><g ed:width="144" ed:parentid="148" id="160" ed:height="24.5" transform="matrix(1,0,0,1,931,1165)"><path stroke="#696969" stroke-linejoin="round" d="M0,24.5L144,24.5" fill="none"/><text class="st3"><tspan style="white-space:pre" x="8" y="16.1">6.5.以信息技术为武器</tspan></text></g><g ed:width="412" ed:parentid="101" id="162" ed:height="37" transform="matrix(1,0,0,1,412,1351)"><path stroke="#ebecf3" stroke-linejoin="round" d="M4,0L408,0C410.7,0,412,1.3,412,4L412,33C412,35.7,410.7,37,408,37L4,37C1.3,37,0,35.7,0,33L0,4C0,1.3,1.3,0,4,0z" fill="#ebecf3"/><text class="st2"><tspan style="white-space:pre" x="18" y="23.4">第八章 怎么做？数字化转型的重要抓手：文化和制度</tspan></text></g><g ed:width="183" ed:parentid="150" id="164" ed:height="24.5" transform="matrix(1,0,0,1,974,1222)"><path stroke="#696969" stroke-linejoin="round" d="M0,24.5L183,24.5" fill="none"/><text class="st3"><tspan style="white-space:pre" x="8" y="16.1">7.1.数字化人才的规模化培养</tspan></text></g><g ed:width="261" ed:parentid="150" id="166" ed:height="24.5" transform="matrix(1,0,0,1,974,1253)"><path stroke="#696969" stroke-linejoin="round" d="M0,24.5L261,24.5" fill="none"/><text class="st3"><tspan style="white-space:pre" x="8" y="16.1">7.2.通过数字化的方式创造更大的人才价值</tspan></text></g><g ed:width="118" ed:parentid="150" id="168" ed:height="24.5" transform="matrix(1,0,0,1,974,1284)"><path stroke="#696969" stroke-linejoin="round" d="M0,24.5L118,24.5" fill="none"/><text class="st3"><tspan style="white-space:pre" x="8" y="16.1">7.3.建立敏捷组织</tspan></text></g><g ed:width="157" ed:parentid="162" id="170" ed:height="24.5" transform="matrix(1,0,0,1,851,1342)"><path stroke="#696969" stroke-linejoin="round" d="M0,24.5L157,24.5" fill="none"/><text class="st3"><tspan style="white-space:pre" x="8" y="16.1">8.1.让企业文化变革扎根</tspan></text></g><g ed:width="249" ed:parentid="162" id="172" ed:height="24.5" transform="matrix(1,0,0,1,851,1373)"><path stroke="#696969" stroke-linejoin="round" d="M0,24.5L249,24.5" fill="none"/><text class="st3"><tspan style="white-space:pre" x="8" y="16.1">8.2.OKR：适用于数字化转型的考核制度</tspan></text></g><g ed:width="514" ed:parentid="102" id="174" ed:height="43.5" transform="matrix(1,0,0,1,883,21)"><path stroke="#696969" stroke-linejoin="round" d="M0,43.5L514,43.5" fill="none"/><text class="st3"><tspan style="white-space:pre" x="8" y="16.1">数字化转型并不单纯是一个信息技术（IT）的问题，也不是简单地应用数字化技术。其</tspan><tspan style="white-space:pre" x="8" y="35.1">终极目标是重新定义客户价值，开拓全新业务模式和颠覆固有的工作方式</tspan></text></g><g ed:width="213" ed:parentid="108" id="178" ed:height="24.5" transform="matrix(1,0,0,1,1093,102)"><path stroke="#696969" stroke-linejoin="round" d="M0,24.5L213,24.5" fill="none"/><text class="st3"><tspan style="white-space:pre" x="8" y="16.1">行业之间的边界地带容易产生创新</tspan></text></g><g ed:width="314" ed:parentid="108" id="180" ed:height="24.5" transform="matrix(1,0,0,1,1093,133)"><path stroke="#696969" stroke-linejoin="round" d="M0,24.5L314,24.5" fill="none"/><text class="st3"><tspan style="white-space:pre" x="8" y="16.1">B2B与B2C之间的界限日益模糊，B2B演变为B2B2C</tspan></text></g><g ed:width="200" ed:parentid="108" id="182" ed:height="24.5" transform="matrix(1,0,0,1,1093,164)"><path stroke="#696969" stroke-linejoin="round" d="M0,24.5L200,24.5" fill="none"/><text class="st3"><tspan style="white-space:pre" x="8" y="16.1">软件和分析能力变得越来越重要</tspan></text></g><g ed:width="77" ed:parentid="104" id="184" ed:height="24.5" transform="matrix(1,0,0,1,867,253)"><path stroke="#696969" stroke-linejoin="round" d="M0,24.5L77,24.5" fill="none"/><text class="st3"><tspan style="white-space:pre" x="8" y="16.1">福特T型车</tspan></text></g><g ed:width="122" ed:parentid="116" id="186" ed:height="24.5" transform="matrix(1,0,0,1,1207,315)"><path stroke="#696969" stroke-linejoin="round" d="M0,24.5L122,24.5" fill="none"/><text class="st3"><tspan style="white-space:pre" x="8" y="16.1">构建新的生态体系</tspan></text></g><g ed:width="122" ed:parentid="116" id="188" ed:height="24.5" transform="matrix(1,0,0,1,1207,346)"><path stroke="#696969" stroke-linejoin="round" d="M0,24.5L122,24.5" fill="none"/><text class="st3"><tspan style="white-space:pre" x="8" y="16.1">开发新的业务框架</tspan></text></g><g ed:width="122" ed:parentid="116" id="190" ed:height="24.5" transform="matrix(1,0,0,1,1207,377)"><path stroke="#696969" stroke-linejoin="round" d="M0,24.5L122,24.5" fill="none"/><text class="st3"><tspan style="white-space:pre" x="8" y="16.1">强化新的技术基础</tspan></text></g><g ed:width="291" ed:parentid="118" id="192" ed:height="24.5" transform="matrix(1,0,0,1,1246,408)"><path stroke="#696969" stroke-linejoin="round" d="M0,24.5L291,24.5" fill="none"/><text class="st3"><tspan style="white-space:pre" x="8" y="16.1">数字化转型的过程：全面计划到规模化系统推广</tspan></text></g><g ed:width="265" ed:parentid="118" id="194" ed:height="24.5" transform="matrix(1,0,0,1,1246,439)"><path stroke="#696969" stroke-linejoin="round" d="M0,24.5L265,24.5" fill="none"/><text class="st3"><tspan style="white-space:pre" x="8" y="16.1">数字化转型的基础：数字化人才和敏捷组织</tspan></text></g><g ed:width="252" ed:parentid="118" id="196" ed:height="24.5" transform="matrix(1,0,0,1,1246,470)"><path stroke="#696969" stroke-linejoin="round" d="M0,24.5L252,24.5" fill="none"/><text class="st3"><tspan style="white-space:pre" x="8" y="16.1">数字化转型的重要抓手：文化和制度变革</tspan></text></g><g ed:width="109" ed:parentid="120" id="198" ed:height="24.5" transform="matrix(1,0,0,1,1051,501)"><path stroke="#696969" stroke-linejoin="round" d="M0,24.5L109,24.5" fill="none"/><text class="st3"><tspan style="white-space:pre" x="8" y="16.1">稳固的客户关系</tspan></text></g><g ed:width="161" ed:parentid="120" id="200" ed:height="24.5" transform="matrix(1,0,0,1,1051,532)"><path stroke="#696969" stroke-linejoin="round" d="M0,24.5L161,24.5" fill="none"/><text class="st3"><tspan style="white-space:pre" x="8" y="16.1">存量数据资产是新的石油</tspan></text></g><g ed:width="70" ed:parentid="120" id="202" ed:height="24.5" transform="matrix(1,0,0,1,1051,563)"><path stroke="#696969" stroke-linejoin="round" d="M0,24.5L70,24.5" fill="none"/><text class="st3"><tspan style="white-space:pre" x="8" y="16.1">情感联系</tspan></text></g><symbol id="plus"><path d="M11,6C11,8.8,8.8,11,6,11C3.2,11,1,8.8,1,6C1,3.2,3.2,1,6,1C8.8,1,11,3.2,11,6z" fill="url(#lg1)"/><path stroke-width="0.7" stroke="#46a000" d="M11,6C11,8.8,8.8,11,6,11C3.2,11,1,8.8,1,6C1,3.2,3.2,1,6,1C8.8,1,11,3.2,11,6zM3,6L9,6M6,3L6,9" fill="none"/></symbol><symbol id="minus"><path d="M11,6C11,8.8,8.8,11,6,11C3.2,11,1,8.8,1,6C1,3.2,3.2,1,6,1C8.8,1,11,3.2,11,6z" fill="url(#lg1)"/><path stroke-width="0.7" stroke="#46a000" d="M11,6C11,8.8,8.8,11,6,11C3.2,11,1,8.8,1,6C1,3.2,3.2,1,6,1C8.8,1,11,3.2,11,6zM3,6L9,6" fill="none"/></symbol><g transform="translate(350,703)" ed:togtopicid="101"><use xlink:href="#minus"/></g><g transform="translate(857,114)" ed:togtopicid="102"><use xlink:href="#minus"/></g><g transform="translate(841,414)" ed:togtopicid="104"><use xlink:href="#minus"/></g><g transform="translate(1067,139)" ed:togtopicid="108"><use xlink:href="#minus"/></g><g transform="translate(761,688)" ed:togtopicid="112"><use xlink:href="#minus"/></g><g transform="translate(1181,352)" ed:togtopicid="116"><use xlink:href="#minus"/></g><g transform="translate(1220,445)" ed:togtopicid="118"><use xlink:href="#minus"/></g><g transform="translate(1025,538)" ed:togtopicid="120"><use xlink:href="#minus"/></g><g transform="translate(665,839)" ed:togtopicid="132"><use xlink:href="#minus"/></g><g transform="translate(729,958)" ed:togtopicid="140"><use xlink:href="#minus"/></g><g transform="translate(905,1109)" ed:togtopicid="148"><use xlink:href="#minus"/></g><g transform="translate(948,1259)" ed:togtopicid="150"><use xlink:href="#minus"/></g><g transform="translate(825,1363)" ed:togtopicid="162"><use xlink:href="#minus"/></g></svg>