<svg xmlns:ev="http://www.w3.org/2001/xml-events" ed:name="Page-1" ed:hSpacing="30" viewBox="0 0 719 1506" xmlns="http://www.w3.org/2000/svg" xmlns:ed="https://www.edrawsoft.cn/xml/2017/SVGExtensions/" ed:vSpacing="30" height="1506" xmlns:xlink="http://www.w3.org/1999/xlink" width="719" id="page100"><style type="text/css"><![CDATA[
g[ed\:togtopicid],g[ed\:hyperlink],g[ed\:comment],g[ed\:note] {cursor:pointer;}
g[id] {-moz-user-select: none;-ms-user-select: none;user-select: none;}
svg text::selection,svg tspan::selection{background-color: #4285f4;color: #ffffff;fill: #ffffff;}
.st3 {fill:#303030;font-family:微软雅黑;font-size:12pt}
.st2 {fill:#454545;font-family:微软雅黑;font-size:10pt}
.st1 {fill:#ffffff;font-family:微软雅黑;font-size:14pt}
]]></style><defs><linearGradient x1="0%" y1="0%" y2="100%" id="lg1" x2="0%"><stop stop-color="#ffffff" offset="0"/><stop stop-color="#f0f5f0" offset="0.25"/><stop stop-color="#e1ebe1" offset="0.75"/><stop stop-color="#c8d7c8" offset="1"/></linearGradient></defs><rect x="0" height="1506" fill="#ffffff" y="0" width="719"/><path transform="matrix(1,0,0,1,314,55)" stroke-linecap="round" fill="none" d="M-13.5,9.4C-0.5,9.4,0.3,-9.4,13.5,-9.4" stroke-linejoin="round" id="104" ed:parentid="105" stroke="#696969" ed:tosuperid="103"/><path transform="matrix(1,0,0,1,162,409)" stroke-linecap="round" fill="none" d="M-40.3,315.7C7.3,185.8,-50.8,-344.3,67.3,-344.3" stroke-linejoin="round" id="106" ed:parentid="101" stroke="#696969" ed:tosuperid="105"/><path transform="matrix(1,0,0,1,162,569)" stroke-linecap="round" fill="none" d="M-34.3,155.3C1.3,68.9,-34.8,-183.8,67.3,-183.8" stroke-linejoin="round" id="108" ed:parentid="101" stroke="#696969" ed:tosuperid="107"/><path transform="matrix(1,0,0,1,314,70)" stroke-linecap="round" fill="none" d="M-13.5,-6.1C-1.3,-6.1,2.1,6.1,13.5,6.1" stroke-linejoin="round" id="110" ed:parentid="105" stroke="#696969" ed:tosuperid="109"/><path transform="matrix(1,0,0,1,314,86)" stroke-linecap="round" fill="none" d="M-13.5,-21.6C2.1,-21.6,-5.7,21.6,13.5,21.6" stroke-linejoin="round" id="112" ed:parentid="105" stroke="#696969" ed:tosuperid="111"/><path transform="matrix(1,0,0,1,362,275)" stroke-linecap="round" fill="none" d="M-13.5,110.1C5.4,110.1,-13.5,-110.1,13.5,-110.1" stroke-linejoin="round" id="114" ed:parentid="107" stroke="#696969" ed:tosuperid="113"/><path transform="matrix(1,0,0,1,362,291)" stroke-linecap="round" fill="none" d="M-13.5,94.6C5.4,94.6,-13.5,-94.6,13.5,-94.6" stroke-linejoin="round" id="116" ed:parentid="107" stroke="#696969" ed:tosuperid="115"/><path transform="matrix(1,0,0,1,362,306)" stroke-linecap="round" fill="none" d="M-13.5,79.1C5.4,79.1,-13.5,-79.1,13.5,-79.1" stroke-linejoin="round" id="118" ed:parentid="107" stroke="#696969" ed:tosuperid="117"/><path transform="matrix(1,0,0,1,362,322)" stroke-linecap="round" fill="none" d="M-13.5,63.6C5.4,63.6,-13.5,-63.6,13.5,-63.6" stroke-linejoin="round" id="120" ed:parentid="107" stroke="#696969" ed:tosuperid="119"/><path transform="matrix(1,0,0,1,362,353)" stroke-linecap="round" fill="none" d="M-13.5,32.6C3.9,32.6,-10,-32.6,13.5,-32.6" stroke-linejoin="round" id="122" ed:parentid="107" stroke="#696969" ed:tosuperid="121"/><path transform="matrix(1,0,0,1,362,337)" stroke-linecap="round" fill="none" d="M-13.5,48.1C5.3,48.1,-13.2,-48.1,13.5,-48.1" stroke-linejoin="round" id="124" ed:parentid="107" stroke="#696969" ed:tosuperid="123"/><path transform="matrix(1,0,0,1,362,368)" stroke-linecap="round" fill="none" d="M-13.5,17.1C1.2,17.1,-3.6,-17.1,13.5,-17.1" stroke-linejoin="round" id="126" ed:parentid="107" stroke="#696969" ed:tosuperid="125"/><path transform="matrix(1,0,0,1,362,384)" stroke-linecap="round" fill="none" d="M-13.5,1.6C-2.3,1.6,4.5,-1.6,13.5,-1.6" stroke-linejoin="round" id="128" ed:parentid="107" stroke="#696969" ed:tosuperid="127"/><path transform="matrix(1,0,0,1,362,399)" stroke-linecap="round" fill="none" d="M-13.5,-13.9C0.5,-13.9,-2,13.9,13.5,13.9" stroke-linejoin="round" id="130" ed:parentid="107" stroke="#696969" ed:tosuperid="129"/><path transform="matrix(1,0,0,1,362,415)" stroke-linecap="round" fill="none" d="M-13.5,-29.4C3.4,-29.4,-8.9,29.4,13.5,29.4" stroke-linejoin="round" id="132" ed:parentid="107" stroke="#696969" ed:tosuperid="131"/><path transform="matrix(1,0,0,1,362,430)" stroke-linecap="round" fill="none" d="M-13.5,-44.9C5.1,-44.9,-12.8,44.9,13.5,44.9" stroke-linejoin="round" id="134" ed:parentid="107" stroke="#696969" ed:tosuperid="133"/><path transform="matrix(1,0,0,1,362,446)" stroke-linecap="round" fill="none" d="M-13.5,-60.4C5.4,-60.4,-13.5,60.4,13.5,60.4" stroke-linejoin="round" id="136" ed:parentid="107" stroke="#696969" ed:tosuperid="135"/><path transform="matrix(1,0,0,1,362,461)" stroke-linecap="round" fill="none" d="M-13.5,-75.9C5.4,-75.9,-13.5,75.9,13.5,75.9" stroke-linejoin="round" id="138" ed:parentid="107" stroke="#696969" ed:tosuperid="137"/><path transform="matrix(1,0,0,1,362,477)" stroke-linecap="round" fill="none" d="M-13.5,-91.4C5.4,-91.4,-13.5,91.4,13.5,91.4" stroke-linejoin="round" id="140" ed:parentid="107" stroke="#696969" ed:tosuperid="139"/><path transform="matrix(1,0,0,1,362,492)" stroke-linecap="round" fill="none" d="M-13.5,-106.9C5.4,-106.9,-13.5,106.9,13.5,106.9" stroke-linejoin="round" id="142" ed:parentid="107" stroke="#696969" ed:tosuperid="141"/><path transform="matrix(1,0,0,1,362,508)" stroke-linecap="round" fill="none" d="M-13.5,-122.4C5.4,-122.4,-13.5,122.4,13.5,122.4" stroke-linejoin="round" id="144" ed:parentid="107" stroke="#696969" ed:tosuperid="143"/><path transform="matrix(1,0,0,1,162,792)" stroke-linecap="round" fill="none" d="M-9.2,-10.3C12.6,11.9,31,38.8,67.3,38.8" stroke-linejoin="round" id="166" ed:parentid="101" stroke="#696969" ed:tosuperid="165"/><path transform="matrix(1,0,0,1,362,759)" stroke-linecap="round" fill="none" d="M-13.5,71.4C5.4,71.4,-13.5,-71.4,13.5,-71.4" stroke-linejoin="round" id="168" ed:parentid="165" stroke="#696969" ed:tosuperid="167"/><path transform="matrix(1,0,0,1,362,774)" stroke-linecap="round" fill="none" d="M-13.5,55.9C5.4,55.9,-13.5,-55.9,13.5,-55.9" stroke-linejoin="round" id="170" ed:parentid="165" stroke="#696969" ed:tosuperid="169"/><path transform="matrix(1,0,0,1,362,790)" stroke-linecap="round" fill="none" d="M-13.5,40.4C4.8,40.4,-12,-40.4,13.5,-40.4" stroke-linejoin="round" id="172" ed:parentid="165" stroke="#696969" ed:tosuperid="171"/><path transform="matrix(1,0,0,1,362,805)" stroke-linecap="round" fill="none" d="M-13.5,24.9C2.7,24.9,-7.1,-24.9,13.5,-24.9" stroke-linejoin="round" id="174" ed:parentid="165" stroke="#696969" ed:tosuperid="173"/><path transform="matrix(1,0,0,1,362,821)" stroke-linecap="round" fill="none" d="M-13.5,9.4C-0.5,9.4,0.3,-9.4,13.5,-9.4" stroke-linejoin="round" id="176" ed:parentid="165" stroke="#696969" ed:tosuperid="175"/><path transform="matrix(1,0,0,1,362,836)" stroke-linecap="round" fill="none" d="M-13.5,-6.1C-1.3,-6.1,2.1,6.1,13.5,6.1" stroke-linejoin="round" id="178" ed:parentid="165" stroke="#696969" ed:tosuperid="177"/><path transform="matrix(1,0,0,1,362,852)" stroke-linecap="round" fill="none" d="M-13.5,-21.6C2.1,-21.6,-5.7,21.6,13.5,21.6" stroke-linejoin="round" id="180" ed:parentid="165" stroke="#696969" ed:tosuperid="179"/><path transform="matrix(1,0,0,1,362,867)" stroke-linecap="round" fill="none" d="M-13.5,-37.1C4.4,-37.1,-11.3,37.1,13.5,37.1" stroke-linejoin="round" id="182" ed:parentid="165" stroke="#696969" ed:tosuperid="181"/><path transform="matrix(1,0,0,1,362,883)" stroke-linecap="round" fill="none" d="M-13.5,-52.6C5.4,-52.6,-13.5,52.6,13.5,52.6" stroke-linejoin="round" id="184" ed:parentid="165" stroke="#696969" ed:tosuperid="183"/><path transform="matrix(1,0,0,1,362,898)" stroke-linecap="round" fill="none" d="M-13.5,-68.1C5.4,-68.1,-13.5,68.1,13.5,68.1" stroke-linejoin="round" id="186" ed:parentid="165" stroke="#696969" ed:tosuperid="185"/><path transform="matrix(1,0,0,1,362,914)" stroke-linecap="round" fill="none" d="M-13.5,-83.6C5.4,-83.6,-13.5,83.6,13.5,83.6" stroke-linejoin="round" id="188" ed:parentid="165" stroke="#696969" ed:tosuperid="187"/><path transform="matrix(1,0,0,1,162,968)" stroke-linecap="round" fill="none" d="M-35.6,-186.3C2.8,-90.3,-42.2,214.8,67.3,214.8" stroke-linejoin="round" id="190" ed:parentid="101" stroke="#696969" ed:tosuperid="189"/><path transform="matrix(1,0,0,1,362,1119)" stroke-linecap="round" fill="none" d="M-13.5,63.6C5.4,63.6,-13.5,-63.6,13.5,-63.6" stroke-linejoin="round" id="192" ed:parentid="189" stroke="#696969" ed:tosuperid="191"/><path transform="matrix(1,0,0,1,362,1134)" stroke-linecap="round" fill="none" d="M-13.5,48.1C5.3,48.1,-13.2,-48.1,13.5,-48.1" stroke-linejoin="round" id="194" ed:parentid="189" stroke="#696969" ed:tosuperid="193"/><path transform="matrix(1,0,0,1,362,1150)" stroke-linecap="round" fill="none" d="M-13.5,32.6C3.9,32.6,-10,-32.6,13.5,-32.6" stroke-linejoin="round" id="196" ed:parentid="189" stroke="#696969" ed:tosuperid="195"/><path transform="matrix(1,0,0,1,362,1165)" stroke-linecap="round" fill="none" d="M-13.5,17.1C1.2,17.1,-3.6,-17.1,13.5,-17.1" stroke-linejoin="round" id="198" ed:parentid="189" stroke="#696969" ed:tosuperid="197"/><path transform="matrix(1,0,0,1,362,1181)" stroke-linecap="round" fill="none" d="M-13.5,1.6C-2.3,1.6,4.5,-1.6,13.5,-1.6" stroke-linejoin="round" id="200" ed:parentid="189" stroke="#696969" ed:tosuperid="199"/><path transform="matrix(1,0,0,1,362,1196)" stroke-linecap="round" fill="none" d="M-13.5,-13.9C0.5,-13.9,-2,13.9,13.5,13.9" stroke-linejoin="round" id="202" ed:parentid="189" stroke="#696969" ed:tosuperid="201"/><path transform="matrix(1,0,0,1,362,1212)" stroke-linecap="round" fill="none" d="M-13.5,-29.4C3.4,-29.4,-8.9,29.4,13.5,29.4" stroke-linejoin="round" id="204" ed:parentid="189" stroke="#696969" ed:tosuperid="203"/><path transform="matrix(1,0,0,1,362,1227)" stroke-linecap="round" fill="none" d="M-13.5,-44.9C5.1,-44.9,-12.8,44.9,13.5,44.9" stroke-linejoin="round" id="206" ed:parentid="189" stroke="#696969" ed:tosuperid="205"/><path transform="matrix(1,0,0,1,362,1243)" stroke-linecap="round" fill="none" d="M-13.5,-60.4C5.4,-60.4,-13.5,60.4,13.5,60.4" stroke-linejoin="round" id="208" ed:parentid="189" stroke="#696969" ed:tosuperid="207"/><path transform="matrix(1,0,0,1,362,1258)" stroke-linecap="round" fill="none" d="M-13.5,-75.9C5.4,-75.9,-13.5,75.9,13.5,75.9" stroke-linejoin="round" id="210" ed:parentid="189" stroke="#696969" ed:tosuperid="209"/><path transform="matrix(1,0,0,1,162,1089)" stroke-linecap="round" fill="none" d="M-40.1,-308C7.1,-179.9,-50.6,336.5,67.3,336.5" stroke-linejoin="round" id="212" ed:parentid="101" stroke="#696969" ed:tosuperid="211"/><path transform="matrix(1,0,0,1,362,1409)" stroke-linecap="round" fill="none" d="M-13.5,17.1C1.2,17.1,-3.6,-17.1,13.5,-17.1" stroke-linejoin="round" id="214" ed:parentid="211" stroke="#696969" ed:tosuperid="213"/><path transform="matrix(1,0,0,1,362,1424)" stroke-linecap="round" fill="none" d="M-13.5,1.6C-2.3,1.6,4.5,-1.6,13.5,-1.6" stroke-linejoin="round" id="216" ed:parentid="211" stroke="#696969" ed:tosuperid="215"/><path transform="matrix(1,0,0,1,362,1440)" stroke-linecap="round" fill="none" d="M-13.5,-13.9C0.5,-13.9,-2,13.9,13.5,13.9" stroke-linejoin="round" id="218" ed:parentid="211" stroke="#696969" ed:tosuperid="217"/><path transform="matrix(1,0,0,1,362,1455)" stroke-linecap="round" fill="none" d="M-13.5,-29.4C3.4,-29.4,-8.9,29.4,13.5,29.4" stroke-linejoin="round" id="220" ed:parentid="211" stroke="#696969" ed:tosuperid="219"/><g ed:topictype="mainidea" transform="matrix(1,0,0,1,23,724)" ed:width="143" ed:height="57" id="101" ed:layout="rightmap"><path fill="#435fbc" d="M4,0L139,0C141.7,0,143,1.3,143,4L143,53C143,55.7,141.7,57,139,57L4,57C1.3,57,0,55.7,0,53L0,4C0,1.3,1.3,0,4,0z" stroke-width="3" stroke-linejoin="round" stroke="#435fbc"/><text class="st1"><tspan x="21" style="white-space:pre" y="34.5">信息论40讲</tspan></text></g><g transform="matrix(1,0,0,1,327,21)" ed:width="167" ed:height="24.5" id="103" ed:parentid="105"><path fill="none" d="M0,24.5L167,24.5" stroke-linejoin="round" stroke="#696969"/><text class="st2"><tspan x="8" style="white-space:pre" y="16.1">01.影响世界的三比特信息</tspan></text></g><g transform="matrix(1,0,0,1,229,46)" ed:width="71" ed:height="37" id="105" ed:parentid="101"><path fill="#ebecf3" d="M4,0L67,0C69.7,0,71,1.3,71,4L71,33C71,35.7,69.7,37,67,37L4,37C1.3,37,0,35.7,0,33L0,4C0,1.3,1.3,0,4,0z" stroke-linejoin="round" stroke="#ebecf3"/><text class="st3"><tspan x="18" style="white-space:pre" y="23.4">导论</tspan></text></g><g transform="matrix(1,0,0,1,229,356)" ed:width="119" ed:height="58" id="107" ed:parentid="101"><path fill="#ebecf3" d="M4,0L115,0C117.7,0,119,1.3,119,4L119,54C119,56.7,117.7,58,115,58L4,58C1.3,58,0,56.7,0,54L0,4C0,1.3,1.3,0,4,0z" stroke-linejoin="round" stroke="#ebecf3"/><text class="st3"><tspan x="18" style="white-space:pre" y="23.4">第一模块：</tspan><tspan x="18" style="white-space:pre" y="44.5">信息产生</tspan></text></g><g transform="matrix(1,0,0,1,327,52)" ed:width="232" ed:height="24.5" id="109" ed:parentid="105"><path fill="none" d="M0,24.5L232,24.5" stroke-linejoin="round" stroke="#696969"/><text class="st2"><tspan x="8" style="white-space:pre" y="16.1">02.解开世界之谜的三篇诺贝尔奖论文</tspan></text></g><g transform="matrix(1,0,0,1,327,83)" ed:width="167" ed:height="24.5" id="111" ed:parentid="105"><path fill="none" d="M0,24.5L167,24.5" stroke-linejoin="round" stroke="#696969"/><text class="st2"><tspan x="8" style="white-space:pre" y="16.1">03.大数据思维的科学基础</tspan></text></g><g transform="matrix(1,0,0,1,375,141)" ed:width="258" ed:height="24.5" id="113" ed:parentid="107"><path fill="none" d="M0,24.5L258,24.5" stroke-linejoin="round" stroke="#696969"/><text class="st2"><tspan x="8" style="white-space:pre" y="16.1">04.信息度量：世界上有稳赚不赔的生意吗</tspan></text></g><g transform="matrix(1,0,0,1,375,172)" ed:width="258" ed:height="24.5" id="115" ed:parentid="107"><path fill="none" d="M0,24.5L258,24.5" stroke-linejoin="round" stroke="#696969"/><text class="st2"><tspan x="8" style="white-space:pre" y="16.1">05.信息编码：数字和文字是如何诞生的？</tspan></text></g><g transform="matrix(1,0,0,1,375,203)" ed:width="274" ed:height="24.5" id="117" ed:parentid="107"><path fill="none" d="M0,24.5L274,24.5" stroke-linejoin="round" stroke="#696969"/><text class="st2"><tspan x="8" style="white-space:pre" y="16.1">06.有效编码：10个手指能表示多少个数字？</tspan></text></g><g transform="matrix(1,0,0,1,375,234)" ed:width="284" ed:height="24.5" id="119" ed:parentid="107"><path fill="none" d="M0,24.5L284,24.5" stroke-linejoin="round" stroke="#696969"/><text class="st2"><tspan x="8" style="white-space:pre" y="16.1">07.最短编码：如何利用哈夫曼编码原理投资？</tspan></text></g><g transform="matrix(1,0,0,1,375,296)" ed:width="297" ed:height="24.5" id="121" ed:parentid="107"><path fill="none" d="M0,24.5L297,24.5" stroke-linejoin="round" stroke="#696969"/><text class="st2"><tspan x="8" style="white-space:pre" y="16.1">09.冗余度：《史记》和《圣经》哪个信息量大？</tspan></text></g><g transform="matrix(1,0,0,1,375,265)" ed:width="297" ed:height="24.5" id="123" ed:parentid="107"><path fill="none" d="M0,24.5L297,24.5" stroke-linejoin="round" stroke="#696969"/><text class="st2"><tspan x="8" style="white-space:pre" y="16.1">08.矢量化：象形文字和拼音文字是如何演化的？</tspan></text></g><g transform="matrix(1,0,0,1,375,327)" ed:width="206" ed:height="24.5" id="125" ed:parentid="107"><path fill="none" d="M0,24.5L206,24.5" stroke-linejoin="round" stroke="#696969"/><text class="st2"><tspan x="8" style="white-space:pre" y="16.1">10.等价性：信息是如何压缩的？</tspan></text></g><g transform="matrix(1,0,0,1,375,358)" ed:width="258" ed:height="24.5" id="127" ed:parentid="107"><path fill="none" d="M0,24.5L258,24.5" stroke-linejoin="round" stroke="#696969"/><text class="st2"><tspan x="8" style="white-space:pre" y="16.1">11.信息增量：信息压缩中德保守主义原则</tspan></text></g><g transform="matrix(1,0,0,1,375,389)" ed:width="310" ed:height="24.5" id="129" ed:parentid="107"><path fill="none" d="M0,24.5L310,24.5" stroke-linejoin="round" stroke="#696969"/><text class="st2"><tspan x="8" style="white-space:pre" y="16.1">12.压缩比和失真率：如何在信息取舍之间做平衡？</tspan></text></g><g transform="matrix(1,0,0,1,375,420)" ed:width="310" ed:height="24.5" id="131" ed:parentid="107"><path fill="none" d="M0,24.5L310,24.5" stroke-linejoin="round" stroke="#696969"/><text class="st2"><tspan x="8" style="white-space:pre" y="16.1">13.信息正交性：在信息很多的情况下如何做决策？</tspan></text></g><g transform="matrix(1,0,0,1,375,451)" ed:width="271" ed:height="24.5" id="133" ed:parentid="107"><path fill="none" d="M0,24.5L271,24.5" stroke-linejoin="round" stroke="#696969"/><text class="st2"><tspan x="8" style="white-space:pre" y="16.1">14.互信息：相关不是因果，那相关是什么？</tspan></text></g><g transform="matrix(1,0,0,1,375,482)" ed:width="323" ed:height="24.5" id="135" ed:parentid="107"><path fill="none" d="M0,24.5L323,24.5" stroke-linejoin="round" stroke="#696969"/><text class="st2"><tspan x="8" style="white-space:pre" y="16.1">15.条件熵和信息增益：你提供的信息到底值多少钱？</tspan></text></g><g transform="matrix(1,0,0,1,375,513)" ed:width="245" ed:height="24.5" id="137" ed:parentid="107"><path fill="none" d="M0,24.5L245,24.5" stroke-linejoin="round" stroke="#696969"/><text class="st2"><tspan x="8" style="white-space:pre" y="16.1">16.置信度：马斯克犯了什么数学错误？</tspan></text></g><g transform="matrix(1,0,0,1,375,544)" ed:width="284" ed:height="24.5" id="139" ed:parentid="107"><path fill="none" d="M0,24.5L284,24.5" stroke-linejoin="round" stroke="#696969"/><text class="st2"><tspan x="8" style="white-space:pre" y="16.1">17.交叉熵：如何避免做出与事实相反的计划？</tspan></text></g><g transform="matrix(1,0,0,1,375,575)" ed:width="245" ed:height="24.5" id="141" ed:parentid="107"><path fill="none" d="M0,24.5L245,24.5" stroke-linejoin="round" stroke="#696969"/><text class="st2"><tspan x="8" style="white-space:pre" y="16.1">18.复盘：如何识别误导人的错误信息？</tspan></text></g><g transform="matrix(1,0,0,1,375,606)" ed:width="200" ed:height="24.5" id="143" ed:parentid="107"><path fill="none" d="M0,24.5L200,24.5" stroke-linejoin="round" stroke="#696969"/><text class="st2"><tspan x="8" style="white-space:pre" y="16.1">问答：高盛是如何两头通吃的？</tspan></text></g><g transform="matrix(1,0,0,1,229,801)" ed:width="119" ed:height="58" id="165" ed:parentid="101"><path fill="#ebecf3" d="M4,0L115,0C117.7,0,119,1.3,119,4L119,54C119,56.7,117.7,58,115,58L4,58C1.3,58,0,56.7,0,54L0,4C0,1.3,1.3,0,4,0z" stroke-linejoin="round" stroke="#ebecf3"/><text class="st3"><tspan x="18" style="white-space:pre" y="23.4">第二模块：</tspan><tspan x="18" style="white-space:pre" y="44.5">信息传播</tspan></text></g><g transform="matrix(1,0,0,1,375,663)" ed:width="180" ed:height="24.5" id="167" ed:parentid="165"><path fill="none" d="M0,24.5L180,24.5" stroke-linejoin="round" stroke="#696969"/><text class="st2"><tspan x="8" style="white-space:pre" y="16.1">19.信噪比：历史有真相吗？</tspan></text></g><g transform="matrix(1,0,0,1,375,694)" ed:width="271" ed:height="24.5" id="169" ed:parentid="165"><path fill="none" d="M0,24.5L271,24.5" stroke-linejoin="round" stroke="#696969"/><text class="st2"><tspan x="8" style="white-space:pre" y="16.1">20.去除噪音：如何获得更多更准确的信息？</tspan></text></g><g transform="matrix(1,0,0,1,375,725)" ed:width="258" ed:height="24.5" id="171" ed:parentid="165"><path fill="none" d="M0,24.5L258,24.5" stroke-linejoin="round" stroke="#696969"/><text class="st2"><tspan x="8" style="white-space:pre" y="16.1">21.信道容量：信息通道的容量有边界吗？</tspan></text></g><g transform="matrix(1,0,0,1,375,756)" ed:width="318" ed:height="24.5" id="173" ed:parentid="165"><path fill="none" d="M0,24.5L318,24.5" stroke-linejoin="round" stroke="#696969"/><text class="st2"><tspan x="8" style="white-space:pre" y="16.1">22.香农第二定律(一)：为什么你的网页总是打不开？</tspan></text></g><g transform="matrix(1,0,0,1,375,787)" ed:width="292" ed:height="24.5" id="175" ed:parentid="165"><path fill="none" d="M0,24.5L292,24.5" stroke-linejoin="round" stroke="#696969"/><text class="st2"><tspan x="8" style="white-space:pre" y="16.1">23.香农第二定律(二)：到底要不要扁平化管理？</tspan></text></g><g transform="matrix(1,0,0,1,375,818)" ed:width="258" ed:height="24.5" id="177" ed:parentid="165"><path fill="none" d="M0,24.5L258,24.5" stroke-linejoin="round" stroke="#696969"/><text class="st2"><tspan x="8" style="white-space:pre" y="16.1">24.纠错码：对待错误额正确态度是什么？</tspan></text></g><g transform="matrix(1,0,0,1,375,849)" ed:width="206" ed:height="24.5" id="179" ed:parentid="165"><path fill="none" d="M0,24.5L206,24.5" stroke-linejoin="round" stroke="#696969"/><text class="st2"><tspan x="8" style="white-space:pre" y="16.1">25.信息加密：韦小宝说谎的秘诀</tspan></text></g><g transform="matrix(1,0,0,1,375,880)" ed:width="320" ed:height="24.5" id="181" ed:parentid="165"><path fill="none" d="M0,24.5L320,24.5" stroke-linejoin="round" stroke="#696969"/><text class="st2"><tspan x="8" style="white-space:pre" y="16.1">26.极简通信史：从1G到5G通信，到底经历了什么？</tspan></text></g><g transform="matrix(1,0,0,1,375,911)" ed:width="243" ed:height="24.5" id="183" ed:parentid="165"><path fill="none" d="M0,24.5L243,24.5" stroke-linejoin="round" stroke="#696969"/><text class="st2"><tspan x="8" style="white-space:pre" y="16.1">27.通信趋势：5G和IoT的商机在哪里？</tspan></text></g><g transform="matrix(1,0,0,1,375,942)" ed:width="245" ed:height="24.5" id="185" ed:parentid="165"><path fill="none" d="M0,24.5L245,24.5" stroke-linejoin="round" stroke="#696969"/><text class="st2"><tspan x="8" style="white-space:pre" y="16.1">28.复盘：世界不完美，我们该怎么办？</tspan></text></g><g transform="matrix(1,0,0,1,375,973)" ed:width="213" ed:height="24.5" id="187" ed:parentid="165"><path fill="none" d="M0,24.5L213,24.5" stroke-linejoin="round" stroke="#696969"/><text class="st2"><tspan x="8" style="white-space:pre" y="16.1">问答：群体共识等于客观事实吗？</tspan></text></g><g transform="matrix(1,0,0,1,229,1153)" ed:width="119" ed:height="58" id="189" ed:parentid="101"><path fill="#ebecf3" d="M4,0L115,0C117.7,0,119,1.3,119,4L119,54C119,56.7,117.7,58,115,58L4,58C1.3,58,0,56.7,0,54L0,4C0,1.3,1.3,0,4,0z" stroke-linejoin="round" stroke="#ebecf3"/><text class="st3"><tspan x="18" style="white-space:pre" y="23.4">第三部分：</tspan><tspan x="18" style="white-space:pre" y="44.5">信息应用</tspan></text></g><g transform="matrix(1,0,0,1,375,1031)" ed:width="245" ed:height="24.5" id="191" ed:parentid="189"><path fill="none" d="M0,24.5L245,24.5" stroke-linejoin="round" stroke="#696969"/><text class="st2"><tspan x="8" style="white-space:pre" y="16.1">29.交叉验证：电信诈骗为什么能成功？</tspan></text></g><g transform="matrix(1,0,0,1,375,1062)" ed:width="245" ed:height="24.5" id="193" ed:parentid="189"><path fill="none" d="M0,24.5L245,24.5" stroke-linejoin="round" stroke="#696969"/><text class="st2"><tspan x="8" style="white-space:pre" y="16.1">30.等价性：如何从等价信息里找答案？</tspan></text></g><g transform="matrix(1,0,0,1,375,1093)" ed:width="310" ed:height="24.5" id="195" ed:parentid="189"><path fill="none" d="M0,24.5L310,24.5" stroke-linejoin="round" stroke="#696969"/><text class="st2"><tspan x="8" style="white-space:pre" y="16.1">31.大数据（一）：从四个特征把握大数据的本质、</tspan></text></g><g transform="matrix(1,0,0,1,375,1124)" ed:width="232" ed:height="24.5" id="197" ed:parentid="189"><path fill="none" d="M0,24.5L232,24.5" stroke-linejoin="round" stroke="#696969"/><text class="st2"><tspan x="8" style="white-space:pre" y="16.1">32.大数据（二）：大数据的四个层次</tspan></text></g><g transform="matrix(1,0,0,1,375,1155)" ed:width="315" ed:height="24.5" id="199" ed:parentid="189"><path fill="none" d="M0,24.5L315,24.5" stroke-linejoin="round" stroke="#696969"/><text class="st2"><tspan x="8" style="white-space:pre" y="16.1">33.互联网广告：为什么Google搜索的广告效果好？</tspan></text></g><g transform="matrix(1,0,0,1,375,1186)" ed:width="271" ed:height="24.5" id="201" ed:parentid="189"><path fill="none" d="M0,24.5L271,24.5" stroke-linejoin="round" stroke="#696969"/><text class="st2"><tspan x="8" style="white-space:pre" y="16.1">34.幸存者偏差：如何避免被已知信息误导？</tspan></text></g><g transform="matrix(1,0,0,1,375,1217)" ed:width="284" ed:height="24.5" id="203" ed:parentid="189"><path fill="none" d="M0,24.5L284,24.5" stroke-linejoin="round" stroke="#696969"/><text class="st2"><tspan x="8" style="white-space:pre" y="16.1">35.奥卡姆剃刀法则：最简单的往往是最有效的</tspan></text></g><g transform="matrix(1,0,0,1,375,1248)" ed:width="323" ed:height="24.5" id="205" ed:parentid="189"><path fill="none" d="M0,24.5L323,24.5" stroke-linejoin="round" stroke="#696969"/><text class="st2"><tspan x="8" style="white-space:pre" y="16.1">36.最大熵原理：确定答案找到之前，我们该做什么？</tspan></text></g><g transform="matrix(1,0,0,1,375,1279)" ed:width="284" ed:height="24.5" id="207" ed:parentid="189"><path fill="none" d="M0,24.5L284,24.5" stroke-linejoin="round" stroke="#696969"/><text class="st2"><tspan x="8" style="white-space:pre" y="16.1">37.麦克斯韦妖：为什么要保持系统的开发性？</tspan></text></g><g transform="matrix(1,0,0,1,375,1310)" ed:width="219" ed:height="24.5" id="209" ed:parentid="189"><path fill="none" d="M0,24.5L219,24.5" stroke-linejoin="round" stroke="#696969"/><text class="st2"><tspan x="8" style="white-space:pre" y="16.1">38.复盘：如何把信息论学以致用？</tspan></text></g><g transform="matrix(1,0,0,1,229,1397)" ed:width="119" ed:height="58" id="211" ed:parentid="101"><path fill="#ebecf3" d="M4,0L115,0C117.7,0,119,1.3,119,4L119,54C119,56.7,117.7,58,115,58L4,58C1.3,58,0,56.7,0,54L0,4C0,1.3,1.3,0,4,0z" stroke-linejoin="round" stroke="#ebecf3"/><text class="st3"><tspan x="18" style="white-space:pre" y="23.4">第四部分：</tspan><tspan x="18" style="white-space:pre" y="44.5">信息论外传</tspan></text></g><g transform="matrix(1,0,0,1,375,1367)" ed:width="232" ed:height="24.5" id="213" ed:parentid="211"><path fill="none" d="M0,24.5L232,24.5" stroke-linejoin="round" stroke="#696969"/><text class="st2"><tspan x="8" style="white-space:pre" y="16.1">39.控制论：要不要成为“变色龙”？</tspan></text></g><g transform="matrix(1,0,0,1,375,1398)" ed:width="271" ed:height="24.5" id="215" ed:parentid="211"><path fill="none" d="M0,24.5L271,24.5" stroke-linejoin="round" stroke="#696969"/><text class="st2"><tspan x="8" style="white-space:pre" y="16.1">40.系统论：如何让整体效用大于部分之和？</tspan></text></g><g transform="matrix(1,0,0,1,375,1429)" ed:width="284" ed:height="24.5" id="217" ed:parentid="211"><path fill="none" d="M0,24.5L284,24.5" stroke-linejoin="round" stroke="#696969"/><text class="st2"><tspan x="8" style="white-space:pre" y="16.1">41.问答：精通各种语言才能做好语言搜索吗？</tspan></text></g><g transform="matrix(1,0,0,1,375,1460)" ed:width="258" ed:height="24.5" id="219" ed:parentid="211"><path fill="none" d="M0,24.5L258,24.5" stroke-linejoin="round" stroke="#696969"/><text class="st2"><tspan x="8" style="white-space:pre" y="16.1">42.问答：从信息论角度看科技发展的方向</tspan></text></g><symbol id="plus"><path fill="url(#lg1)" d="M11,6C11,8.8,8.8,11,6,11C3.2,11,1,8.8,1,6C1,3.2,3.2,1,6,1C8.8,1,11,3.2,11,6z"/><path fill="none" stroke-width="0.7" d="M11,6C11,8.8,8.8,11,6,11C3.2,11,1,8.8,1,6C1,3.2,3.2,1,6,1C8.8,1,11,3.2,11,6zM3,6L9,6M6,3L6,9" stroke="#46a000"/></symbol><symbol id="minus"><path fill="url(#lg1)" d="M11,6C11,8.8,8.8,11,6,11C3.2,11,1,8.8,1,6C1,3.2,3.2,1,6,1C8.8,1,11,3.2,11,6z"/><path fill="none" stroke-width="0.7" d="M11,6C11,8.8,8.8,11,6,11C3.2,11,1,8.8,1,6C1,3.2,3.2,1,6,1C8.8,1,11,3.2,11,6zM3,6L9,6" stroke="#46a000"/></symbol><g ed:togtopicid="101" transform="translate(167,747)"><use xlink:href="#minus"/></g><g ed:togtopicid="105" transform="translate(301,58)"><use xlink:href="#minus"/></g><g ed:togtopicid="107" transform="translate(349,379)"><use xlink:href="#minus"/></g><g ed:togtopicid="165" transform="translate(349,824)"><use xlink:href="#minus"/></g><g ed:togtopicid="189" transform="translate(349,1176)"><use xlink:href="#minus"/></g><g ed:togtopicid="211" transform="translate(349,1420)"><use xlink:href="#minus"/></g></svg>