<svg xmlns:ev="http://www.w3.org/2001/xml-events" ed:name="Page-1" ed:hSpacing="30" viewBox="0 0 802 1833" xmlns="http://www.w3.org/2000/svg" xmlns:ed="https://www.edrawsoft.cn/xml/2017/SVGExtensions/" ed:vSpacing="30" height="1833" xmlns:xlink="http://www.w3.org/1999/xlink" width="802" id="page100"><style type="text/css"><![CDATA[
g[ed\:togtopicid],g[ed\:hyperlink],g[ed\:comment],g[ed\:note] {cursor:pointer;}
g[id] {-moz-user-select: none;-ms-user-select: none;user-select: none;}
svg text::selection,svg tspan::selection{background-color: #4285f4;color: #ffffff;fill: #ffffff;}
.st2 {fill:#303030;font-family:微软雅黑;font-size:12pt}
.st3 {fill:#454545;font-family:微软雅黑;font-size:10pt}
.st1 {fill:#ffffff;font-family:微软雅黑;font-size:14pt}
]]></style><defs><linearGradient x1="0%" y1="0%" y2="100%" id="lg1" x2="0%"><stop stop-color="#ffffff" offset="0"/><stop stop-color="#f0f5f0" offset="0.25"/><stop stop-color="#e1ebe1" offset="0.75"/><stop stop-color="#c8d7c8" offset="1"/></linearGradient></defs><rect x="0" height="1833" fill="#ffffff" y="0" width="802"/><path transform="matrix(1,0,0,1,176,483)" stroke-linecap="round" fill="none" d="M-45.7,405.4C9.8,255.6,-56.4,-433.9,72,-433.9" stroke-linejoin="round" id="103" ed:parentid="101" stroke="#696969" ed:tosuperid="102"/><path transform="matrix(1,0,0,1,176,581)" stroke-linecap="round" fill="none" d="M-42.9,306.9C7.5,179,-54.1,-335.4,72,-335.4" stroke-linejoin="round" id="105" ed:parentid="101" stroke="#696969" ed:tosuperid="104"/><path transform="matrix(1,0,0,1,333,47)" stroke-linecap="round" fill="none" d="M-13.5,1.6C-2.3,1.6,4.5,-1.6,13.5,-1.6" stroke-linejoin="round" id="107" ed:parentid="102" stroke="#696969" ed:tosuperid="106"/><path transform="matrix(1,0,0,1,333,63)" stroke-linecap="round" fill="none" d="M-13.5,-13.9C0.5,-13.9,-2,13.9,13.5,13.9" stroke-linejoin="round" id="109" ed:parentid="102" stroke="#696969" ed:tosuperid="108"/><path transform="matrix(1,0,0,1,445,190)" stroke-linecap="round" fill="none" d="M-13.5,55.9C5.4,55.9,-13.5,-55.9,13.5,-55.9" stroke-linejoin="round" id="111" ed:parentid="104" stroke="#696969" ed:tosuperid="110"/><path transform="matrix(1,0,0,1,445,205)" stroke-linecap="round" fill="none" d="M-13.5,40.4C4.8,40.4,-12,-40.4,13.5,-40.4" stroke-linejoin="round" id="113" ed:parentid="104" stroke="#696969" ed:tosuperid="112"/><path transform="matrix(1,0,0,1,445,221)" stroke-linecap="round" fill="none" d="M-13.5,24.9C2.7,24.9,-7.1,-24.9,13.5,-24.9" stroke-linejoin="round" id="115" ed:parentid="104" stroke="#696969" ed:tosuperid="114"/><path transform="matrix(1,0,0,1,445,236)" stroke-linecap="round" fill="none" d="M-13.5,9.4C-0.5,9.4,0.3,-9.4,13.5,-9.4" stroke-linejoin="round" id="117" ed:parentid="104" stroke="#696969" ed:tosuperid="116"/><path transform="matrix(1,0,0,1,445,252)" stroke-linecap="round" fill="none" d="M-13.5,-6.1C-1.3,-6.1,2.1,6.1,13.5,6.1" stroke-linejoin="round" id="119" ed:parentid="104" stroke="#696969" ed:tosuperid="118"/><path transform="matrix(1,0,0,1,445,267)" stroke-linecap="round" fill="none" d="M-13.5,-21.6C2.1,-21.6,-5.7,21.6,13.5,21.6" stroke-linejoin="round" id="121" ed:parentid="104" stroke="#696969" ed:tosuperid="120"/><path transform="matrix(1,0,0,1,445,283)" stroke-linecap="round" fill="none" d="M-13.5,-37.1C4.4,-37.1,-11.3,37.1,13.5,37.1" stroke-linejoin="round" id="123" ed:parentid="104" stroke="#696969" ed:tosuperid="122"/><path transform="matrix(1,0,0,1,445,298)" stroke-linecap="round" fill="none" d="M-13.5,-52.6C5.4,-52.6,-13.5,52.6,13.5,52.6" stroke-linejoin="round" id="125" ed:parentid="104" stroke="#696969" ed:tosuperid="124"/><path transform="matrix(1,0,0,1,445,314)" stroke-linecap="round" fill="none" d="M-13.5,-68.1C5.4,-68.1,-13.5,68.1,13.5,68.1" stroke-linejoin="round" id="129" ed:parentid="104" stroke="#696969" ed:tosuperid="128"/><path transform="matrix(1,0,0,1,176,734)" stroke-linecap="round" fill="none" d="M-37,154.1C1.3,68.2,-33.9,-182.6,72,-182.6" stroke-linejoin="round" id="131" ed:parentid="101" stroke="#696969" ed:tosuperid="130"/><path transform="matrix(1,0,0,1,397,495)" stroke-linecap="round" fill="none" d="M-13.5,55.9C5.4,55.9,-13.5,-55.9,13.5,-55.9" stroke-linejoin="round" id="133" ed:parentid="130" stroke="#696969" ed:tosuperid="132"/><path transform="matrix(1,0,0,1,397,511)" stroke-linecap="round" fill="none" d="M-13.5,40.4C4.8,40.4,-12,-40.4,13.5,-40.4" stroke-linejoin="round" id="135" ed:parentid="130" stroke="#696969" ed:tosuperid="134"/><path transform="matrix(1,0,0,1,397,526)" stroke-linecap="round" fill="none" d="M-13.5,24.9C2.7,24.9,-7.1,-24.9,13.5,-24.9" stroke-linejoin="round" id="137" ed:parentid="130" stroke="#696969" ed:tosuperid="136"/><path transform="matrix(1,0,0,1,397,542)" stroke-linecap="round" fill="none" d="M-13.5,9.4C-0.5,9.4,0.3,-9.4,13.5,-9.4" stroke-linejoin="round" id="139" ed:parentid="130" stroke="#696969" ed:tosuperid="138"/><path transform="matrix(1,0,0,1,397,557)" stroke-linecap="round" fill="none" d="M-13.5,-6.1C-1.3,-6.1,2.1,6.1,13.5,6.1" stroke-linejoin="round" id="141" ed:parentid="130" stroke="#696969" ed:tosuperid="140"/><path transform="matrix(1,0,0,1,397,573)" stroke-linecap="round" fill="none" d="M-13.5,-21.6C2.1,-21.6,-5.7,21.6,13.5,21.6" stroke-linejoin="round" id="143" ed:parentid="130" stroke="#696969" ed:tosuperid="142"/><path transform="matrix(1,0,0,1,397,588)" stroke-linecap="round" fill="none" d="M-13.5,-37.1C4.4,-37.1,-11.3,37.1,13.5,37.1" stroke-linejoin="round" id="145" ed:parentid="130" stroke="#696969" ed:tosuperid="144"/><path transform="matrix(1,0,0,1,397,604)" stroke-linecap="round" fill="none" d="M-13.5,-52.6C5.4,-52.6,-13.5,52.6,13.5,52.6" stroke-linejoin="round" id="147" ed:parentid="130" stroke="#696969" ed:tosuperid="146"/><path transform="matrix(1,0,0,1,397,619)" stroke-linecap="round" fill="none" d="M-13.5,-68.1C5.4,-68.1,-13.5,68.1,13.5,68.1" stroke-linejoin="round" id="149" ed:parentid="130" stroke="#696969" ed:tosuperid="148"/><path transform="matrix(1,0,0,1,176,856)" stroke-linecap="round" fill="none" d="M-22,32.4C5.2,-3.6,19.8,-60.9,72,-60.9" stroke-linejoin="round" id="153" ed:parentid="101" stroke="#696969" ed:tosuperid="152"/><path transform="matrix(1,0,0,1,445,770)" stroke-linecap="round" fill="none" d="M-13.5,24.9C2.7,24.9,-7.1,-24.9,13.5,-24.9" stroke-linejoin="round" id="155" ed:parentid="152" stroke="#696969" ed:tosuperid="154"/><path transform="matrix(1,0,0,1,445,785)" stroke-linecap="round" fill="none" d="M-13.5,9.4C-0.5,9.4,0.3,-9.4,13.5,-9.4" stroke-linejoin="round" id="157" ed:parentid="152" stroke="#696969" ed:tosuperid="156"/><path transform="matrix(1,0,0,1,445,801)" stroke-linecap="round" fill="none" d="M-13.5,-6.1C-1.3,-6.1,2.1,6.1,13.5,6.1" stroke-linejoin="round" id="159" ed:parentid="152" stroke="#696969" ed:tosuperid="158"/><path transform="matrix(1,0,0,1,445,816)" stroke-linecap="round" fill="none" d="M-13.5,-21.6C2.1,-21.6,-5.7,21.6,13.5,21.6" stroke-linejoin="round" id="161" ed:parentid="152" stroke="#696969" ed:tosuperid="160"/><path transform="matrix(1,0,0,1,445,832)" stroke-linecap="round" fill="none" d="M-13.5,-37.1C4.4,-37.1,-11.3,37.1,13.5,37.1" stroke-linejoin="round" id="163" ed:parentid="152" stroke="#696969" ed:tosuperid="162"/><path transform="matrix(1,0,0,1,176,946)" stroke-linecap="round" fill="none" d="M0,-1.4C21.2,14,41.3,29.9,72,29.9" stroke-linejoin="round" id="167" ed:parentid="101" stroke="#696969" ed:tosuperid="166"/><path transform="matrix(1,0,0,1,413,951)" stroke-linecap="round" fill="none" d="M-13.5,24.9C2.7,24.9,-7.1,-24.9,13.5,-24.9" stroke-linejoin="round" id="169" ed:parentid="166" stroke="#696969" ed:tosuperid="168"/><path transform="matrix(1,0,0,1,413,967)" stroke-linecap="round" fill="none" d="M-13.5,9.4C-0.5,9.4,0.3,-9.4,13.5,-9.4" stroke-linejoin="round" id="171" ed:parentid="166" stroke="#696969" ed:tosuperid="170"/><path transform="matrix(1,0,0,1,413,982)" stroke-linecap="round" fill="none" d="M-13.5,-6.1C-1.3,-6.1,2.1,6.1,13.5,6.1" stroke-linejoin="round" id="173" ed:parentid="166" stroke="#696969" ed:tosuperid="172"/><path transform="matrix(1,0,0,1,413,998)" stroke-linecap="round" fill="none" d="M-13.5,-21.6C2.1,-21.6,-5.7,21.6,13.5,21.6" stroke-linejoin="round" id="175" ed:parentid="166" stroke="#696969" ed:tosuperid="174"/><path transform="matrix(1,0,0,1,413,1013)" stroke-linecap="round" fill="none" d="M-13.5,-37.1C4.4,-37.1,-11.3,37.1,13.5,37.1" stroke-linejoin="round" id="177" ed:parentid="166" stroke="#696969" ed:tosuperid="176"/><path transform="matrix(1,0,0,1,176,1037)" stroke-linecap="round" fill="none" d="M-33,-92.1C-0.3,-28.3,-10.4,120.6,72,120.6" stroke-linejoin="round" id="179" ed:parentid="101" stroke="#696969" ed:tosuperid="178"/><path transform="matrix(1,0,0,1,397,1133)" stroke-linecap="round" fill="none" d="M-13.5,24.9C2.7,24.9,-7.1,-24.9,13.5,-24.9" stroke-linejoin="round" id="181" ed:parentid="178" stroke="#696969" ed:tosuperid="180"/><path transform="matrix(1,0,0,1,397,1148)" stroke-linecap="round" fill="none" d="M-13.5,9.4C-0.5,9.4,0.3,-9.4,13.5,-9.4" stroke-linejoin="round" id="183" ed:parentid="178" stroke="#696969" ed:tosuperid="182"/><path transform="matrix(1,0,0,1,397,1164)" stroke-linecap="round" fill="none" d="M-13.5,-6.1C-1.3,-6.1,2.1,6.1,13.5,6.1" stroke-linejoin="round" id="185" ed:parentid="178" stroke="#696969" ed:tosuperid="184"/><path transform="matrix(1,0,0,1,397,1179)" stroke-linecap="round" fill="none" d="M-13.5,-21.6C2.1,-21.6,-5.7,21.6,13.5,21.6" stroke-linejoin="round" id="187" ed:parentid="178" stroke="#696969" ed:tosuperid="186"/><path transform="matrix(1,0,0,1,397,1195)" stroke-linecap="round" fill="none" d="M-13.5,-37.1C4.4,-37.1,-11.3,37.1,13.5,37.1" stroke-linejoin="round" id="189" ed:parentid="178" stroke="#696969" ed:tosuperid="188"/><path transform="matrix(1,0,0,1,176,1167)" stroke-linecap="round" fill="none" d="M-39.7,-221.6C4.6,-115.6,-49.3,250.1,72,250.1" stroke-linejoin="round" id="193" ed:parentid="101" stroke="#696969" ed:tosuperid="192"/><path transform="matrix(1,0,0,1,445,1353)" stroke-linecap="round" fill="none" d="M-13.5,63.6C5.4,63.6,-13.5,-63.6,13.5,-63.6" stroke-linejoin="round" id="195" ed:parentid="192" stroke="#696969" ed:tosuperid="194"/><path transform="matrix(1,0,0,1,445,1369)" stroke-linecap="round" fill="none" d="M-13.5,48.1C5.3,48.1,-13.2,-48.1,13.5,-48.1" stroke-linejoin="round" id="197" ed:parentid="192" stroke="#696969" ed:tosuperid="196"/><path transform="matrix(1,0,0,1,445,1384)" stroke-linecap="round" fill="none" d="M-13.5,32.6C3.9,32.6,-10,-32.6,13.5,-32.6" stroke-linejoin="round" id="199" ed:parentid="192" stroke="#696969" ed:tosuperid="198"/><path transform="matrix(1,0,0,1,445,1400)" stroke-linecap="round" fill="none" d="M-13.5,17.1C1.2,17.1,-3.6,-17.1,13.5,-17.1" stroke-linejoin="round" id="201" ed:parentid="192" stroke="#696969" ed:tosuperid="200"/><path transform="matrix(1,0,0,1,445,1415)" stroke-linecap="round" fill="none" d="M-13.5,1.6C-2.3,1.6,4.5,-1.6,13.5,-1.6" stroke-linejoin="round" id="203" ed:parentid="192" stroke="#696969" ed:tosuperid="202"/><path transform="matrix(1,0,0,1,445,1431)" stroke-linecap="round" fill="none" d="M-13.5,-13.9C0.5,-13.9,-2,13.9,13.5,13.9" stroke-linejoin="round" id="205" ed:parentid="192" stroke="#696969" ed:tosuperid="204"/><path transform="matrix(1,0,0,1,445,1446)" stroke-linecap="round" fill="none" d="M-13.5,-29.4C3.4,-29.4,-8.9,29.4,13.5,29.4" stroke-linejoin="round" id="207" ed:parentid="192" stroke="#696969" ed:tosuperid="206"/><path transform="matrix(1,0,0,1,445,1462)" stroke-linecap="round" fill="none" d="M-13.5,-44.9C5.1,-44.9,-12.8,44.9,13.5,44.9" stroke-linejoin="round" id="209" ed:parentid="192" stroke="#696969" ed:tosuperid="208"/><path transform="matrix(1,0,0,1,445,1477)" stroke-linecap="round" fill="none" d="M-13.5,-60.4C5.4,-60.4,-13.5,60.4,13.5,60.4" stroke-linejoin="round" id="211" ed:parentid="192" stroke="#696969" ed:tosuperid="210"/><path transform="matrix(1,0,0,1,445,1493)" stroke-linecap="round" fill="none" d="M-13.5,-75.9C5.4,-75.9,-13.5,75.9,13.5,75.9" stroke-linejoin="round" id="213" ed:parentid="192" stroke="#696969" ed:tosuperid="212"/><path transform="matrix(1,0,0,1,176,1312)" stroke-linecap="round" fill="none" d="M-44.7,-366.6C9,-225.1,-55.6,395.1,72,395.1" stroke-linejoin="round" id="215" ed:parentid="101" stroke="#696969" ed:tosuperid="214"/><path transform="matrix(1,0,0,1,429,1666)" stroke-linecap="round" fill="none" d="M-13.5,40.4C4.8,40.4,-12,-40.4,13.5,-40.4" stroke-linejoin="round" id="217" ed:parentid="214" stroke="#696969" ed:tosuperid="216"/><path transform="matrix(1,0,0,1,429,1682)" stroke-linecap="round" fill="none" d="M-13.5,24.9C2.7,24.9,-7.1,-24.9,13.5,-24.9" stroke-linejoin="round" id="219" ed:parentid="214" stroke="#696969" ed:tosuperid="218"/><path transform="matrix(1,0,0,1,429,1697)" stroke-linecap="round" fill="none" d="M-13.5,9.4C-0.5,9.4,0.3,-9.4,13.5,-9.4" stroke-linejoin="round" id="221" ed:parentid="214" stroke="#696969" ed:tosuperid="220"/><path transform="matrix(1,0,0,1,429,1713)" stroke-linecap="round" fill="none" d="M-13.5,-6.1C-1.3,-6.1,2.1,6.1,13.5,6.1" stroke-linejoin="round" id="223" ed:parentid="214" stroke="#696969" ed:tosuperid="222"/><path transform="matrix(1,0,0,1,429,1728)" stroke-linecap="round" fill="none" d="M-13.5,-21.6C2.1,-21.6,-5.7,21.6,13.5,21.6" stroke-linejoin="round" id="225" ed:parentid="214" stroke="#696969" ed:tosuperid="224"/><path transform="matrix(1,0,0,1,429,1744)" stroke-linecap="round" fill="none" d="M-13.5,-37.1C4.4,-37.1,-11.3,37.1,13.5,37.1" stroke-linejoin="round" id="227" ed:parentid="214" stroke="#696969" ed:tosuperid="226"/><path transform="matrix(1,0,0,1,429,1759)" stroke-linecap="round" fill="none" d="M-13.5,-52.6C5.4,-52.6,-13.5,52.6,13.5,52.6" stroke-linejoin="round" id="229" ed:parentid="214" stroke="#696969" ed:tosuperid="228"/><g ed:topictype="mainidea" transform="matrix(1,0,0,1,23,888)" ed:width="162" ed:height="57" id="101" ed:layout="map"><path fill="#435fbc" d="M4,0L158,0C160.7,0,162,1.3,162,4L162,53C162,55.7,160.7,57,158,57L4,57C1.3,57,0,55.7,0,53L0,4C0,1.3,1.3,0,4,0z" stroke-width="3" stroke-linejoin="round" stroke="#435fbc"/><text class="st1"><tspan x="21" style="white-space:pre" y="34.5">数学通识50讲</tspan></text></g><g transform="matrix(1,0,0,1,248,30)" ed:width="71" ed:height="37" id="102" ed:parentid="101" ed:layout="rightmap"><path fill="#ebecf3" d="M4,0L67,0C69.7,0,71,1.3,71,4L71,33C71,35.7,69.7,37,67,37L4,37C1.3,37,0,35.7,0,33L0,4C0,1.3,1.3,0,4,0z" stroke-linejoin="round" stroke="#ebecf3"/><text class="st2"><tspan x="18" style="white-space:pre" y="23.4">导论</tspan></text></g><g transform="matrix(1,0,0,1,248,206)" ed:width="183" ed:height="79" id="104" ed:parentid="101" ed:layout="rightmap"><path fill="#ebecf3" d="M4,0L179,0C181.7,0,183,1.3,183,4L183,75C183,77.7,181.7,79,179,79L4,79C1.3,79,0,77.7,0,75L0,4C0,1.3,1.3,0,4,0z" stroke-linejoin="round" stroke="#ebecf3"/><text class="st2"><tspan x="18" style="white-space:pre" y="23.5">模块一：</tspan><tspan x="18" style="white-space:pre" y="44.5">数学的线索</tspan><tspan x="18" style="white-space:pre" y="65.5">从猜想到定理到应用</tspan></text></g><g transform="matrix(1,0,0,1,346,21)" ed:width="219" ed:height="24.5" id="106" ed:parentid="102" ed:layout="rightmap"><path fill="none" d="M0,24.5L219,24.5" stroke-linejoin="round" stroke="#696969"/><text class="st3"><tspan x="8" style="white-space:pre" y="16.1">00.发刊词：数学到底应该怎么学？</tspan></text></g><g transform="matrix(1,0,0,1,346,52)" ed:width="245" ed:height="24.5" id="108" ed:parentid="102" ed:layout="rightmap"><path fill="none" d="M0,24.5L245,24.5" stroke-linejoin="round" stroke="#696969"/><text class="st3"><tspan x="8" style="white-space:pre" y="16.1">01.导论：数学通识课的体系和学习攻略</tspan></text></g><g transform="matrix(1,0,0,1,458,110)" ed:width="297" ed:height="24.5" id="110" ed:parentid="104" ed:layout="rightmap"><path fill="none" d="M0,24.5L297,24.5" stroke-linejoin="round" stroke="#696969"/><text class="st3"><tspan x="8" style="white-space:pre" y="16.1">02.勾股定理：为什么在西方叫毕达哥拉斯定理？</tspan></text></g><g transform="matrix(1,0,0,1,458,141)" ed:width="284" ed:height="24.5" id="112" ed:parentid="104" ed:layout="rightmap"><path fill="none" d="M0,24.5L284,24.5" stroke-linejoin="round" stroke="#696969"/><text class="st3"><tspan x="8" style="white-space:pre" y="16.1">03.数学的预见性：如何用推理走出认知盲区？</tspan></text></g><g transform="matrix(1,0,0,1,458,172)" ed:width="284" ed:height="24.5" id="114" ed:parentid="104" ed:layout="rightmap"><path fill="none" d="M0,24.5L284,24.5" stroke-linejoin="round" stroke="#696969"/><text class="st3"><tspan x="8" style="white-space:pre" y="16.1">04.数学思维：数学家如何从逻辑出发想问题？</tspan></text></g><g transform="matrix(1,0,0,1,458,203)" ed:width="284" ed:height="24.5" id="116" ed:parentid="104" ed:layout="rightmap"><path fill="none" d="M0,24.5L284,24.5" stroke-linejoin="round" stroke="#696969"/><text class="st3"><tspan x="8" style="white-space:pre" y="16.1">05.数学边界：从毕达哥拉斯定理到费马大定理</tspan></text></g><g transform="matrix(1,0,0,1,458,234)" ed:width="297" ed:height="24.5" id="118" ed:parentid="104" ed:layout="rightmap"><path fill="none" d="M0,24.5L297,24.5" stroke-linejoin="round" stroke="#696969"/><text class="st3"><tspan x="8" style="white-space:pre" y="16.1">06.黄金分割：毕达哥拉斯如何连接数学和美学？</tspan></text></g><g transform="matrix(1,0,0,1,458,265)" ed:width="258" ed:height="24.5" id="120" ed:parentid="104" ed:layout="rightmap"><path fill="none" d="M0,24.5L258,24.5" stroke-linejoin="round" stroke="#696969"/><text class="st3"><tspan x="8" style="white-space:pre" y="16.1">07.数学应用：华罗庚化繁为简的神来之笔</tspan></text></g><g transform="matrix(1,0,0,1,458,296)" ed:width="310" ed:height="24.5" id="122" ed:parentid="104" ed:layout="rightmap"><path fill="none" d="M0,24.5L310,24.5" stroke-linejoin="round" stroke="#696969"/><text class="st3"><tspan x="8" style="white-space:pre" y="16.1">08.数列和级数（一）：当下很重要，但趋势更重要</tspan></text></g><g transform="matrix(1,0,0,1,458,327)" ed:width="271" ed:height="24.5" id="124" ed:parentid="104" ed:layout="rightmap"><path fill="none" d="M0,24.5L271,24.5" stroke-linejoin="round" stroke="#696969"/><text class="st3"><tspan x="8" style="white-space:pre" y="16.1">09.数列和级数（二）：传销骗局的数学原理</tspan></text></g><g transform="matrix(1,0,0,1,458,358)" ed:width="297" ed:height="24.5" id="128" ed:parentid="104" ed:layout="rightmap"><path fill="none" d="M0,24.5L297,24.5" stroke-linejoin="round" stroke="#696969"/><text class="st3"><tspan x="8" style="white-space:pre" y="16.1">10.数列和级数（三）：藏在利息和月供里的秘密</tspan></text></g><g transform="matrix(1,0,0,1,248,512)" ed:width="135" ed:height="79" id="130" ed:parentid="101" ed:layout="rightmap"><path fill="#ebecf3" d="M4,0L131,0C133.7,0,135,1.3,135,4L135,75C135,77.7,133.7,79,131,79L4,79C1.3,79,0,77.7,0,75L0,4C0,1.3,1.3,0,4,0z" stroke-linejoin="round" stroke="#ebecf3"/><text class="st2"><tspan x="18" style="white-space:pre" y="23.5">模块二</tspan><tspan x="18" style="white-space:pre" y="44.5">数的概念</tspan><tspan x="18" style="white-space:pre" y="65.5">从具体到抽象</tspan></text></g><g transform="matrix(1,0,0,1,410,415)" ed:width="271" ed:height="24.5" id="132" ed:parentid="130" ed:layout="rightmap"><path fill="none" d="M0,24.5L271,24.5" stroke-linejoin="round" stroke="#696969"/><text class="st3"><tspan x="8" style="white-space:pre" y="16.1">11.鸡兔同笼：方程这个工具为什么很强大？</tspan></text></g><g transform="matrix(1,0,0,1,410,446)" ed:width="258" ed:height="24.5" id="134" ed:parentid="130" ed:layout="rightmap"><path fill="none" d="M0,24.5L258,24.5" stroke-linejoin="round" stroke="#696969"/><text class="st3"><tspan x="8" style="white-space:pre" y="16.1">12.三次方程：数学史上著名的发明权之争</tspan></text></g><g transform="matrix(1,0,0,1,410,477)" ed:width="219" ed:height="24.5" id="136" ed:parentid="130" ed:layout="rightmap"><path fill="none" d="M0,24.5L219,24.5" stroke-linejoin="round" stroke="#696969"/><text class="st3"><tspan x="8" style="white-space:pre" y="16.1">13.虚数：虚构这个工具有什么用？</tspan></text></g><g transform="matrix(1,0,0,1,410,508)" ed:width="219" ed:height="24.5" id="138" ed:parentid="130" ed:layout="rightmap"><path fill="none" d="M0,24.5L219,24.5" stroke-linejoin="round" stroke="#696969"/><text class="st3"><tspan x="8" style="white-space:pre" y="16.1">14.无穷：如何理解无限大的世界？</tspan></text></g><g transform="matrix(1,0,0,1,410,539)" ed:width="271" ed:height="24.5" id="140" ed:parentid="130" ed:layout="rightmap"><path fill="none" d="M0,24.5L271,24.5" stroke-linejoin="round" stroke="#696969"/><text class="st3"><tspan x="8" style="white-space:pre" y="16.1">15.无穷小（一）：如何说服“杠精”芝诺？</tspan></text></g><g transform="matrix(1,0,0,1,410,570)" ed:width="271" ed:height="24.5" id="142" ed:parentid="130" ed:layout="rightmap"><path fill="none" d="M0,24.5L271,24.5" stroke-linejoin="round" stroke="#696969"/><text class="st3"><tspan x="8" style="white-space:pre" y="16.1">16.无穷小（二）：牛顿和贝克莱在争什么？</tspan></text></g><g transform="matrix(1,0,0,1,410,601)" ed:width="284" ed:height="24.5" id="144" ed:parentid="130" ed:layout="rightmap"><path fill="none" d="M0,24.5L284,24.5" stroke-linejoin="round" stroke="#696969"/><text class="st3"><tspan x="8" style="white-space:pre" y="16.1">17.无穷小（三）：如何用动态的眼光看世界？</tspan></text></g><g transform="matrix(1,0,0,1,410,632)" ed:width="310" ed:height="24.5" id="146" ed:parentid="130" ed:layout="rightmap"><path fill="none" d="M0,24.5L310,24.5" stroke-linejoin="round" stroke="#696969"/><text class="st3"><tspan x="8" style="white-space:pre" y="16.1">18.“无穷大”和“无穷小”比大小，能得出什么？</tspan></text></g><g transform="matrix(1,0,0,1,410,663)" ed:width="180" ed:height="24.5" id="148" ed:parentid="130" ed:layout="rightmap"><path fill="none" d="M0,24.5L180,24.5" stroke-linejoin="round" stroke="#696969"/><text class="st3"><tspan x="8" style="white-space:pre" y="16.1">19.复盘：数学给了我什么？</tspan></text></g><g transform="matrix(1,0,0,1,248,755)" ed:width="183" ed:height="79" id="152" ed:parentid="101" ed:layout="rightmap"><path fill="#ebecf3" d="M4,0L179,0C181.7,0,183,1.3,183,4L183,75C183,77.7,181.7,79,179,79L4,79C1.3,79,0,77.7,0,75L0,4C0,1.3,1.3,0,4,0z" stroke-linejoin="round" stroke="#ebecf3"/><text class="st2"><tspan x="18" style="white-space:pre" y="23.5">模块三</tspan><tspan x="18" style="white-space:pre" y="44.5">几何学</tspan><tspan x="18" style="white-space:pre" y="65.5">一切源自公理和逻辑</tspan></text></g><g transform="matrix(1,0,0,1,458,721)" ed:width="271" ed:height="24.5" id="154" ed:parentid="152" ed:layout="rightmap"><path fill="none" d="M0,24.5L271,24.5" stroke-linejoin="round" stroke="#696969"/><text class="st3"><tspan x="8" style="white-space:pre" y="16.1">20.几何学：为什么是数学中最古老的分支？</tspan></text></g><g transform="matrix(1,0,0,1,458,752)" ed:width="219" ed:height="24.5" id="156" ed:parentid="152" ed:layout="rightmap"><path fill="none" d="M0,24.5L219,24.5" stroke-linejoin="round" stroke="#696969"/><text class="st3"><tspan x="8" style="white-space:pre" y="16.1">21.公理体系：系统理论从何而来？</tspan></text></g><g transform="matrix(1,0,0,1,458,783)" ed:width="258" ed:height="24.5" id="158" ed:parentid="152" ed:layout="rightmap"><path fill="none" d="M0,24.5L258,24.5" stroke-linejoin="round" stroke="#696969"/><text class="st3"><tspan x="8" style="white-space:pre" y="16.1">22.非欧几何：相对论的数学基础是什么？</tspan></text></g><g transform="matrix(1,0,0,1,458,814)" ed:width="271" ed:height="24.5" id="160" ed:parentid="152" ed:layout="rightmap"><path fill="none" d="M0,24.5L271,24.5" stroke-linejoin="round" stroke="#696969"/><text class="st3"><tspan x="8" style="white-space:pre" y="16.1">23.解析几何：用代数方法解决最难的几何题</tspan></text></g><g transform="matrix(1,0,0,1,458,845)" ed:width="245" ed:height="24.5" id="162" ed:parentid="152" ed:layout="rightmap"><path fill="none" d="M0,24.5L245,24.5" stroke-linejoin="round" stroke="#696969"/><text class="st3"><tspan x="8" style="white-space:pre" y="16.1">24.为什么几何能为法律提供理论基础？</tspan></text></g><g transform="matrix(1,0,0,1,248,937)" ed:width="151" ed:height="79" id="166" ed:parentid="101" ed:layout="rightmap"><path fill="#ebecf3" d="M4,0L147,0C149.7,0,151,1.3,151,4L151,75C151,77.7,149.7,79,147,79L4,79C1.3,79,0,77.7,0,75L0,4C0,1.3,1.3,0,4,0z" stroke-linejoin="round" stroke="#ebecf3"/><text class="st2"><tspan x="18" style="white-space:pre" y="23.5">模块四</tspan><tspan x="18" style="white-space:pre" y="44.5">代数学</tspan><tspan x="18" style="white-space:pre" y="65.5">用数量描绘世界</tspan></text></g><g transform="matrix(1,0,0,1,426,902)" ed:width="284" ed:height="24.5" id="168" ed:parentid="166" ed:layout="rightmap"><path fill="none" d="M0,24.5L284,24.5" stroke-linejoin="round" stroke="#696969"/><text class="st3"><tspan x="8" style="white-space:pre" y="16.1">25.函数（一）：从静态到动态，从个体到趋势</tspan></text></g><g transform="matrix(1,0,0,1,426,933)" ed:width="284" ed:height="24.5" id="170" ed:parentid="166" ed:layout="rightmap"><path fill="none" d="M0,24.5L284,24.5" stroke-linejoin="round" stroke="#696969"/><text class="st3"><tspan x="8" style="white-space:pre" y="16.1">26.函数（二）：如何通过公式理解因果关系？</tspan></text></g><g transform="matrix(1,0,0,1,426,964)" ed:width="336" ed:height="24.5" id="172" ed:parentid="166" ed:layout="rightmap"><path fill="none" d="M0,24.5L336,24.5" stroke-linejoin="round" stroke="#696969"/><text class="st3"><tspan x="8" style="white-space:pre" y="16.1">27.向量代数（一）：“方向比努力更重要”是鸡汤吗？</tspan></text></g><g transform="matrix(1,0,0,1,426,995)" ed:width="322" ed:height="24.5" id="174" ed:parentid="166" ed:layout="rightmap"><path fill="none" d="M0,24.5L322,24.5" stroke-linejoin="round" stroke="#696969"/><text class="st3"><tspan x="8" style="white-space:pre" y="16.1">28.向量代数（二）：如何通过向量夹角理解"维度"？</tspan></text></g><g transform="matrix(1,0,0,1,426,1026)" ed:width="232" ed:height="24.5" id="176" ed:parentid="166" ed:layout="rightmap"><path fill="none" d="M0,24.5L232,24.5" stroke-linejoin="round" stroke="#696969"/><text class="st3"><tspan x="8" style="white-space:pre" y="16.1">29.线性代数：”矩阵“到底怎么用？</tspan></text></g><g transform="matrix(1,0,0,1,248,1118)" ed:width="135" ed:height="79" id="178" ed:parentid="101" ed:layout="rightmap"><path fill="#ebecf3" d="M4,0L131,0C133.7,0,135,1.3,135,4L135,75C135,77.7,133.7,79,131,79L4,79C1.3,79,0,77.7,0,75L0,4C0,1.3,1.3,0,4,0z" stroke-linejoin="round" stroke="#ebecf3"/><text class="st2"><tspan x="18" style="white-space:pre" y="23.5">模块五</tspan><tspan x="18" style="white-space:pre" y="44.5">微积分</tspan><tspan x="18" style="white-space:pre" y="65.5">动态的世界观</tspan></text></g><g transform="matrix(1,0,0,1,410,1084)" ed:width="297" ed:height="24.5" id="180" ed:parentid="178" ed:layout="rightmap"><path fill="none" d="M0,24.5L297,24.5" stroke-linejoin="round" stroke="#696969"/><text class="st3"><tspan x="8" style="white-space:pre" y="16.1">30.微分（一）：如何从宏观变化了解微观趋势？</tspan></text></g><g transform="matrix(1,0,0,1,410,1115)" ed:width="297" ed:height="24.5" id="182" ed:parentid="178" ed:layout="rightmap"><path fill="none" d="M0,24.5L297,24.5" stroke-linejoin="round" stroke="#696969"/><text class="st3"><tspan x="8" style="white-space:pre" y="16.1">31.微分（二）：搞懂”奇点“，理解”连续性“</tspan></text></g><g transform="matrix(1,0,0,1,410,1146)" ed:width="258" ed:height="24.5" id="184" ed:parentid="178" ed:layout="rightmap"><path fill="none" d="M0,24.5L258,24.5" stroke-linejoin="round" stroke="#696969"/><text class="st3"><tspan x="8" style="white-space:pre" y="16.1">32.积分：如何从微观趋势了解宏观变化？</tspan></text></g><g transform="matrix(1,0,0,1,410,1177)" ed:width="219" ed:height="24.5" id="186" ed:parentid="178" ed:layout="rightmap"><path fill="none" d="M0,24.5L219,24.5" stroke-linejoin="round" stroke="#696969"/><text class="st3"><tspan x="8" style="white-space:pre" y="16.1">33.用变化趋势考察最大值和最小值</tspan></text></g><g transform="matrix(1,0,0,1,410,1208)" ed:width="180" ed:height="24.5" id="188" ed:parentid="178" ed:layout="rightmap"><path fill="none" d="M0,24.5L180,24.5" stroke-linejoin="round" stroke="#696969"/><text class="st3"><tspan x="8" style="white-space:pre" y="16.1">34.微积分到底是谁发明的？</tspan></text></g><g transform="matrix(1,0,0,1,248,1377)" ed:width="183" ed:height="79" id="192" ed:parentid="101" ed:layout="rightmap"><path fill="#ebecf3" d="M4,0L179,0C181.7,0,183,1.3,183,4L183,75C183,77.7,181.7,79,179,79L4,79C1.3,79,0,77.7,0,75L0,4C0,1.3,1.3,0,4,0z" stroke-linejoin="round" stroke="#ebecf3"/><text class="st2"><tspan x="18" style="white-space:pre" y="23.5">模块六</tspan><tspan x="18" style="white-space:pre" y="44.5">概率、统计、博弈论</tspan><tspan x="18" style="white-space:pre" y="65.5">从确定到不确定</tspan></text></g><g transform="matrix(1,0,0,1,458,1265)" ed:width="219" ed:height="24.5" id="194" ed:parentid="192" ed:layout="rightmap"><path fill="none" d="M0,24.5L219,24.5" stroke-linejoin="round" stroke="#696969"/><text class="st3"><tspan x="8" style="white-space:pre" y="16.1">35.概率简史：一门来自赌徒的学问</tspan></text></g><g transform="matrix(1,0,0,1,458,1296)" ed:width="245" ed:height="24.5" id="196" ed:parentid="192" ed:layout="rightmap"><path fill="none" d="M0,24.5L245,24.5" stroke-linejoin="round" stroke="#696969"/><text class="st3"><tspan x="8" style="white-space:pre" y="16.1">36.伯努利实验：到底如何理解随机性？</tspan></text></g><g transform="matrix(1,0,0,1,458,1327)" ed:width="297" ed:height="24.5" id="198" ed:parentid="192" ed:layout="rightmap"><path fill="none" d="M0,24.5L297,24.5" stroke-linejoin="round" stroke="#696969"/><text class="st3"><tspan x="8" style="white-space:pre" y="16.1">37.泊松分布：为什么保险公司的客户群都很大？</tspan></text></g><g transform="matrix(1,0,0,1,458,1358)" ed:width="245" ed:height="24.5" id="200" ed:parentid="192" ed:layout="rightmap"><path fill="none" d="M0,24.5L245,24.5" stroke-linejoin="round" stroke="#696969"/><text class="st3"><tspan x="8" style="white-space:pre" y="16.1">38.高斯分布：大概率事件意味着什么？</tspan></text></g><g transform="matrix(1,0,0,1,458,1389)" ed:width="323" ed:height="24.5" id="202" ed:parentid="192" ed:layout="rightmap"><path fill="none" d="M0,24.5L323,24.5" stroke-linejoin="round" stroke="#696969"/><text class="st3"><tspan x="8" style="white-space:pre" y="16.1">39.条件概率和贝叶斯公式：机器翻译是怎么工作的？</tspan></text></g><g transform="matrix(1,0,0,1,458,1420)" ed:width="258" ed:height="24.5" id="204" ed:parentid="192" ed:layout="rightmap"><path fill="none" d="M0,24.5L258,24.5" stroke-linejoin="round" stroke="#696969"/><text class="st3"><tspan x="8" style="white-space:pre" y="16.1">40.概率公理化：一个必须补上的理论漏洞</tspan></text></g><g transform="matrix(1,0,0,1,458,1451)" ed:width="323" ed:height="24.5" id="206" ed:parentid="192" ed:layout="rightmap"><path fill="none" d="M0,24.5L323,24.5" stroke-linejoin="round" stroke="#696969"/><text class="st3"><tspan x="8" style="white-space:pre" y="16.1">41.统计学和大数据：为什么大多数企业用不好数据？</tspan></text></g><g transform="matrix(1,0,0,1,458,1482)" ed:width="264" ed:height="24.5" id="208" ed:parentid="192" ed:layout="rightmap"><path fill="none" d="M0,24.5L264,24.5" stroke-linejoin="round" stroke="#696969"/><text class="st3"><tspan x="8" style="white-space:pre" y="16.1">42.古德-图灵估计：黑天鹅事件能防范吗？</tspan></text></g><g transform="matrix(1,0,0,1,458,1513)" ed:width="310" ed:height="24.5" id="210" ed:parentid="192" ed:layout="rightmap"><path fill="none" d="M0,24.5L310,24.5" stroke-linejoin="round" stroke="#696969"/><text class="st3"><tspan x="8" style="white-space:pre" y="16.1">43.博弈论（鞍点理论）：如何找到双方的平衡点？</tspan></text></g><g transform="matrix(1,0,0,1,458,1544)" ed:width="271" ed:height="24.5" id="212" ed:parentid="192" ed:layout="rightmap"><path fill="none" d="M0,24.5L271,24.5" stroke-linejoin="round" stroke="#696969"/><text class="st3"><tspan x="8" style="white-space:pre" y="16.1">44.博弈论（纳什均衡）：真的存在共赢吗？</tspan></text></g><g transform="matrix(1,0,0,1,248,1667)" ed:width="167" ed:height="79" id="214" ed:parentid="101" ed:layout="rightmap"><path fill="#ebecf3" d="M4,0L163,0C165.7,0,167,1.3,167,4L167,75C167,77.7,165.7,79,163,79L4,79C1.3,79,0,77.7,0,75L0,4C0,1.3,1.3,0,4,0z" stroke-linejoin="round" stroke="#ebecf3"/><text class="st2"><tspan x="18" style="white-space:pre" y="23.5">模块七</tspan><tspan x="18" style="white-space:pre" y="44.5">数学的基础作用</tspan><tspan x="18" style="white-space:pre" y="65.5">与其他学科的关系</tspan></text></g><g transform="matrix(1,0,0,1,442,1602)" ed:width="271" ed:height="24.5" id="216" ed:parentid="214" ed:layout="rightmap"><path fill="none" d="M0,24.5L271,24.5" stroke-linejoin="round" stroke="#696969"/><text class="st3"><tspan x="8" style="white-space:pre" y="16.1">45.数学和哲学：主观和客观的依据是什么？</tspan></text></g><g transform="matrix(1,0,0,1,442,1633)" ed:width="258" ed:height="24.5" id="218" ed:parentid="214" ed:layout="rightmap"><path fill="none" d="M0,24.5L258,24.5" stroke-linejoin="round" stroke="#696969"/><text class="st3"><tspan x="8" style="white-space:pre" y="16.1">46.数学和自然科学：数学只是方法论吗？</tspan></text></g><g transform="matrix(1,0,0,1,442,1664)" ed:width="284" ed:height="24.5" id="220" ed:parentid="214" ed:layout="rightmap"><path fill="none" d="M0,24.5L284,24.5" stroke-linejoin="round" stroke="#696969"/><text class="st3"><tspan x="8" style="white-space:pre" y="16.1">47.数学和逻辑学：为什么逻辑是一切的基础？</tspan></text></g><g transform="matrix(1,0,0,1,442,1695)" ed:width="271" ed:height="24.5" id="222" ed:parentid="214" ed:layout="rightmap"><path fill="none" d="M0,24.5L271,24.5" stroke-linejoin="round" stroke="#696969"/><text class="st3"><tspan x="8" style="white-space:pre" y="16.1">48.数学和人文社会学科：文科需要数学吗？</tspan></text></g><g transform="matrix(1,0,0,1,442,1726)" ed:width="297" ed:height="24.5" id="224" ed:parentid="214" ed:layout="rightmap"><path fill="none" d="M0,24.5L297,24.5" stroke-linejoin="round" stroke="#696969"/><text class="st3"><tspan x="8" style="white-space:pre" y="16.1">49.课外题：世界著名数学难题：难题难在哪儿？</tspan></text></g><g transform="matrix(1,0,0,1,442,1757)" ed:width="310" ed:height="24.5" id="226" ed:parentid="214" ed:layout="rightmap"><path fill="none" d="M0,24.5L310,24.5" stroke-linejoin="round" stroke="#696969"/><text class="st3"><tspan x="8" style="white-space:pre" y="16.1">50.课外题：当今七大数学问题：核心问题是什么？</tspan></text></g><g transform="matrix(1,0,0,1,442,1788)" ed:width="102" ed:height="24.5" id="228" ed:parentid="214" ed:layout="rightmap"><path fill="none" d="M0,24.5L102,24.5" stroke-linejoin="round" stroke="#696969"/><text class="st3"><tspan x="8" style="white-space:pre" y="16.1">51.结课大复盘</tspan></text></g><symbol id="plus"><path fill="url(#lg1)" d="M11,6C11,8.8,8.8,11,6,11C3.2,11,1,8.8,1,6C1,3.2,3.2,1,6,1C8.8,1,11,3.2,11,6z"/><path fill="none" stroke-width="0.7" d="M11,6C11,8.8,8.8,11,6,11C3.2,11,1,8.8,1,6C1,3.2,3.2,1,6,1C8.8,1,11,3.2,11,6zM3,6L9,6M6,3L6,9" stroke="#46a000"/></symbol><symbol id="minus"><path fill="url(#lg1)" d="M11,6C11,8.8,8.8,11,6,11C3.2,11,1,8.8,1,6C1,3.2,3.2,1,6,1C8.8,1,11,3.2,11,6z"/><path fill="none" stroke-width="0.7" d="M11,6C11,8.8,8.8,11,6,11C3.2,11,1,8.8,1,6C1,3.2,3.2,1,6,1C8.8,1,11,3.2,11,6zM3,6L9,6" stroke="#46a000"/></symbol><g ed:togtopicid="101" transform="translate(186,911)"><use xlink:href="#minus"/></g><g ed:togtopicid="102" transform="translate(320,43)"><use xlink:href="#minus"/></g><g ed:togtopicid="104" transform="translate(432,240)"><use xlink:href="#minus"/></g><g ed:togtopicid="130" transform="translate(384,545)"><use xlink:href="#minus"/></g><g ed:togtopicid="152" transform="translate(432,789)"><use xlink:href="#minus"/></g><g ed:togtopicid="166" transform="translate(400,970)"><use xlink:href="#minus"/></g><g ed:togtopicid="178" transform="translate(384,1152)"><use xlink:href="#minus"/></g><g ed:togtopicid="192" transform="translate(432,1411)"><use xlink:href="#minus"/></g><g ed:togtopicid="214" transform="translate(416,1701)"><use xlink:href="#minus"/></g></svg>