<svg width="597" xmlns:xlink="http://www.w3.org/1999/xlink" xmlns:ev="http://www.w3.org/2001/xml-events" viewBox="0 0 597 2156" id="page100" ed:vSpacing="30" xmlns="http://www.w3.org/2000/svg" ed:hSpacing="30" ed:name="Page-1" height="2156" xmlns:ed="https://www.edrawsoft.cn/xml/2017/SVGExtensions/"><style type="text/css"><![CDATA[
g[ed\:togtopicid],g[ed\:hyperlink],g[ed\:comment],g[ed\:note] {cursor:pointer;}
g[id] {-moz-user-select: none;-ms-user-select: none;user-select: none;}
svg text::selection,svg tspan::selection{background-color: #4285f4;color: #ffffff;fill: #ffffff;}
.st3 {fill:#000000;font-family:Microsoft YaHei;font-size:10pt}
.st2 {fill:#17375e;font-family:Microsoft YaHei;font-size:13pt}
.st1 {fill:#376092;font-family:Microsoft YaHei;font-size:18pt;font-weight:bold}
]]></style><defs><linearGradient y2="100%" id="lg1" y1="0%" x1="0%" x2="0%"><stop stop-color="#ffffff" offset="0"/><stop stop-color="#f0f5f0" offset="0.25"/><stop stop-color="#e1ebe1" offset="0.75"/><stop stop-color="#c8d7c8" offset="1"/></linearGradient></defs><rect width="597" x="0" y="0" height="2156" fill="#ffffff"/><path stroke="#558ed5" stroke-linejoin="round" ed:parentid="101" id="103" ed:tosuperid="102" d="M-85.2,473.1C-82.8,-115.5,-15.2,-505.6,85.3,-505.6" transform="matrix(1,0,0,1,218,573)" stroke-linecap="round" fill="none"/><path stroke="#558ed5" stroke-linejoin="round" ed:parentid="102" id="105" ed:tosuperid="104" d="M-13.5,9.5C-13.5,-1.9,-2.7,-9.5,13.5,-9.5" transform="matrix(1,0,0,1,418,58)" stroke-linecap="round" fill="none"/><path stroke="#558ed5" stroke-linejoin="round" ed:parentid="102" id="107" ed:tosuperid="106" d="M-13.5,-6.3C-13.5,1.3,-2.7,6.3,13.5,6.3" transform="matrix(1,0,0,1,418,73)" stroke-linecap="round" fill="none"/><path stroke="#558ed5" stroke-linejoin="round" ed:parentid="102" id="109" ed:tosuperid="108" d="M-13.5,-22C-13.5,4.4,-2.7,22,13.5,22" transform="matrix(1,0,0,1,418,89)" stroke-linecap="round" fill="none"/><path stroke="#558ed5" stroke-linejoin="round" ed:parentid="101" id="111" ed:tosuperid="110" d="M-85.2,412.6C-82.5,-103.4,-15,-445.1,85.3,-445.1" transform="matrix(1,0,0,1,218,633)" stroke-linecap="round" fill="none"/><path stroke="#558ed5" stroke-linejoin="round" ed:parentid="110" id="113" ed:tosuperid="112" d="M-13.5,9.5C-13.5,-1.9,-2.7,-9.5,13.5,-9.5" transform="matrix(1,0,0,1,418,179)" stroke-linecap="round" fill="none"/><path stroke="#558ed5" stroke-linejoin="round" ed:parentid="110" id="115" ed:tosuperid="114" d="M-13.5,-6.3C-13.5,1.3,-2.7,6.3,13.5,6.3" transform="matrix(1,0,0,1,418,194)" stroke-linecap="round" fill="none"/><path stroke="#558ed5" stroke-linejoin="round" ed:parentid="110" id="117" ed:tosuperid="116" d="M-13.5,-22C-13.5,4.4,-2.7,22,13.5,22" transform="matrix(1,0,0,1,418,210)" stroke-linecap="round" fill="none"/><path stroke="#558ed5" stroke-linejoin="round" ed:parentid="101" id="119" ed:tosuperid="118" d="M-85.1,328.5C-81.8,-86.6,-14.5,-361,85.3,-361" transform="matrix(1,0,0,1,218,717)" stroke-linecap="round" fill="none"/><path stroke="#558ed5" stroke-linejoin="round" ed:parentid="118" id="121" ed:tosuperid="120" d="M-13.5,33.1C-13.5,-6.6,-2.7,-33.1,13.5,-33.1" transform="matrix(1,0,0,1,418,323)" stroke-linecap="round" fill="none"/><path stroke="#558ed5" stroke-linejoin="round" ed:parentid="118" id="123" ed:tosuperid="122" d="M-13.5,17.4C-13.5,-3.5,-2.7,-17.4,13.5,-17.4" transform="matrix(1,0,0,1,418,339)" stroke-linecap="round" fill="none"/><path stroke="#558ed5" stroke-linejoin="round" ed:parentid="118" id="125" ed:tosuperid="124" d="M-13.5,1.6C-13.5,-0.3,-2.7,-1.6,13.5,-1.6" transform="matrix(1,0,0,1,418,355)" stroke-linecap="round" fill="none"/><path stroke="#558ed5" stroke-linejoin="round" ed:parentid="118" id="127" ed:tosuperid="126" d="M-13.5,-14.1C-13.5,2.8,-2.7,14.1,13.5,14.1" transform="matrix(1,0,0,1,418,370)" stroke-linecap="round" fill="none"/><path stroke="#558ed5" stroke-linejoin="round" ed:parentid="118" id="129" ed:tosuperid="128" d="M-13.5,-29.9C-13.5,6,-2.7,29.9,13.5,29.9" transform="matrix(1,0,0,1,418,386)" stroke-linecap="round" fill="none"/><path stroke="#558ed5" stroke-linejoin="round" ed:parentid="118" id="131" ed:tosuperid="130" d="M-13.5,-45.6C-13.5,9.1,-2.7,45.6,13.5,45.6" transform="matrix(1,0,0,1,418,402)" stroke-linecap="round" fill="none"/><path stroke="#558ed5" stroke-linejoin="round" ed:parentid="101" id="133" ed:tosuperid="132" d="M-84.8,165.6C-78.9,-54,-12.3,-198.1,85.3,-198.1" transform="matrix(1,0,0,1,218,880)" stroke-linecap="round" fill="none"/><path stroke="#558ed5" stroke-linejoin="round" ed:parentid="132" id="135" ed:tosuperid="134" d="M-13.5,88.3C-13.5,-17.6,-2.7,-88.3,13.5,-88.3" transform="matrix(1,0,0,1,418,594)" stroke-linecap="round" fill="none"/><path stroke="#558ed5" stroke-linejoin="round" ed:parentid="132" id="137" ed:tosuperid="136" d="M-13.5,72.5C-13.5,-14.5,-2.7,-72.5,13.5,-72.5" transform="matrix(1,0,0,1,418,610)" stroke-linecap="round" fill="none"/><path stroke="#558ed5" stroke-linejoin="round" ed:parentid="132" id="139" ed:tosuperid="138" d="M-13.5,56.8C-13.5,-11.3,-2.7,-56.8,13.5,-56.8" transform="matrix(1,0,0,1,418,625)" stroke-linecap="round" fill="none"/><path stroke="#558ed5" stroke-linejoin="round" ed:parentid="132" id="141" ed:tosuperid="140" d="M-13.5,41C-13.5,-8.2,-2.7,-41,13.5,-41" transform="matrix(1,0,0,1,418,641)" stroke-linecap="round" fill="none"/><path stroke="#558ed5" stroke-linejoin="round" ed:parentid="132" id="143" ed:tosuperid="142" d="M-13.5,25.3C-13.5,-5.1,-2.7,-25.3,13.5,-25.3" transform="matrix(1,0,0,1,418,657)" stroke-linecap="round" fill="none"/><path stroke="#558ed5" stroke-linejoin="round" ed:parentid="132" id="145" ed:tosuperid="144" d="M-13.5,9.5C-13.5,-1.9,-2.7,-9.5,13.5,-9.5" transform="matrix(1,0,0,1,418,673)" stroke-linecap="round" fill="none"/><path stroke="#558ed5" stroke-linejoin="round" ed:parentid="132" id="147" ed:tosuperid="146" d="M-13.5,-6.3C-13.5,1.3,-2.7,6.3,13.5,6.3" transform="matrix(1,0,0,1,418,688)" stroke-linecap="round" fill="none"/><path stroke="#558ed5" stroke-linejoin="round" ed:parentid="132" id="149" ed:tosuperid="148" d="M-13.5,-22C-13.5,4.4,-2.7,22,13.5,22" transform="matrix(1,0,0,1,418,704)" stroke-linecap="round" fill="none"/><path stroke="#558ed5" stroke-linejoin="round" ed:parentid="132" id="151" ed:tosuperid="150" d="M-13.5,-37.8C-13.5,7.6,-2.7,37.8,13.5,37.8" transform="matrix(1,0,0,1,418,720)" stroke-linecap="round" fill="none"/><path stroke="#558ed5" stroke-linejoin="round" ed:parentid="132" id="153" ed:tosuperid="152" d="M-13.5,-53.5C-13.5,10.7,-2.7,53.5,13.5,53.5" transform="matrix(1,0,0,1,418,736)" stroke-linecap="round" fill="none"/><path stroke="#558ed5" stroke-linejoin="round" ed:parentid="132" id="155" ed:tosuperid="154" d="M-13.5,-69.3C-13.5,13.9,-2.7,69.3,13.5,69.3" transform="matrix(1,0,0,1,418,751)" stroke-linecap="round" fill="none"/><path stroke="#558ed5" stroke-linejoin="round" ed:parentid="132" id="157" ed:tosuperid="156" d="M-13.5,-85C-13.5,17,-2.7,85,13.5,85" transform="matrix(1,0,0,1,418,767)" stroke-linecap="round" fill="none"/><path stroke="#558ed5" stroke-linejoin="round" ed:parentid="132" id="159" ed:tosuperid="158" d="M-13.5,-100.8C-13.5,20.1,-2.7,100.8,13.5,100.8" transform="matrix(1,0,0,1,418,783)" stroke-linecap="round" fill="none"/><path stroke="#558ed5" stroke-linejoin="round" ed:parentid="101" id="161" ed:tosuperid="160" d="M-75,10.6C-52.4,-22.6,6.3,-43.1,85.3,-43.1" transform="matrix(1,0,0,1,218,1035)" stroke-linecap="round" fill="none"/><path stroke="#558ed5" stroke-linejoin="round" ed:parentid="160" id="163" ed:tosuperid="162" d="M-13.5,25.3C-13.5,-5.1,-2.7,-25.3,13.5,-25.3" transform="matrix(1,0,0,1,418,967)" stroke-linecap="round" fill="none"/><path stroke="#558ed5" stroke-linejoin="round" ed:parentid="160" id="165" ed:tosuperid="164" d="M-13.5,9.5C-13.5,-1.9,-2.7,-9.5,13.5,-9.5" transform="matrix(1,0,0,1,418,983)" stroke-linecap="round" fill="none"/><path stroke="#558ed5" stroke-linejoin="round" ed:parentid="160" id="167" ed:tosuperid="166" d="M-13.5,-6.3C-13.5,1.3,-2.7,6.3,13.5,6.3" transform="matrix(1,0,0,1,418,998)" stroke-linecap="round" fill="none"/><path stroke="#558ed5" stroke-linejoin="round" ed:parentid="160" id="169" ed:tosuperid="168" d="M-13.5,-22C-13.5,4.4,-2.7,22,13.5,22" transform="matrix(1,0,0,1,418,1014)" stroke-linecap="round" fill="none"/><path stroke="#558ed5" stroke-linejoin="round" ed:parentid="160" id="171" ed:tosuperid="170" d="M-13.5,-37.8C-13.5,7.5,-2.7,37.8,13.5,37.8" transform="matrix(1,0,0,1,418,1030)" stroke-linecap="round" fill="none"/><path stroke="#558ed5" stroke-linejoin="round" ed:parentid="101" id="173" ed:tosuperid="172" d="M-83.3,-63.6C-71.7,33.4,-7.1,96.1,85.3,96.1" transform="matrix(1,0,0,1,218,1174)" stroke-linecap="round" fill="none"/><path stroke="#558ed5" stroke-linejoin="round" ed:parentid="172" id="175" ed:tosuperid="174" d="M-13.5,72.5C-13.5,-14.5,-2.7,-72.5,13.5,-72.5" transform="matrix(1,0,0,1,418,1198)" stroke-linecap="round" fill="none"/><path stroke="#558ed5" stroke-linejoin="round" ed:parentid="172" id="177" ed:tosuperid="176" d="M-13.5,56.8C-13.5,-11.4,-2.7,-56.8,13.5,-56.8" transform="matrix(1,0,0,1,418,1214)" stroke-linecap="round" fill="none"/><path stroke="#558ed5" stroke-linejoin="round" ed:parentid="172" id="179" ed:tosuperid="178" d="M-13.5,41C-13.5,-8.2,-2.7,-41,13.5,-41" transform="matrix(1,0,0,1,418,1230)" stroke-linecap="round" fill="none"/><path stroke="#558ed5" stroke-linejoin="round" ed:parentid="172" id="181" ed:tosuperid="180" d="M-13.5,25.3C-13.5,-5,-2.7,-25.3,13.5,-25.3" transform="matrix(1,0,0,1,418,1245)" stroke-linecap="round" fill="none"/><path stroke="#558ed5" stroke-linejoin="round" ed:parentid="172" id="183" ed:tosuperid="182" d="M-13.5,9.5C-13.5,-1.9,-2.7,-9.5,13.5,-9.5" transform="matrix(1,0,0,1,418,1261)" stroke-linecap="round" fill="none"/><path stroke="#558ed5" stroke-linejoin="round" ed:parentid="172" id="185" ed:tosuperid="184" d="M-13.5,-6.3C-13.5,1.3,-2.7,6.3,13.5,6.3" transform="matrix(1,0,0,1,418,1277)" stroke-linecap="round" fill="none"/><path stroke="#558ed5" stroke-linejoin="round" ed:parentid="172" id="187" ed:tosuperid="186" d="M-13.5,-22C-13.5,4.4,-2.7,22,13.5,22" transform="matrix(1,0,0,1,418,1293)" stroke-linecap="round" fill="none"/><path stroke="#558ed5" stroke-linejoin="round" ed:parentid="172" id="189" ed:tosuperid="188" d="M-13.5,-37.8C-13.5,7.5,-2.7,37.8,13.5,37.8" transform="matrix(1,0,0,1,418,1308)" stroke-linecap="round" fill="none"/><path stroke="#558ed5" stroke-linejoin="round" ed:parentid="172" id="191" ed:tosuperid="190" d="M-13.5,-53.5C-13.5,10.7,-2.7,53.5,13.5,53.5" transform="matrix(1,0,0,1,418,1324)" stroke-linecap="round" fill="none"/><path stroke="#558ed5" stroke-linejoin="round" ed:parentid="172" id="193" ed:tosuperid="192" d="M-13.5,-69.3C-13.5,13.9,-2.7,69.3,13.5,69.3" transform="matrix(1,0,0,1,418,1340)" stroke-linecap="round" fill="none"/><path stroke="#558ed5" stroke-linejoin="round" ed:parentid="172" id="195" ed:tosuperid="194" d="M-13.5,-85C-13.5,17,-2.7,85,13.5,85" transform="matrix(1,0,0,1,418,1356)" stroke-linecap="round" fill="none"/><path stroke="#558ed5" stroke-linejoin="round" ed:parentid="101" id="197" ed:tosuperid="196" d="M-84.9,-202.9C-79.9,61.4,-13.1,235.4,85.3,235.4" transform="matrix(1,0,0,1,218,1314)" stroke-linecap="round" fill="none"/><path stroke="#558ed5" stroke-linejoin="round" ed:parentid="196" id="199" ed:tosuperid="198" d="M-13.5,25.3C-13.5,-5,-2.7,-25.3,13.5,-25.3" transform="matrix(1,0,0,1,418,1524)" stroke-linecap="round" fill="none"/><path stroke="#558ed5" stroke-linejoin="round" ed:parentid="196" id="201" ed:tosuperid="200" d="M-13.5,9.5C-13.5,-1.9,-2.7,-9.5,13.5,-9.5" transform="matrix(1,0,0,1,418,1540)" stroke-linecap="round" fill="none"/><path stroke="#558ed5" stroke-linejoin="round" ed:parentid="196" id="203" ed:tosuperid="202" d="M-13.5,-6.3C-13.5,1.3,-2.7,6.3,13.5,6.3" transform="matrix(1,0,0,1,418,1555)" stroke-linecap="round" fill="none"/><path stroke="#558ed5" stroke-linejoin="round" ed:parentid="196" id="205" ed:tosuperid="204" d="M-13.5,-22C-13.5,4.4,-2.7,22,13.5,22" transform="matrix(1,0,0,1,418,1571)" stroke-linecap="round" fill="none"/><path stroke="#558ed5" stroke-linejoin="round" ed:parentid="196" id="207" ed:tosuperid="206" d="M-13.5,-37.8C-13.5,7.5,-2.7,37.8,13.5,37.8" transform="matrix(1,0,0,1,418,1587)" stroke-linecap="round" fill="none"/><path stroke="#558ed5" stroke-linejoin="round" ed:parentid="101" id="209" ed:tosuperid="208" d="M-85.1,-357.9C-82.1,92.5,-14.7,390.4,85.3,390.4" transform="matrix(1,0,0,1,218,1469)" stroke-linecap="round" fill="none"/><path stroke="#558ed5" stroke-linejoin="round" ed:parentid="208" id="211" ed:tosuperid="210" d="M-13.5,88.3C-13.5,-17.7,-2.7,-88.3,13.5,-88.3" transform="matrix(1,0,0,1,418,1771)" stroke-linecap="round" fill="none"/><path stroke="#558ed5" stroke-linejoin="round" ed:parentid="208" id="213" ed:tosuperid="212" d="M-13.5,72.5C-13.5,-14.5,-2.7,-72.5,13.5,-72.5" transform="matrix(1,0,0,1,418,1787)" stroke-linecap="round" fill="none"/><path stroke="#558ed5" stroke-linejoin="round" ed:parentid="208" id="215" ed:tosuperid="214" d="M-13.5,56.8C-13.5,-11.3,-2.7,-56.8,13.5,-56.8" transform="matrix(1,0,0,1,418,1802)" stroke-linecap="round" fill="none"/><path stroke="#558ed5" stroke-linejoin="round" ed:parentid="208" id="217" ed:tosuperid="216" d="M-13.5,41C-13.5,-8.2,-2.7,-41,13.5,-41" transform="matrix(1,0,0,1,418,1818)" stroke-linecap="round" fill="none"/><path stroke="#558ed5" stroke-linejoin="round" ed:parentid="208" id="219" ed:tosuperid="218" d="M-13.5,25.3C-13.5,-5,-2.7,-25.3,13.5,-25.3" transform="matrix(1,0,0,1,418,1834)" stroke-linecap="round" fill="none"/><path stroke="#558ed5" stroke-linejoin="round" ed:parentid="208" id="221" ed:tosuperid="220" d="M-13.5,9.5C-13.5,-1.9,-2.7,-9.5,13.5,-9.5" transform="matrix(1,0,0,1,418,1850)" stroke-linecap="round" fill="none"/><path stroke="#558ed5" stroke-linejoin="round" ed:parentid="208" id="223" ed:tosuperid="222" d="M-13.5,-6.3C-13.5,1.3,-2.7,6.3,13.5,6.3" transform="matrix(1,0,0,1,418,1865)" stroke-linecap="round" fill="none"/><path stroke="#558ed5" stroke-linejoin="round" ed:parentid="208" id="225" ed:tosuperid="224" d="M-13.5,-22C-13.5,4.4,-2.7,22,13.5,22" transform="matrix(1,0,0,1,418,1881)" stroke-linecap="round" fill="none"/><path stroke="#558ed5" stroke-linejoin="round" ed:parentid="208" id="227" ed:tosuperid="226" d="M-13.5,-37.8C-13.5,7.5,-2.7,37.8,13.5,37.8" transform="matrix(1,0,0,1,418,1897)" stroke-linecap="round" fill="none"/><path stroke="#558ed5" stroke-linejoin="round" ed:parentid="208" id="229" ed:tosuperid="228" d="M-13.5,-53.5C-13.5,10.7,-2.7,53.5,13.5,53.5" transform="matrix(1,0,0,1,418,1913)" stroke-linecap="round" fill="none"/><path stroke="#558ed5" stroke-linejoin="round" ed:parentid="208" id="231" ed:tosuperid="230" d="M-13.5,-69.3C-13.5,13.8,-2.7,69.3,13.5,69.3" transform="matrix(1,0,0,1,418,1928)" stroke-linecap="round" fill="none"/><path stroke="#558ed5" stroke-linejoin="round" ed:parentid="208" id="233" ed:tosuperid="232" d="M-13.5,-85C-13.5,17,-2.7,85,13.5,85" transform="matrix(1,0,0,1,418,1944)" stroke-linecap="round" fill="none"/><path stroke="#558ed5" stroke-linejoin="round" ed:parentid="208" id="235" ed:tosuperid="234" d="M-13.5,-100.8C-13.5,20.2,-2.7,100.8,13.5,100.8" transform="matrix(1,0,0,1,418,1960)" stroke-linecap="round" fill="none"/><path stroke="#558ed5" stroke-linejoin="round" ed:parentid="101" id="237" ed:tosuperid="236" d="M-85.2,-485.1C-82.8,117.9,-15.3,517.6,85.3,517.6" transform="matrix(1,0,0,1,218,1596)" stroke-linecap="round" fill="none"/><g ed:width="215" ed:topictype="mainidea" id="101" ed:layout="map" ed:height="65" transform="matrix(1,0,0,1,25,1046)"><path stroke="#558ed5" stroke-width="5" stroke-linejoin="round" d="M4,0L211,0C213.7,0,215,1.3,215,4L215,61C215,63.7,213.7,65,211,65L4,65C1.3,65,0,63.7,0,61L0,4C0,1.3,1.3,0,4,0z" fill="#dce6f2"/><text class="st1"><tspan style="white-space:pre" x="22" y="40.8">把时间当作朋友</tspan></text></g><g ed:width="101" ed:parentid="101" id="102" ed:layout="rightmap" ed:height="40" transform="matrix(1,0,0,1,303,47)"><path stroke="#558ed5" stroke-width="2" stroke-linejoin="round" d="M4,0L97,0C99.7,0,101,1.3,101,4L101,36C101,38.7,99.7,40,97,40L4,40C1.3,40,0,38.7,0,36L0,4C0,1.3,1.3,0,4,0z" fill="#dce6f2"/><text class="st2"><tspan style="white-space:pre" x="18" y="25.3">1、困境</tspan></text></g><g ed:width="65" ed:parentid="102" id="104" ed:layout="rightmap" ed:height="25" transform="matrix(1,0,0,1,431,23)"><path stroke="#558ed5" stroke-width="3" stroke-linejoin="round" d="M0,25L65,25" fill="none"/><text class="st3"><tspan style="white-space:pre" x="8" y="16.2">1、问题</tspan></text></g><g ed:width="65" ed:parentid="102" id="106" ed:layout="rightmap" ed:height="25" transform="matrix(1,0,0,1,431,55)"><path stroke="#558ed5" stroke-width="3" stroke-linejoin="round" d="M0,25L65,25" fill="none"/><text class="st3"><tspan style="white-space:pre" x="8" y="16.2">2、慌乱</tspan></text></g><g ed:width="65" ed:parentid="102" id="108" ed:layout="rightmap" ed:height="25" transform="matrix(1,0,0,1,431,86)"><path stroke="#558ed5" stroke-width="3" stroke-linejoin="round" d="M0,25L65,25" fill="none"/><text class="st3"><tspan style="white-space:pre" x="8" y="16.2">3、解决</tspan></text></g><g ed:width="101" ed:parentid="101" id="110" ed:layout="rightmap" ed:height="40" transform="matrix(1,0,0,1,303,168)"><path stroke="#558ed5" stroke-width="2" stroke-linejoin="round" d="M4,0L97,0C99.7,0,101,1.3,101,4L101,36C101,38.7,99.7,40,97,40L4,40C1.3,40,0,38.7,0,36L0,4C0,1.3,1.3,0,4,0z" fill="#dce6f2"/><text class="st2"><tspan style="white-space:pre" x="18" y="25.3">2、醒悟</tspan></text></g><g ed:width="91" ed:parentid="110" id="112" ed:layout="rightmap" ed:height="25" transform="matrix(1,0,0,1,431,144)"><path stroke="#558ed5" stroke-width="3" stroke-linejoin="round" d="M0,25L91,25" fill="none"/><text class="st3"><tspan style="white-space:pre" x="8" y="16.2">1、孰主孰仆</tspan></text></g><g ed:width="91" ed:parentid="110" id="114" ed:layout="rightmap" ed:height="25" transform="matrix(1,0,0,1,431,176)"><path stroke="#558ed5" stroke-width="3" stroke-linejoin="round" d="M0,25L91,25" fill="none"/><text class="st3"><tspan style="white-space:pre" x="8" y="16.2">2、何为心智</tspan></text></g><g ed:width="91" ed:parentid="110" id="116" ed:layout="rightmap" ed:height="25" transform="matrix(1,0,0,1,431,207)"><path stroke="#558ed5" stroke-width="3" stroke-linejoin="round" d="M0,25L91,25" fill="none"/><text class="st3"><tspan style="white-space:pre" x="8" y="16.2">3、我的案例</tspan></text></g><g ed:width="101" ed:parentid="101" id="118" ed:layout="rightmap" ed:height="40" transform="matrix(1,0,0,1,303,336)"><path stroke="#558ed5" stroke-width="2" stroke-linejoin="round" d="M4,0L97,0C99.7,0,101,1.3,101,4L101,36C101,38.7,99.7,40,97,40L4,40C1.3,40,0,38.7,0,36L0,4C0,1.3,1.3,0,4,0z" fill="#dce6f2"/><text class="st2"><tspan style="white-space:pre" x="18" y="25.3">3、现实</tspan></text></g><g ed:width="117" ed:parentid="118" id="120" ed:layout="rightmap" ed:height="25" transform="matrix(1,0,0,1,431,265)"><path stroke="#558ed5" stroke-width="3" stroke-linejoin="round" d="M0,25L117,25" fill="none"/><text class="st3"><tspan style="white-space:pre" x="8" y="16.2">1、速成绝不可能</tspan></text></g><g ed:width="130" ed:parentid="118" id="122" ed:layout="rightmap" ed:height="25" transform="matrix(1,0,0,1,431,297)"><path stroke="#558ed5" stroke-width="3" stroke-linejoin="round" d="M0,25L130,25" fill="none"/><text class="st3"><tspan style="white-space:pre" x="8" y="16.2">2、交换才是硬道理</tspan></text></g><g ed:width="117" ed:parentid="118" id="124" ed:layout="rightmap" ed:height="25" transform="matrix(1,0,0,1,431,328)"><path stroke="#558ed5" stroke-width="3" stroke-linejoin="round" d="M0,25L117,25" fill="none"/><text class="st3"><tspan style="white-space:pre" x="8" y="16.2">3、完美永不存在</tspan></text></g><g ed:width="117" ed:parentid="118" id="126" ed:layout="rightmap" ed:height="25" transform="matrix(1,0,0,1,431,360)"><path stroke="#558ed5" stroke-width="3" stroke-linejoin="round" d="M0,25L117,25" fill="none"/><text class="st3"><tspan style="white-space:pre" x="8" y="16.2">4、未知永远存在</tspan></text></g><g ed:width="143" ed:parentid="118" id="128" ed:layout="rightmap" ed:height="25" transform="matrix(1,0,0,1,431,391)"><path stroke="#558ed5" stroke-width="3" stroke-linejoin="round" d="M0,25L143,25" fill="none"/><text class="st3"><tspan style="white-space:pre" x="8" y="16.2">5、现状无法马上摆脱</tspan></text></g><g ed:width="117" ed:parentid="118" id="130" ed:layout="rightmap" ed:height="25" transform="matrix(1,0,0,1,431,423)"><path stroke="#558ed5" stroke-width="3" stroke-linejoin="round" d="M0,25L117,25" fill="none"/><text class="st3"><tspan style="white-space:pre" x="8" y="16.2">6、与时间做朋友</tspan></text></g><g ed:width="101" ed:parentid="101" id="132" ed:layout="rightmap" ed:height="40" transform="matrix(1,0,0,1,303,662)"><path stroke="#558ed5" stroke-width="2" stroke-linejoin="round" d="M4,0L97,0C99.7,0,101,1.3,101,4L101,36C101,38.7,99.7,40,97,40L4,40C1.3,40,0,38.7,0,36L0,4C0,1.3,1.3,0,4,0z" fill="#dce6f2"/><text class="st2"><tspan style="white-space:pre" x="18" y="25.3">4、管理</tspan></text></g><g ed:width="91" ed:parentid="132" id="134" ed:layout="rightmap" ed:height="25" transform="matrix(1,0,0,1,431,481)"><path stroke="#558ed5" stroke-width="3" stroke-linejoin="round" d="M0,25L91,25" fill="none"/><text class="st3"><tspan style="white-space:pre" x="8" y="16.2">1、估算时间</tspan></text></g><g ed:width="91" ed:parentid="132" id="136" ed:layout="rightmap" ed:height="25" transform="matrix(1,0,0,1,431,512)"><path stroke="#558ed5" stroke-width="3" stroke-linejoin="round" d="M0,25L91,25" fill="none"/><text class="st3"><tspan style="white-space:pre" x="8" y="16.2">2、及时行动</tspan></text></g><g ed:width="91" ed:parentid="132" id="138" ed:layout="rightmap" ed:height="25" transform="matrix(1,0,0,1,431,544)"><path stroke="#558ed5" stroke-width="3" stroke-linejoin="round" d="M0,25L91,25" fill="none"/><text class="st3"><tspan style="white-space:pre" x="8" y="16.2">3、直面困难</tspan></text></g><g ed:width="91" ed:parentid="132" id="140" ed:layout="rightmap" ed:height="25" transform="matrix(1,0,0,1,431,575)"><path stroke="#558ed5" stroke-width="3" stroke-linejoin="round" d="M0,25L91,25" fill="none"/><text class="st3"><tspan style="white-space:pre" x="8" y="16.2">4、关注步骤</tspan></text></g><g ed:width="91" ed:parentid="132" id="142" ed:layout="rightmap" ed:height="25" transform="matrix(1,0,0,1,431,607)"><path stroke="#558ed5" stroke-width="3" stroke-linejoin="round" d="M0,25L91,25" fill="none"/><text class="st3"><tspan style="white-space:pre" x="8" y="16.2">5、串行并行</tspan></text></g><g ed:width="91" ed:parentid="132" id="144" ed:layout="rightmap" ed:height="25" transform="matrix(1,0,0,1,431,638)"><path stroke="#558ed5" stroke-width="3" stroke-linejoin="round" d="M0,25L91,25" fill="none"/><text class="st3"><tspan style="white-space:pre" x="8" y="16.2">6、感知时间</tspan></text></g><g ed:width="91" ed:parentid="132" id="146" ed:layout="rightmap" ed:height="25" transform="matrix(1,0,0,1,431,670)"><path stroke="#558ed5" stroke-width="3" stroke-linejoin="round" d="M0,25L91,25" fill="none"/><text class="st3"><tspan style="white-space:pre" x="8" y="16.2">7、记录开销</tspan></text></g><g ed:width="91" ed:parentid="132" id="148" ed:layout="rightmap" ed:height="25" transform="matrix(1,0,0,1,431,701)"><path stroke="#558ed5" stroke-width="3" stroke-linejoin="round" d="M0,25L91,25" fill="none"/><text class="st3"><tspan style="white-space:pre" x="8" y="16.2">8、制定预算</tspan></text></g><g ed:width="65" ed:parentid="132" id="150" ed:layout="rightmap" ed:height="25" transform="matrix(1,0,0,1,431,733)"><path stroke="#558ed5" stroke-width="3" stroke-linejoin="round" d="M0,25L65,25" fill="none"/><text class="st3"><tspan style="white-space:pre" x="8" y="16.2">9、计划</tspan></text></g><g ed:width="73" ed:parentid="132" id="152" ed:layout="rightmap" ed:height="25" transform="matrix(1,0,0,1,431,764)"><path stroke="#558ed5" stroke-width="3" stroke-linejoin="round" d="M0,25L73,25" fill="none"/><text class="st3"><tspan style="white-space:pre" x="8" y="16.2">10、列表</tspan></text></g><g ed:width="73" ed:parentid="132" id="154" ed:layout="rightmap" ed:height="25" transform="matrix(1,0,0,1,431,796)"><path stroke="#558ed5" stroke-width="3" stroke-linejoin="round" d="M0,25L73,25" fill="none"/><text class="st3"><tspan style="white-space:pre" x="8" y="16.2">11、流程</tspan></text></g><g ed:width="73" ed:parentid="132" id="156" ed:layout="rightmap" ed:height="25" transform="matrix(1,0,0,1,431,827)"><path stroke="#558ed5" stroke-width="3" stroke-linejoin="round" d="M0,25L73,25" fill="none"/><text class="st3"><tspan style="white-space:pre" x="8" y="16.2">12、预演</tspan></text></g><g ed:width="73" ed:parentid="132" id="158" ed:layout="rightmap" ed:height="25" transform="matrix(1,0,0,1,431,859)"><path stroke="#558ed5" stroke-width="3" stroke-linejoin="round" d="M0,25L73,25" fill="none"/><text class="st3"><tspan style="white-space:pre" x="8" y="16.2">13、验收</tspan></text></g><g ed:width="101" ed:parentid="101" id="160" ed:layout="rightmap" ed:height="40" transform="matrix(1,0,0,1,303,972)"><path stroke="#558ed5" stroke-width="2" stroke-linejoin="round" d="M4,0L97,0C99.7,0,101,1.3,101,4L101,36C101,38.7,99.7,40,97,40L4,40C1.3,40,0,38.7,0,36L0,4C0,1.3,1.3,0,4,0z" fill="#dce6f2"/><text class="st2"><tspan style="white-space:pre" x="18" y="25.3">5、学习</tspan></text></g><g ed:width="91" ed:parentid="160" id="162" ed:layout="rightmap" ed:height="25" transform="matrix(1,0,0,1,431,917)"><path stroke="#558ed5" stroke-width="3" stroke-linejoin="round" d="M0,25L91,25" fill="none"/><text class="st3"><tspan style="white-space:pre" x="8" y="16.2">1、效率本质</tspan></text></g><g ed:width="91" ed:parentid="160" id="164" ed:layout="rightmap" ed:height="25" transform="matrix(1,0,0,1,431,948)"><path stroke="#558ed5" stroke-width="3" stroke-linejoin="round" d="M0,25L91,25" fill="none"/><text class="st3"><tspan style="white-space:pre" x="8" y="16.2">2、基本途径</tspan></text></g><g ed:width="91" ed:parentid="160" id="166" ed:layout="rightmap" ed:height="25" transform="matrix(1,0,0,1,431,980)"><path stroke="#558ed5" stroke-width="3" stroke-linejoin="round" d="M0,25L91,25" fill="none"/><text class="st3"><tspan style="white-space:pre" x="8" y="16.2">3、主要手段</tspan></text></g><g ed:width="91" ed:parentid="160" id="168" ed:layout="rightmap" ed:height="25" transform="matrix(1,0,0,1,431,1011)"><path stroke="#558ed5" stroke-width="3" stroke-linejoin="round" d="M0,25L91,25" fill="none"/><text class="st3"><tspan style="white-space:pre" x="8" y="16.2">4、经验局限</tspan></text></g><g ed:width="91" ed:parentid="160" id="170" ed:layout="rightmap" ed:height="25" transform="matrix(1,0,0,1,431,1043)"><path stroke="#558ed5" stroke-width="3" stroke-linejoin="round" d="M0,25L91,25" fill="none"/><text class="st3"><tspan style="white-space:pre" x="8" y="16.2">5、自学能力</tspan></text></g><g ed:width="101" ed:parentid="101" id="172" ed:layout="rightmap" ed:height="40" transform="matrix(1,0,0,1,303,1251)"><path stroke="#558ed5" stroke-width="2" stroke-linejoin="round" d="M4,0L97,0C99.7,0,101,1.3,101,4L101,36C101,38.7,99.7,40,97,40L4,40C1.3,40,0,38.7,0,36L0,4C0,1.3,1.3,0,4,0z" fill="#dce6f2"/><text class="st2"><tspan style="white-space:pre" x="18" y="25.3">6、思考</tspan></text></g><g ed:width="91" ed:parentid="172" id="174" ed:layout="rightmap" ed:height="25" transform="matrix(1,0,0,1,431,1101)"><path stroke="#558ed5" stroke-width="3" stroke-linejoin="round" d="M0,25L91,25" fill="none"/><text class="st3"><tspan style="white-space:pre" x="8" y="16.2">1、勤于思考</tspan></text></g><g ed:width="91" ed:parentid="172" id="176" ed:layout="rightmap" ed:height="25" transform="matrix(1,0,0,1,431,1132)"><path stroke="#558ed5" stroke-width="3" stroke-linejoin="round" d="M0,25L91,25" fill="none"/><text class="st3"><tspan style="white-space:pre" x="8" y="16.2">2、思维陷阱</tspan></text></g><g ed:width="91" ed:parentid="172" id="178" ed:layout="rightmap" ed:height="25" transform="matrix(1,0,0,1,431,1164)"><path stroke="#558ed5" stroke-width="3" stroke-linejoin="round" d="M0,25L91,25" fill="none"/><text class="st3"><tspan style="white-space:pre" x="8" y="16.2">3、因果关系</tspan></text></g><g ed:width="91" ed:parentid="172" id="180" ed:layout="rightmap" ed:height="25" transform="matrix(1,0,0,1,431,1195)"><path stroke="#558ed5" stroke-width="3" stroke-linejoin="round" d="M0,25L91,25" fill="none"/><text class="st3"><tspan style="white-space:pre" x="8" y="16.2">4、相关命题</tspan></text></g><g ed:width="91" ed:parentid="172" id="182" ed:layout="rightmap" ed:height="25" transform="matrix(1,0,0,1,431,1227)"><path stroke="#558ed5" stroke-width="3" stroke-linejoin="round" d="M0,25L91,25" fill="none"/><text class="st3"><tspan style="white-space:pre" x="8" y="16.2">5、举证责任</tspan></text></g><g ed:width="91" ed:parentid="172" id="184" ed:layout="rightmap" ed:height="25" transform="matrix(1,0,0,1,431,1258)"><path stroke="#558ed5" stroke-width="3" stroke-linejoin="round" d="M0,25L91,25" fill="none"/><text class="st3"><tspan style="white-space:pre" x="8" y="16.2">6、案例局限</tspan></text></g><g ed:width="91" ed:parentid="172" id="186" ed:layout="rightmap" ed:height="25" transform="matrix(1,0,0,1,431,1290)"><path stroke="#558ed5" stroke-width="3" stroke-linejoin="round" d="M0,25L91,25" fill="none"/><text class="st3"><tspan style="white-space:pre" x="8" y="16.2">7、对立论证</tspan></text></g><g ed:width="91" ed:parentid="172" id="188" ed:layout="rightmap" ed:height="25" transform="matrix(1,0,0,1,431,1321)"><path stroke="#558ed5" stroke-width="3" stroke-linejoin="round" d="M0,25L91,25" fill="none"/><text class="st3"><tspan style="white-space:pre" x="8" y="16.2">8、张冠李戴</tspan></text></g><g ed:width="91" ed:parentid="172" id="190" ed:layout="rightmap" ed:height="25" transform="matrix(1,0,0,1,431,1353)"><path stroke="#558ed5" stroke-width="3" stroke-linejoin="round" d="M0,25L91,25" fill="none"/><text class="st3"><tspan style="white-space:pre" x="8" y="16.2">9、辨析感悟</tspan></text></g><g ed:width="99" ed:parentid="172" id="192" ed:layout="rightmap" ed:height="25" transform="matrix(1,0,0,1,431,1384)"><path stroke="#558ed5" stroke-width="3" stroke-linejoin="round" d="M0,25L99,25" fill="none"/><text class="st3"><tspan style="white-space:pre" x="8" y="16.2">10、克服恐惧</tspan></text></g><g ed:width="99" ed:parentid="172" id="194" ed:layout="rightmap" ed:height="25" transform="matrix(1,0,0,1,431,1416)"><path stroke="#558ed5" stroke-width="3" stroke-linejoin="round" d="M0,25L99,25" fill="none"/><text class="st3"><tspan style="white-space:pre" x="8" y="16.2">11、辅助工具</tspan></text></g><g ed:width="101" ed:parentid="101" id="196" ed:layout="rightmap" ed:height="40" transform="matrix(1,0,0,1,303,1529)"><path stroke="#558ed5" stroke-width="2" stroke-linejoin="round" d="M4,0L97,0C99.7,0,101,1.3,101,4L101,36C101,38.7,99.7,40,97,40L4,40C1.3,40,0,38.7,0,36L0,4C0,1.3,1.3,0,4,0z" fill="#dce6f2"/><text class="st2"><tspan style="white-space:pre" x="18" y="25.3">7、交流</tspan></text></g><g ed:width="91" ed:parentid="196" id="198" ed:layout="rightmap" ed:height="25" transform="matrix(1,0,0,1,431,1474)"><path stroke="#558ed5" stroke-width="3" stroke-linejoin="round" d="M0,25L91,25" fill="none"/><text class="st3"><tspan style="white-space:pre" x="8" y="16.2">1、学会倾听</tspan></text></g><g ed:width="91" ed:parentid="196" id="200" ed:layout="rightmap" ed:height="25" transform="matrix(1,0,0,1,431,1505)"><path stroke="#558ed5" stroke-width="3" stroke-linejoin="round" d="M0,25L91,25" fill="none"/><text class="st3"><tspan style="white-space:pre" x="8" y="16.2">2、说与不说</tspan></text></g><g ed:width="91" ed:parentid="196" id="202" ed:layout="rightmap" ed:height="25" transform="matrix(1,0,0,1,431,1537)"><path stroke="#558ed5" stroke-width="3" stroke-linejoin="round" d="M0,25L91,25" fill="none"/><text class="st3"><tspan style="white-space:pre" x="8" y="16.2">3、交流守则</tspan></text></g><g ed:width="91" ed:parentid="196" id="204" ed:layout="rightmap" ed:height="25" transform="matrix(1,0,0,1,431,1568)"><path stroke="#558ed5" stroke-width="3" stroke-linejoin="round" d="M0,25L91,25" fill="none"/><text class="st3"><tspan style="white-space:pre" x="8" y="16.2">4、正确复述</tspan></text></g><g ed:width="91" ed:parentid="196" id="206" ed:layout="rightmap" ed:height="25" transform="matrix(1,0,0,1,431,1600)"><path stroke="#558ed5" stroke-width="3" stroke-linejoin="round" d="M0,25L91,25" fill="none"/><text class="st3"><tspan style="white-space:pre" x="8" y="16.2">5、勤于反思</tspan></text></g><g ed:width="101" ed:parentid="101" id="208" ed:layout="rightmap" ed:height="40" transform="matrix(1,0,0,1,303,1839)"><path stroke="#558ed5" stroke-width="2" stroke-linejoin="round" d="M4,0L97,0C99.7,0,101,1.3,101,4L101,36C101,38.7,99.7,40,97,40L4,40C1.3,40,0,38.7,0,36L0,4C0,1.3,1.3,0,4,0z" fill="#dce6f2"/><text class="st2"><tspan style="white-space:pre" x="18" y="25.3">8、应用</tspan></text></g><g ed:width="65" ed:parentid="208" id="210" ed:layout="rightmap" ed:height="25" transform="matrix(1,0,0,1,431,1658)"><path stroke="#558ed5" stroke-width="3" stroke-linejoin="round" d="M0,25L65,25" fill="none"/><text class="st3"><tspan style="white-space:pre" x="8" y="16.2">1、兴趣</tspan></text></g><g ed:width="65" ed:parentid="208" id="212" ed:layout="rightmap" ed:height="25" transform="matrix(1,0,0,1,431,1689)"><path stroke="#558ed5" stroke-width="3" stroke-linejoin="round" d="M0,25L65,25" fill="none"/><text class="st3"><tspan style="white-space:pre" x="8" y="16.2">2、方法</tspan></text></g><g ed:width="65" ed:parentid="208" id="214" ed:layout="rightmap" ed:height="25" transform="matrix(1,0,0,1,431,1721)"><path stroke="#558ed5" stroke-width="3" stroke-linejoin="round" d="M0,25L65,25" fill="none"/><text class="st3"><tspan style="white-space:pre" x="8" y="16.2">3、痛苦</tspan></text></g><g ed:width="65" ed:parentid="208" id="216" ed:layout="rightmap" ed:height="25" transform="matrix(1,0,0,1,431,1752)"><path stroke="#558ed5" stroke-width="3" stroke-linejoin="round" d="M0,25L65,25" fill="none"/><text class="st3"><tspan style="white-space:pre" x="8" y="16.2">4、比较</tspan></text></g><g ed:width="65" ed:parentid="208" id="218" ed:layout="rightmap" ed:height="25" transform="matrix(1,0,0,1,431,1784)"><path stroke="#558ed5" stroke-width="3" stroke-linejoin="round" d="M0,25L65,25" fill="none"/><text class="st3"><tspan style="white-space:pre" x="8" y="16.2">5、运气</tspan></text></g><g ed:width="65" ed:parentid="208" id="220" ed:layout="rightmap" ed:height="25" transform="matrix(1,0,0,1,431,1815)"><path stroke="#558ed5" stroke-width="3" stroke-linejoin="round" d="M0,25L65,25" fill="none"/><text class="st3"><tspan style="white-space:pre" x="8" y="16.2">6、人脉</tspan></text></g><g ed:width="65" ed:parentid="208" id="222" ed:layout="rightmap" ed:height="25" transform="matrix(1,0,0,1,431,1847)"><path stroke="#558ed5" stroke-width="3" stroke-linejoin="round" d="M0,25L65,25" fill="none"/><text class="st3"><tspan style="white-space:pre" x="8" y="16.2">7、自卑</tspan></text></g><g ed:width="65" ed:parentid="208" id="224" ed:layout="rightmap" ed:height="25" transform="matrix(1,0,0,1,431,1878)"><path stroke="#558ed5" stroke-width="3" stroke-linejoin="round" d="M0,25L65,25" fill="none"/><text class="st3"><tspan style="white-space:pre" x="8" y="16.2">8、灵感</tspan></text></g><g ed:width="65" ed:parentid="208" id="226" ed:layout="rightmap" ed:height="25" transform="matrix(1,0,0,1,431,1910)"><path stroke="#558ed5" stroke-width="3" stroke-linejoin="round" d="M0,25L65,25" fill="none"/><text class="st3"><tspan style="white-space:pre" x="8" y="16.2">9、鼓励</tspan></text></g><g ed:width="73" ed:parentid="208" id="228" ed:layout="rightmap" ed:height="25" transform="matrix(1,0,0,1,431,1941)"><path stroke="#558ed5" stroke-width="3" stroke-linejoin="round" d="M0,25L73,25" fill="none"/><text class="st3"><tspan style="white-space:pre" x="8" y="16.2">10、效率</tspan></text></g><g ed:width="73" ed:parentid="208" id="230" ed:layout="rightmap" ed:height="25" transform="matrix(1,0,0,1,431,1973)"><path stroke="#558ed5" stroke-width="3" stroke-linejoin="round" d="M0,25L73,25" fill="none"/><text class="st3"><tspan style="white-space:pre" x="8" y="16.2">11、节奏</tspan></text></g><g ed:width="99" ed:parentid="208" id="232" ed:layout="rightmap" ed:height="25" transform="matrix(1,0,0,1,431,2004)"><path stroke="#558ed5" stroke-width="3" stroke-linejoin="round" d="M0,25L99,25" fill="none"/><text class="st3"><tspan style="white-space:pre" x="8" y="16.2">12、物极必反</tspan></text></g><g ed:width="99" ed:parentid="208" id="234" ed:layout="rightmap" ed:height="25" transform="matrix(1,0,0,1,431,2036)"><path stroke="#558ed5" stroke-width="3" stroke-linejoin="round" d="M0,25L99,25" fill="none"/><text class="st3"><tspan style="white-space:pre" x="8" y="16.2">13、自我证明</tspan></text></g><g ed:width="101" ed:parentid="101" id="236" ed:layout="rightmap" ed:height="40" transform="matrix(1,0,0,1,303,2094)"><path stroke="#558ed5" stroke-width="2" stroke-linejoin="round" d="M4,0L97,0C99.7,0,101,1.3,101,4L101,36C101,38.7,99.7,40,97,40L4,40C1.3,40,0,38.7,0,36L0,4C0,1.3,1.3,0,4,0z" fill="#dce6f2"/><text class="st2"><tspan style="white-space:pre" x="18" y="25.3">9、积累</tspan></text></g><symbol id="plus"><path d="M11,6C11,8.8,8.8,11,6,11C3.2,11,1,8.8,1,6C1,3.2,3.2,1,6,1C8.8,1,11,3.2,11,6z" fill="url(#lg1)"/><path stroke-width="0.7" stroke="#46a000" d="M11,6C11,8.8,8.8,11,6,11C3.2,11,1,8.8,1,6C1,3.2,3.2,1,6,1C8.8,1,11,3.2,11,6zM3,6L9,6M6,3L6,9" fill="none"/></symbol><symbol id="minus"><path d="M11,6C11,8.8,8.8,11,6,11C3.2,11,1,8.8,1,6C1,3.2,3.2,1,6,1C8.8,1,11,3.2,11,6z" fill="url(#lg1)"/><path stroke-width="0.7" stroke="#46a000" d="M11,6C11,8.8,8.8,11,6,11C3.2,11,1,8.8,1,6C1,3.2,3.2,1,6,1C8.8,1,11,3.2,11,6zM3,6L9,6" fill="none"/></symbol><g transform="translate(241,1072)" ed:togtopicid="101"><use xlink:href="#minus"/></g><g transform="translate(405,61)" ed:togtopicid="102"><use xlink:href="#minus"/></g><g transform="translate(405,182)" ed:togtopicid="110"><use xlink:href="#minus"/></g><g transform="translate(405,350)" ed:togtopicid="118"><use xlink:href="#minus"/></g><g transform="translate(405,676)" ed:togtopicid="132"><use xlink:href="#minus"/></g><g transform="translate(405,986)" ed:togtopicid="160"><use xlink:href="#minus"/></g><g transform="translate(405,1265)" ed:togtopicid="172"><use xlink:href="#minus"/></g><g transform="translate(405,1543)" ed:togtopicid="196"><use xlink:href="#minus"/></g><g transform="translate(405,1853)" ed:togtopicid="208"><use xlink:href="#minus"/></g></svg>