<svg width="1473" xmlns:xlink="http://www.w3.org/1999/xlink" xmlns:ev="http://www.w3.org/2001/xml-events" viewBox="0 0 1473 1565" id="page100" ed:vSpacing="30" xmlns="http://www.w3.org/2000/svg" ed:hSpacing="30" ed:name="Page-1" height="1565" xmlns:ed="https://www.edrawsoft.cn/xml/2017/SVGExtensions/"><style type="text/css"><![CDATA[
g[ed\:togtopicid],g[ed\:hyperlink],g[ed\:comment],g[ed\:note] {cursor:pointer;}
g[id] {-moz-user-select: none;-ms-user-select: none;user-select: none;}
svg text::selection,svg tspan::selection{background-color: #4285f4;color: #ffffff;fill: #ffffff;}
.st2 {fill:#303030;font-family:微软雅黑;font-size:12pt}
.st3 {fill:#454545;font-family:微软雅黑;font-size:10pt}
.st1 {fill:#ffffff;font-family:微软雅黑;font-size:14pt}
]]></style><defs><linearGradient y2="100%" id="lg1" y1="0%" x1="0%" x2="0%"><stop stop-color="#ffffff" offset="0"/><stop stop-color="#f0f5f0" offset="0.25"/><stop stop-color="#e1ebe1" offset="0.75"/><stop stop-color="#c8d7c8" offset="1"/></linearGradient></defs><rect width="1473" x="0" y="0" height="1565" fill="#ffffff"/><path stroke="#696969" stroke-linejoin="round" ed:parentid="101" id="103" ed:tosuperid="102" d="M-94.7,305.5C10.2,178,-69.4,-334,152,-334" transform="matrix(1,0,0,1,416,448)" stroke-linecap="round" fill="none"/><path stroke="#696969" stroke-linejoin="round" ed:parentid="101" id="105" ed:tosuperid="104" d="M-90.8,228.5C4.8,120.6,-38.6,-257,152,-257" transform="matrix(1,0,0,1,416,525)" stroke-linecap="round" fill="none"/><path stroke="#696969" stroke-linejoin="round" ed:parentid="101" id="107" ed:tosuperid="106" d="M-87.5,184.3C2.6,88.9,-18.4,-212.8,152,-212.8" transform="matrix(1,0,0,1,416,570)" stroke-linecap="round" fill="none"/><path stroke="#696969" stroke-linejoin="round" ed:parentid="101" id="109" ed:tosuperid="108" d="M-81.5,132.3C1.9,53.6,7.4,-160.7,152,-160.8" transform="matrix(1,0,0,1,416,622)" stroke-linecap="round" fill="none"/><path stroke="#696969" stroke-linejoin="round" ed:parentid="101" id="111" ed:tosuperid="110" d="M-67.8,72.5C6.6,16.8,40.4,-101,152,-101" transform="matrix(1,0,0,1,416,681)" stroke-linecap="round" fill="none"/><path stroke="#696969" stroke-linejoin="round" ed:parentid="101" id="113" ed:tosuperid="112" d="M-33.6,20.5C27.1,-8.4,76,-49,152,-49" transform="matrix(1,0,0,1,416,733)" stroke-linecap="round" fill="none"/><path stroke="#696969" stroke-linejoin="round" ed:parentid="101" id="115" ed:tosuperid="114" d="M89,-3.5C110.2,-4.3,131.1,-4.8,152,-4.8" transform="matrix(1,0,0,1,416,778)" stroke-linecap="round" fill="none"/><path stroke="#696969" stroke-linejoin="round" ed:parentid="101" id="117" ed:tosuperid="116" d="M-53.1,-42C14.8,-0.8,59.7,70.5,152,70.5" transform="matrix(1,0,0,1,416,853)" stroke-linecap="round" fill="none"/><path stroke="#696969" stroke-linejoin="round" ed:parentid="101" id="119" ed:tosuperid="118" d="M-78.2,-112.6C2.5,-40.9,17.8,141.1,152,141.1" transform="matrix(1,0,0,1,416,923)" stroke-linecap="round" fill="none"/><path stroke="#696969" stroke-linejoin="round" ed:parentid="101" id="121" ed:tosuperid="120" d="M-91.8,-245.2C5.9,-132.8,-45.7,273.8,152,273.8" transform="matrix(1,0,0,1,416,1056)" stroke-linecap="round" fill="none"/><path stroke="#696969" stroke-linejoin="round" ed:parentid="116" id="123" ed:tosuperid="122" d="M-13.5,32.6C3.9,32.6,-10,-32.6,13.5,-32.6" transform="matrix(1,0,0,1,850,891)" stroke-linecap="round" fill="none"/><path stroke="#696969" stroke-linejoin="round" ed:parentid="116" id="125" ed:tosuperid="124" d="M-13.5,17.1C1.2,17.1,-3.6,-17.1,13.5,-17.1" transform="matrix(1,0,0,1,850,906)" stroke-linecap="round" fill="none"/><path stroke="#696969" stroke-linejoin="round" ed:parentid="116" id="127" ed:tosuperid="126" d="M-13.5,1.6C-2.3,1.6,4.5,-1.6,13.5,-1.6" transform="matrix(1,0,0,1,850,922)" stroke-linecap="round" fill="none"/><path stroke="#696969" stroke-linejoin="round" ed:parentid="116" id="129" ed:tosuperid="128" d="M-13.5,-13.9C0.5,-13.9,-2,13.9,13.5,13.9" transform="matrix(1,0,0,1,850,937)" stroke-linecap="round" fill="none"/><path stroke="#696969" stroke-linejoin="round" ed:parentid="116" id="131" ed:tosuperid="130" d="M-13.5,-29.4C3.4,-29.4,-8.9,29.4,13.5,29.4" transform="matrix(1,0,0,1,850,953)" stroke-linecap="round" fill="none"/><path stroke="#696969" stroke-linejoin="round" ed:parentid="116" id="133" ed:tosuperid="132" d="M-13.5,-44.9C5.1,-44.9,-12.8,44.9,13.5,44.9" transform="matrix(1,0,0,1,850,968)" stroke-linecap="round" fill="none"/><path stroke="#696969" stroke-linejoin="round" ed:parentid="120" id="135" ed:tosuperid="134" d="M-13.5,94.6C5.4,94.6,-13.5,-94.6,13.5,-94.6" transform="matrix(1,0,0,1,830,1235)" stroke-linecap="round" fill="none"/><path stroke="#696969" stroke-linejoin="round" ed:parentid="120" id="137" ed:tosuperid="136" d="M-13.5,79.1C5.4,79.1,-13.5,-79.1,13.5,-79.1" transform="matrix(1,0,0,1,830,1251)" stroke-linecap="round" fill="none"/><path stroke="#696969" stroke-linejoin="round" ed:parentid="120" id="139" ed:tosuperid="138" d="M-13.5,63.6C5.4,63.6,-13.5,-63.6,13.5,-63.6" transform="matrix(1,0,0,1,830,1266)" stroke-linecap="round" fill="none"/><path stroke="#696969" stroke-linejoin="round" ed:parentid="120" id="141" ed:tosuperid="140" d="M-13.5,48.1C5.3,48.1,-13.2,-48.1,13.5,-48.1" transform="matrix(1,0,0,1,830,1282)" stroke-linecap="round" fill="none"/><path stroke="#696969" stroke-linejoin="round" ed:parentid="120" id="143" ed:tosuperid="142" d="M-13.5,32.6C3.9,32.6,-10,-32.6,13.5,-32.6" transform="matrix(1,0,0,1,830,1297)" stroke-linecap="round" fill="none"/><path stroke="#696969" stroke-linejoin="round" ed:parentid="120" id="145" ed:tosuperid="144" d="M-13.5,17.1C1.2,17.1,-3.6,-17.1,13.5,-17.1" transform="matrix(1,0,0,1,830,1313)" stroke-linecap="round" fill="none"/><path stroke="#696969" stroke-linejoin="round" ed:parentid="120" id="147" ed:tosuperid="146" d="M-13.5,1.6C-2.3,1.6,4.5,-1.6,13.5,-1.6" transform="matrix(1,0,0,1,830,1328)" stroke-linecap="round" fill="none"/><path stroke="#696969" stroke-linejoin="round" ed:parentid="120" id="149" ed:tosuperid="148" d="M-13.5,-13.9C0.5,-13.9,-2,13.9,13.5,13.9" transform="matrix(1,0,0,1,830,1344)" stroke-linecap="round" fill="none"/><path stroke="#696969" stroke-linejoin="round" ed:parentid="120" id="151" ed:tosuperid="150" d="M-13.5,-29.4C3.4,-29.4,-8.9,29.4,13.5,29.4" transform="matrix(1,0,0,1,830,1359)" stroke-linecap="round" fill="none"/><path stroke="#696969" stroke-linejoin="round" ed:parentid="120" id="153" ed:tosuperid="152" d="M-13.5,-44.9C5.1,-44.9,-12.8,44.9,13.5,44.9" transform="matrix(1,0,0,1,830,1375)" stroke-linecap="round" fill="none"/><path stroke="#696969" stroke-linejoin="round" ed:parentid="120" id="155" ed:tosuperid="154" d="M-13.5,-60.4C5.4,-60.4,-13.5,60.4,13.5,60.4" transform="matrix(1,0,0,1,830,1390)" stroke-linecap="round" fill="none"/><path stroke="#696969" stroke-linejoin="round" ed:parentid="120" id="157" ed:tosuperid="156" d="M-13.5,-75.9C5.4,-75.9,-13.5,75.9,13.5,75.9" transform="matrix(1,0,0,1,830,1406)" stroke-linecap="round" fill="none"/><path stroke="#696969" stroke-linejoin="round" ed:parentid="120" id="159" ed:tosuperid="158" d="M-13.5,-91.4C5.4,-91.4,-13.5,91.4,13.5,91.4" transform="matrix(1,0,0,1,830,1421)" stroke-linecap="round" fill="none"/><path stroke="#696969" stroke-linejoin="round" ed:parentid="120" id="161" ed:tosuperid="160" d="M-13.5,-106.9C5.4,-106.9,-13.5,106.9,13.5,106.9" transform="matrix(1,0,0,1,830,1437)" stroke-linecap="round" fill="none"/><path stroke="#696969" stroke-linejoin="round" ed:parentid="102" id="163" ed:tosuperid="162" d="M-13.5,34.4C4.1,34.4,-10.5,-34.4,13.5,-34.4" transform="matrix(1,0,0,1,925,80)" stroke-linecap="round" fill="none"/><path stroke="#696969" stroke-linejoin="round" ed:parentid="104" id="165" ed:tosuperid="164" d="M-13.5,1.6C-2.3,1.6,4.5,-1.6,13.5,-1.6" transform="matrix(1,0,0,1,891,267)" stroke-linecap="round" fill="none"/><path stroke="#696969" stroke-linejoin="round" ed:parentid="104" id="167" ed:tosuperid="166" d="M-13.5,-13.9C0.5,-13.9,-2,13.9,13.5,13.9" transform="matrix(1,0,0,1,891,282)" stroke-linecap="round" fill="none"/><path stroke="#696969" stroke-linejoin="round" ed:parentid="106" id="169" ed:tosuperid="168" d="M-13.5,1.6C-2.3,1.6,4.5,-1.6,13.5,-1.6" transform="matrix(1,0,0,1,891,355)" stroke-linecap="round" fill="none"/><path stroke="#696969" stroke-linejoin="round" ed:parentid="106" id="171" ed:tosuperid="170" d="M-13.5,-13.9C0.5,-13.9,-2,13.9,13.5,13.9" transform="matrix(1,0,0,1,891,371)" stroke-linecap="round" fill="none"/><path stroke="#696969" stroke-linejoin="round" ed:parentid="108" id="173" ed:tosuperid="172" d="M-13.5,9.4C-0.5,9.4,0.3,-9.4,13.5,-9.4" transform="matrix(1,0,0,1,891,451)" stroke-linecap="round" fill="none"/><path stroke="#696969" stroke-linejoin="round" ed:parentid="108" id="175" ed:tosuperid="174" d="M-13.5,-6.1C-1.3,-6.1,2.1,6.1,13.5,6.1" transform="matrix(1,0,0,1,891,467)" stroke-linecap="round" fill="none"/><path stroke="#696969" stroke-linejoin="round" ed:parentid="108" id="177" ed:tosuperid="176" d="M-13.5,-21.6C2.1,-21.6,-5.7,21.6,13.5,21.6" transform="matrix(1,0,0,1,891,482)" stroke-linecap="round" fill="none"/><path stroke="#696969" stroke-linejoin="round" ed:parentid="110" id="179" ed:tosuperid="178" d="M-13.5,9.4C-0.5,9.4,0.3,-9.4,13.5,-9.4" transform="matrix(1,0,0,1,891,571)" stroke-linecap="round" fill="none"/><path stroke="#696969" stroke-linejoin="round" ed:parentid="110" id="181" ed:tosuperid="180" d="M-13.5,-6.1C-1.3,-6.1,2.1,6.1,13.5,6.1" transform="matrix(1,0,0,1,891,586)" stroke-linecap="round" fill="none"/><path stroke="#696969" stroke-linejoin="round" ed:parentid="110" id="183" ed:tosuperid="182" d="M-13.5,-21.6C2.1,-21.6,-5.7,21.6,13.5,21.6" transform="matrix(1,0,0,1,891,602)" stroke-linecap="round" fill="none"/><path stroke="#696969" stroke-linejoin="round" ed:parentid="112" id="185" ed:tosuperid="184" d="M-13.5,1.6C-2.3,1.6,4.5,-1.6,13.5,-1.6" transform="matrix(1,0,0,1,891,683)" stroke-linecap="round" fill="none"/><path stroke="#696969" stroke-linejoin="round" ed:parentid="112" id="187" ed:tosuperid="186" d="M-13.5,-13.9C0.5,-13.9,-2,13.9,13.5,13.9" transform="matrix(1,0,0,1,891,698)" stroke-linecap="round" fill="none"/><path stroke="#696969" stroke-linejoin="round" ed:parentid="114" id="191" ed:tosuperid="190" d="M-13.5,1.6C-2.3,1.6,4.5,-1.6,13.5,-1.6" transform="matrix(1,0,0,1,891,771)" stroke-linecap="round" fill="none"/><path stroke="#696969" stroke-linejoin="round" ed:parentid="114" id="193" ed:tosuperid="192" d="M-13.5,-13.9C0.5,-13.9,-2,13.9,13.5,13.9" transform="matrix(1,0,0,1,891,787)" stroke-linecap="round" fill="none"/><path stroke="#696969" stroke-linejoin="round" ed:parentid="102" id="195" ed:tosuperid="194" d="M-13.5,9.4C-0.5,9.4,0.3,-9.4,13.5,-9.4" transform="matrix(1,0,0,1,925,105)" stroke-linecap="round" fill="none"/><path stroke="#696969" stroke-linejoin="round" ed:parentid="102" id="197" ed:tosuperid="196" d="M-13.5,-6.1C-1.3,-6.1,2.1,6.1,13.5,6.1" transform="matrix(1,0,0,1,925,120)" stroke-linecap="round" fill="none"/><path stroke="#696969" stroke-linejoin="round" ed:parentid="102" id="199" ed:tosuperid="198" d="M-13.5,-31.1C3.7,-31.1,-9.5,31.1,13.5,31.1" transform="matrix(1,0,0,1,925,145)" stroke-linecap="round" fill="none"/><path stroke="#696969" stroke-linejoin="round" ed:parentid="102" id="201" ed:tosuperid="200" d="M-13.5,-46.6C5.2,-46.6,-13.1,46.6,13.5,46.6" transform="matrix(1,0,0,1,925,161)" stroke-linecap="round" fill="none"/><g ed:width="482" ed:topictype="mainidea" id="101" ed:layout="rightmap" ed:height="57" transform="matrix(1,0,0,1,23,754)"><path stroke="#435fbc" stroke-width="3" stroke-linejoin="round" d="M4,0L478,0C480.7,0,482,1.3,482,4L482,53C482,55.7,480.7,57,478,57L4,57C1.3,57,0,55.7,0,53L0,4C0,1.3,1.3,0,4,0z" fill="#435fbc"/><text class="st1"><tspan style="white-space:pre" x="21" y="34.5">《贝佐斯的数字帝国：亚马逊如何实现指数级增长》</tspan></text></g><g ed:width="343" ed:parentid="101" id="102" ed:height="37" transform="matrix(1,0,0,1,568,96)"><path stroke="#ebecf3" stroke-linejoin="round" d="M4,0L339,0C341.7,0,343,1.3,343,4L343,33C343,35.7,341.7,37,339,37L4,37C1.3,37,0,35.7,0,33L0,4C0,1.3,1.3,0,4,0z" fill="#ebecf3"/><text class="st2"><tspan style="white-space:pre" x="18" y="23.4">亚马逊管理体系：是什么，对我们有什么用</tspan></text></g><g ed:width="309" ed:parentid="101" id="104" ed:height="37" transform="matrix(1,0,0,1,568,250)"><path stroke="#ebecf3" stroke-linejoin="round" d="M4,0L305,0C307.7,0,309,1.3,309,4L309,33C309,35.7,307.7,37,305,37L4,37C1.3,37,0,35.7,0,33L0,4C0,1.3,1.3,0,4,0z" fill="#ebecf3"/><text class="st2"><tspan style="white-space:pre" x="18" y="23.4">模块1 业务模式：痴迷客户，拓展边界</tspan></text></g><g ed:width="309" ed:parentid="101" id="106" ed:height="37" transform="matrix(1,0,0,1,568,338)"><path stroke="#ebecf3" stroke-linejoin="round" d="M4,0L305,0C307.7,0,309,1.3,309,4L309,33C309,35.7,307.7,37,305,37L4,37C1.3,37,0,35.7,0,33L0,4C0,1.3,1.3,0,4,0z" fill="#ebecf3"/><text class="st2"><tspan style="white-space:pre" x="18" y="23.4">模块2 人才招募：极高标准，持续提升</tspan></text></g><g ed:width="309" ed:parentid="101" id="108" ed:height="37" transform="matrix(1,0,0,1,568,442)"><path stroke="#ebecf3" stroke-linejoin="round" d="M4,0L305,0C307.7,0,309,1.3,309,4L309,33C309,35.7,307.7,37,305,37L4,37C1.3,37,0,35.7,0,33L0,4C0,1.3,1.3,0,4,0z" fill="#ebecf3"/><text class="st2"><tspan style="white-space:pre" x="18" y="23.4">模块3 数据支撑：聚焦于因，智能管理</tspan></text></g><g ed:width="309" ed:parentid="101" id="110" ed:height="37" transform="matrix(1,0,0,1,568,562)"><path stroke="#ebecf3" stroke-linejoin="round" d="M4,0L305,0C307.7,0,309,1.3,309,4L309,33C309,35.7,307.7,37,305,37L4,37C1.3,37,0,35.7,0,33L0,4C0,1.3,1.3,0,4,0z" fill="#ebecf3"/><text class="st2"><tspan style="white-space:pre" x="18" y="23.4">模块4 创新引擎：颠覆开拓，发明创造</tspan></text></g><g ed:width="309" ed:parentid="101" id="112" ed:height="37" transform="matrix(1,0,0,1,568,666)"><path stroke="#ebecf3" stroke-linejoin="round" d="M4,0L305,0C307.7,0,309,1.3,309,4L309,33C309,35.7,307.7,37,305,37L4,37C1.3,37,0,35.7,0,33L0,4C0,1.3,1.3,0,4,0z" fill="#ebecf3"/><text class="st2"><tspan style="white-space:pre" x="18" y="23.4">模块5 决策机制：既要质量，更要速度</tspan></text></g><g ed:width="309" ed:parentid="101" id="114" ed:height="37" transform="matrix(1,0,0,1,568,754)"><path stroke="#ebecf3" stroke-linejoin="round" d="M4,0L305,0C307.7,0,309,1.3,309,4L309,33C309,35.7,307.7,37,305,37L4,37C1.3,37,0,35.7,0,33L0,4C0,1.3,1.3,0,4,0z" fill="#ebecf3"/><text class="st2"><tspan style="white-space:pre" x="18" y="23.4">模块6 组织文化：坚决反熵，始终创业</tspan></text></g><g ed:width="268" ed:parentid="101" id="116" ed:height="37" transform="matrix(1,0,0,1,568,905)"><path stroke="#ebecf3" stroke-linejoin="round" d="M4,0L264,0C266.7,0,268,1.3,268,4L268,33C268,35.7,266.7,37,264,37L4,37C1.3,37,0,35.7,0,33L0,4C0,1.3,1.3,0,4,0z" fill="#ebecf3"/><text class="st2"><tspan style="white-space:pre" x="18" y="23.4">小结 亚马逊核心管理思想及方法</tspan></text></g><g ed:width="272" ed:parentid="101" id="118" ed:height="37" transform="matrix(1,0,0,1,568,1046)"><path stroke="#ebecf3" stroke-linejoin="round" d="M4,0L268,0C270.7,0,272,1.3,272,4L272,33C272,35.7,270.7,37,268,37L4,37C1.3,37,0,35.7,0,33L0,4C0,1.3,1.3,0,4,0z" fill="#ebecf3"/><text class="st2"><tspan style="white-space:pre" x="18" y="23.4">附录A 亚马逊9条管理及决策方法</tspan></text></g><g ed:width="248" ed:parentid="101" id="120" ed:height="37" transform="matrix(1,0,0,1,568,1311)"><path stroke="#ebecf3" stroke-linejoin="round" d="M4,0L244,0C246.7,0,248,1.3,248,4L248,33C248,35.7,246.7,37,244,37L4,37C1.3,37,0,35.7,0,33L0,4C0,1.3,1.3,0,4,0z" fill="#ebecf3"/><text class="st2"><tspan style="white-space:pre" x="18" y="23.4">附录B 亚马逊14条领导力原则</tspan></text></g><g ed:width="238" ed:parentid="116" id="122" ed:height="24.5" transform="matrix(1,0,0,1,863,834)"><path stroke="#696969" stroke-linejoin="round" d="M0,24.5L238,24.5" fill="none"/><text class="st3"><tspan style="white-space:pre" x="8" y="16.1">模块1 业务模式：痴迷客户，拓展边界</tspan></text></g><g ed:width="238" ed:parentid="116" id="124" ed:height="24.5" transform="matrix(1,0,0,1,863,865)"><path stroke="#696969" stroke-linejoin="round" d="M0,24.5L238,24.5" fill="none"/><text class="st3"><tspan style="white-space:pre" x="8" y="16.1">模块2 人才招募：极高标准，持续提升</tspan></text></g><g ed:width="238" ed:parentid="116" id="126" ed:height="24.5" transform="matrix(1,0,0,1,863,896)"><path stroke="#696969" stroke-linejoin="round" d="M0,24.5L238,24.5" fill="none"/><text class="st3"><tspan style="white-space:pre" x="8" y="16.1">模块3 数据支撑：聚焦于因，智能管理</tspan></text></g><g ed:width="238" ed:parentid="116" id="128" ed:height="24.5" transform="matrix(1,0,0,1,863,927)"><path stroke="#696969" stroke-linejoin="round" d="M0,24.5L238,24.5" fill="none"/><text class="st3"><tspan style="white-space:pre" x="8" y="16.1">模块4 创新引擎：颠覆开拓，发明创造</tspan></text></g><g ed:width="238" ed:parentid="116" id="130" ed:height="24.5" transform="matrix(1,0,0,1,863,958)"><path stroke="#696969" stroke-linejoin="round" d="M0,24.5L238,24.5" fill="none"/><text class="st3"><tspan style="white-space:pre" x="8" y="16.1">模块5 决策机制：既要质量，更要速度</tspan></text></g><g ed:width="238" ed:parentid="116" id="132" ed:height="24.5" transform="matrix(1,0,0,1,863,989)"><path stroke="#696969" stroke-linejoin="round" d="M0,24.5L238,24.5" fill="none"/><text class="st3"><tspan style="white-space:pre" x="8" y="16.1">模块6 组织文化：坚决反熵，始终创业</tspan></text></g><g ed:width="222" ed:parentid="120" id="134" ed:height="24.5" transform="matrix(1,0,0,1,843,1116)"><path stroke="#696969" stroke-linejoin="round" d="M0,24.5L222,24.5" fill="none"/><text class="st3"><tspan style="white-space:pre" x="8" y="16.1">1.痴迷客户（Custom Obsession）</tspan></text></g><g ed:width="186" ed:parentid="120" id="136" ed:height="24.5" transform="matrix(1,0,0,1,843,1147)"><path stroke="#696969" stroke-linejoin="round" d="M0,24.5L186,24.5" fill="none"/><text class="st3"><tspan style="white-space:pre" x="8" y="16.1">2.主人翁精神（Ownership）</tspan></text></g><g ed:width="239" ed:parentid="120" id="138" ed:height="24.5" transform="matrix(1,0,0,1,843,1178)"><path stroke="#696969" stroke-linejoin="round" d="M0,24.5L239,24.5" fill="none"/><text class="st3"><tspan style="white-space:pre" x="8" y="16.1">3.创新与简化（Invent and Simplify）</tspan></text></g><g ed:width="210" ed:parentid="120" id="140" ed:height="24.5" transform="matrix(1,0,0,1,843,1209)"><path stroke="#696969" stroke-linejoin="round" d="M0,24.5L210,24.5" fill="none"/><text class="st3"><tspan style="white-space:pre" x="8" y="16.1">4.决策正确（Are Right，A Lot）</tspan></text></g><g ed:width="238" ed:parentid="120" id="142" ed:height="24.5" transform="matrix(1,0,0,1,843,1240)"><path stroke="#696969" stroke-linejoin="round" d="M0,24.5L238,24.5" fill="none"/><text class="st3"><tspan style="white-space:pre" x="8" y="16.1">5.好奇求知（Learn and Be Curious）</tspan></text></g><g ed:width="267" ed:parentid="120" id="144" ed:height="24.5" transform="matrix(1,0,0,1,843,1271)"><path stroke="#696969" stroke-linejoin="round" d="M0,24.5L267,24.5" fill="none"/><text class="st3"><tspan style="white-space:pre" x="8" y="16.1">6.选贤育能（Hire and Develop the Best）</tspan></text></g><g ed:width="296" ed:parentid="120" id="146" ed:height="24.5" transform="matrix(1,0,0,1,843,1302)"><path stroke="#696969" stroke-linejoin="round" d="M0,24.5L296,24.5" fill="none"/><text class="st3"><tspan style="white-space:pre" x="8" y="16.1">7.最高标准（Insist on theHighest Standards）</tspan></text></g><g ed:width="163" ed:parentid="120" id="148" ed:height="24.5" transform="matrix(1,0,0,1,843,1333)"><path stroke="#696969" stroke-linejoin="round" d="M0,24.5L163,24.5" fill="none"/><text class="st3"><tspan style="white-space:pre" x="8" y="16.1">8.远见卓识（Think Big）</tspan></text></g><g ed:width="197" ed:parentid="120" id="150" ed:height="24.5" transform="matrix(1,0,0,1,843,1364)"><path stroke="#696969" stroke-linejoin="round" d="M0,24.5L197,24.5" fill="none"/><text class="st3"><tspan style="white-space:pre" x="8" y="16.1">9.崇尚行动（Bias for Action）</tspan></text></g><g ed:width="168" ed:parentid="120" id="152" ed:height="24.5" transform="matrix(1,0,0,1,843,1395)"><path stroke="#696969" stroke-linejoin="round" d="M0,24.5L168,24.5" fill="none"/><text class="st3"><tspan style="white-space:pre" x="8" y="16.1">10.勤俭节约（Frugality）</tspan></text></g><g ed:width="177" ed:parentid="120" id="154" ed:height="24.5" transform="matrix(1,0,0,1,843,1426)"><path stroke="#696969" stroke-linejoin="round" d="M0,24.5L177,24.5" fill="none"/><text class="st3"><tspan style="white-space:pre" x="8" y="16.1">11.赢得信任（Earn Trust）</tspan></text></g><g ed:width="178" ed:parentid="120" id="156" ed:height="24.5" transform="matrix(1,0,0,1,843,1457)"><path stroke="#696969" stroke-linejoin="round" d="M0,24.5L178,24.5" fill="none"/><text class="st3"><tspan style="white-space:pre" x="8" y="16.1">12.刨根问底（Dive Deep）</tspan></text></g><g ed:width="425" ed:parentid="120" id="158" ed:height="24.5" transform="matrix(1,0,0,1,843,1488)"><path stroke="#696969" stroke-linejoin="round" d="M0,24.5L425,24.5" fill="none"/><text class="st3"><tspan style="white-space:pre" x="8" y="16.1">13.敢于谏言，服从大局（Have Backbone， Disagree and Commit）</tspan></text></g><g ed:width="204" ed:parentid="120" id="160" ed:height="24.5" transform="matrix(1,0,0,1,843,1519)"><path stroke="#696969" stroke-linejoin="round" d="M0,24.5L204,24.5" fill="none"/><text class="st3"><tspan style="white-space:pre" x="8" y="16.1">14.达成业绩（Deliver Results）</tspan></text></g><g ed:width="434" ed:parentid="102" id="162" ed:height="24.5" transform="matrix(1,0,0,1,938,21)"><path stroke="#696969" stroke-linejoin="round" d="M0,24.5L434,24.5" fill="none"/><text class="st3"><tspan style="white-space:pre" x="8" y="16.1">如果你是企业家、创始人：被颠覆的也许不只是某家企业，还是某个行业</tspan></text></g><g ed:width="278" ed:parentid="104" id="164" ed:height="24.5" transform="matrix(1,0,0,1,904,241)"><path stroke="#696969" stroke-linejoin="round" d="M0,24.5L278,24.5" fill="none"/><text class="st3"><tspan style="white-space:pre" x="8" y="16.1">痴迷客户、为客户创造、长线思维、投资未来</tspan></text></g><g ed:width="161" ed:parentid="104" id="166" ed:height="24.5" transform="matrix(1,0,0,1,904,272)"><path stroke="#696969" stroke-linejoin="round" d="M0,24.5L161,24.5" fill="none"/><text class="st3"><tspan style="white-space:pre" x="8" y="16.1">对客户，要永远保持敬畏</tspan></text></g><g ed:width="447" ed:parentid="106" id="168" ed:height="24.5" transform="matrix(1,0,0,1,904,329)"><path stroke="#696969" stroke-linejoin="round" d="M0,24.5L447,24.5" fill="none"/><text class="st3"><tspan style="white-space:pre" x="8" y="16.1">既创新又实干，内心强大，特能抗事，特能抗压，而且极具主人翁精神的人</tspan></text></g><g ed:width="161" ed:parentid="106" id="170" ed:height="24.5" transform="matrix(1,0,0,1,904,360)"><path stroke="#696969" stroke-linejoin="round" d="M0,24.5L161,24.5" fill="none"/><text class="st3"><tspan style="white-space:pre" x="8" y="16.1">招人被视为最重要的决策</tspan></text></g><g ed:width="148" ed:parentid="108" id="172" ed:height="24.5" transform="matrix(1,0,0,1,904,418)"><path stroke="#696969" stroke-linejoin="round" d="M0,24.5L148,24.5" fill="none"/><text class="st3"><tspan style="white-space:pre" x="8" y="16.1">数据成为新的核心资产</tspan></text></g><g ed:width="330" ed:parentid="108" id="174" ed:height="24.5" transform="matrix(1,0,0,1,904,449)"><path stroke="#696969" stroke-linejoin="round" d="M0,24.5L330,24.5" fill="none"/><text class="st3"><tspan style="white-space:pre" x="8" y="16.1">极为细致、极为全面、聚焦于因、实时追踪、核实求证</tspan></text></g><g ed:width="486" ed:parentid="108" id="176" ed:height="24.5" transform="matrix(1,0,0,1,904,480)"><path stroke="#696969" stroke-linejoin="round" d="M0,24.5L486,24.5" fill="none"/><text class="st3"><tspan style="white-space:pre" x="8" y="16.1">几乎不怎么花时间在日常经营管理上，而是把主要精力投入到两三年以后的事情上</tspan></text></g><g ed:width="265" ed:parentid="110" id="178" ed:height="24.5" transform="matrix(1,0,0,1,904,537)"><path stroke="#696969" stroke-linejoin="round" d="M0,24.5L265,24.5" fill="none"/><text class="st3"><tspan style="white-space:pre" x="8" y="16.1">持续加速、持续颠覆、持续开拓的创新引擎</tspan></text></g><g ed:width="213" ed:parentid="110" id="180" ed:height="24.5" transform="matrix(1,0,0,1,904,568)"><path stroke="#696969" stroke-linejoin="round" d="M0,24.5L213,24.5" fill="none"/><text class="st3"><tspan style="white-space:pre" x="8" y="16.1">他们愿意付出常人不愿付出的代价</tspan></text></g><g ed:width="135" ed:parentid="110" id="182" ed:height="24.5" transform="matrix(1,0,0,1,904,599)"><path stroke="#696969" stroke-linejoin="round" d="M0,24.5L135,24.5" fill="none"/><text class="st3"><tspan style="white-space:pre" x="8" y="16.1">通过独特的工具方法</tspan></text></g><g ed:width="278" ed:parentid="112" id="184" ed:height="24.5" transform="matrix(1,0,0,1,904,657)"><path stroke="#696969" stroke-linejoin="round" d="M0,24.5L278,24.5" fill="none"/><text class="st3"><tspan style="white-space:pre" x="8" y="16.1">数字时代，决策必须既好又快，重点在“快”</tspan></text></g><g ed:width="109" ed:parentid="112" id="186" ed:height="24.5" transform="matrix(1,0,0,1,904,688)"><path stroke="#696969" stroke-linejoin="round" d="M0,24.5L109,24.5" fill="none"/><text class="st3"><tspan style="white-space:pre" x="8" y="16.1">更强调决策速度</tspan></text></g><g ed:width="226" ed:parentid="114" id="190" ed:height="24.5" transform="matrix(1,0,0,1,904,745)"><path stroke="#696969" stroke-linejoin="round" d="M0,24.5L226,24.5" fill="none"/><text class="st3"><tspan style="white-space:pre" x="8" y="16.1">不断强调始终创业，永远都是第一天</tspan></text></g><g ed:width="265" ed:parentid="114" id="192" ed:height="24.5" transform="matrix(1,0,0,1,904,776)"><path stroke="#696969" stroke-linejoin="round" d="M0,24.5L265,24.5" fill="none"/><text class="st3"><tspan style="white-space:pre" x="8" y="16.1">持续打造并不断强化“第一天”的组织文化</tspan></text></g><g ed:width="514" ed:parentid="102" id="194" ed:height="43.5" transform="matrix(1,0,0,1,938,52)"><path stroke="#696969" stroke-linejoin="round" d="M0,43.5L514,43.5" fill="none"/><text class="st3"><tspan style="white-space:pre" x="8" y="16.1">如果你是公司高管：公司高管的角色定位及工作职责会发生重大的转型，从繁重的日常</tspan><tspan style="white-space:pre" x="8" y="35.1">经营管理任务中解放出来</tspan></text></g><g ed:width="369" ed:parentid="102" id="196" ed:height="24.5" transform="matrix(1,0,0,1,938,102)"><path stroke="#696969" stroke-linejoin="round" d="M0,24.5L369,24.5" fill="none"/><text class="st3"><tspan style="white-space:pre" x="8" y="16.1">如果你是中基层经理：在数字化组织中，组织层级会大幅缩减</tspan></text></g><g ed:width="514" ed:parentid="102" id="198" ed:height="43.5" transform="matrix(1,0,0,1,938,133)"><path stroke="#696969" stroke-linejoin="round" d="M0,43.5L514,43.5" fill="none"/><text class="st3"><tspan style="white-space:pre" x="8" y="16.1">如果你是职场小白：更早看清大趋势，就能更早、更有意识地为自己创造学习提升的机</tspan><tspan style="white-space:pre" x="8" y="35.1">会</tspan></text></g><g ed:width="512" ed:parentid="102" id="200" ed:height="24.5" transform="matrix(1,0,0,1,938,183)"><path stroke="#696969" stroke-linejoin="round" d="M0,24.5L512,24.5" fill="none"/><text class="st3"><tspan style="white-space:pre" x="8" y="16.1">如果你是创业者：请不要再把沿袭百年的传统管理方式当作样板，不假思索地继承下来</tspan></text></g><symbol id="plus"><path d="M11,6C11,8.8,8.8,11,6,11C3.2,11,1,8.8,1,6C1,3.2,3.2,1,6,1C8.8,1,11,3.2,11,6z" fill="url(#lg1)"/><path stroke-width="0.7" stroke="#46a000" d="M11,6C11,8.8,8.8,11,6,11C3.2,11,1,8.8,1,6C1,3.2,3.2,1,6,1C8.8,1,11,3.2,11,6zM3,6L9,6M6,3L6,9" fill="none"/></symbol><symbol id="minus"><path d="M11,6C11,8.8,8.8,11,6,11C3.2,11,1,8.8,1,6C1,3.2,3.2,1,6,1C8.8,1,11,3.2,11,6z" fill="url(#lg1)"/><path stroke-width="0.7" stroke="#46a000" d="M11,6C11,8.8,8.8,11,6,11C3.2,11,1,8.8,1,6C1,3.2,3.2,1,6,1C8.8,1,11,3.2,11,6zM3,6L9,6" fill="none"/></symbol><g transform="translate(506,776)" ed:togtopicid="101"><use xlink:href="#minus"/></g><g transform="translate(912,108)" ed:togtopicid="102"><use xlink:href="#minus"/></g><g transform="translate(878,262)" ed:togtopicid="104"><use xlink:href="#minus"/></g><g transform="translate(878,351)" ed:togtopicid="106"><use xlink:href="#minus"/></g><g transform="translate(878,455)" ed:togtopicid="108"><use xlink:href="#minus"/></g><g transform="translate(878,574)" ed:togtopicid="110"><use xlink:href="#minus"/></g><g transform="translate(878,678)" ed:togtopicid="112"><use xlink:href="#minus"/></g><g transform="translate(878,767)" ed:togtopicid="114"><use xlink:href="#minus"/></g><g transform="translate(837,917)" ed:togtopicid="116"><use xlink:href="#minus"/></g><g transform="translate(817,1324)" ed:togtopicid="120"><use xlink:href="#minus"/></g></svg>