<svg xmlns:ev="http://www.w3.org/2001/xml-events" ed:hSpacing="30" ed:vSpacing="30" xmlns:xlink="http://www.w3.org/1999/xlink" xmlns:ed="https://www.edrawsoft.cn/xml/2017/SVGExtensions/" viewBox="0 0 1307 1989" xmlns="http://www.w3.org/2000/svg" ed:name="Page-1" id="page100" width="1307" height="1989"><style type="text/css"><![CDATA[
g[ed\:togtopicid],g[ed\:hyperlink],g[ed\:comment],g[ed\:note] {cursor:pointer;}
g[id] {-moz-user-select: none;-ms-user-select: none;user-select: none;}
svg text::selection,svg tspan::selection{background-color: #4285f4;color: #ffffff;fill: #ffffff;}
.st2 {fill:#303030;font-family:微软雅黑;font-size:12pt}
.st3 {fill:#454545;font-family:微软雅黑;font-size:10pt}
.st1 {fill:#ffffff;font-family:微软雅黑;font-size:14pt}
]]></style><defs><linearGradient x1="0%" y1="0%" id="lg1" y2="100%" x2="0%"><stop stop-color="#ffffff" offset="0"/><stop stop-color="#f0f5f0" offset="0.25"/><stop stop-color="#e1ebe1" offset="0.75"/><stop stop-color="#c8d7c8" offset="1"/></linearGradient></defs><rect fill="#ffffff" width="1307" height="1989" y="0" x="0"/><path stroke="#696969" stroke-linecap="round" fill="none" d="M-85.8,292.2C9.4,167.9,-67.3,-320.8,139.8,-320.8" transform="matrix(1,0,0,1,379,674)" stroke-linejoin="round" id="107" ed:parentid="101" ed:tosuperid="106"/><path stroke="#696969" stroke-linecap="round" fill="none" d="M-64.3,-80C4.6,-21.1,29.6,108.5,139.8,108.5" transform="matrix(1,0,0,1,379,1103)" stroke-linejoin="round" id="109" ed:parentid="101" ed:tosuperid="108"/><path stroke="#696969" stroke-linecap="round" fill="none" d="M-89.5,-400.8C17,-251.9,-97.8,429.3,139.8,429.3" transform="matrix(1,0,0,1,379,1424)" stroke-linejoin="round" id="113" ed:parentid="101" ed:tosuperid="112"/><path stroke="#696969" stroke-linecap="round" fill="none" d="M-13.5,153.6C5.4,153.6,-13.5,-153.6,13.5,-153.6" transform="matrix(1,0,0,1,636,199)" stroke-linejoin="round" id="117" ed:parentid="106" ed:tosuperid="116"/><path stroke="#696969" stroke-linecap="round" fill="none" d="M-13.5,130.4C5.4,130.4,-13.5,-130.4,13.5,-130.4" transform="matrix(1,0,0,1,636,222)" stroke-linejoin="round" id="119" ed:parentid="106" ed:tosuperid="118"/><path stroke="#696969" stroke-linecap="round" fill="none" d="M-13.5,76.1C5.4,76.1,-13.5,-76.1,13.5,-76.1" transform="matrix(1,0,0,1,636,277)" stroke-linejoin="round" id="121" ed:parentid="106" ed:tosuperid="120"/><path stroke="#696969" stroke-linecap="round" fill="none" d="M-13.5,-40.1C4.7,-40.1,-12,40.1,13.5,40.1" transform="matrix(1,0,0,1,636,393)" stroke-linejoin="round" id="123" ed:parentid="106" ed:tosuperid="122"/><path stroke="#696969" stroke-linecap="round" fill="none" d="M-13.5,29.6C3.4,29.6,-8.9,-29.6,13.5,-29.6" transform="matrix(1,0,0,1,636,323)" stroke-linejoin="round" id="125" ed:parentid="106" ed:tosuperid="124"/><path stroke="#696969" stroke-linecap="round" fill="none" d="M-13.5,-9.1C-0.6,-9.1,0.4,9.1,13.5,9.1" transform="matrix(1,0,0,1,636,362)" stroke-linejoin="round" id="127" ed:parentid="106" ed:tosuperid="126"/><path stroke="#696969" stroke-linecap="round" fill="none" d="M-13.5,14.1C0.5,14.1,-2.1,-14.1,13.5,-14.1" transform="matrix(1,0,0,1,636,339)" stroke-linejoin="round" id="129" ed:parentid="106" ed:tosuperid="128"/><path stroke="#696969" stroke-linecap="round" fill="none" d="M-13.5,-78.9C5.4,-78.9,-13.5,78.9,13.5,78.9" transform="matrix(1,0,0,1,636,432)" stroke-linejoin="round" id="131" ed:parentid="106" ed:tosuperid="130"/><path stroke="#696969" stroke-linecap="round" fill="none" d="M-13.5,-137.9C5.4,-137.9,-13.5,137.9,13.5,137.9" transform="matrix(1,0,0,1,636,491)" stroke-linejoin="round" id="133" ed:parentid="106" ed:tosuperid="132"/><path stroke="#696969" stroke-linecap="round" fill="none" d="M-13.5,234.6C5.4,234.6,-13.5,-234.6,13.5,-234.6" transform="matrix(1,0,0,1,636,977)" stroke-linejoin="round" id="135" ed:parentid="108" ed:tosuperid="134"/><path stroke="#696969" stroke-linecap="round" fill="none" d="M-13.5,219.1C5.4,219.1,-13.5,-219.1,13.5,-219.1" transform="matrix(1,0,0,1,636,992)" stroke-linejoin="round" id="137" ed:parentid="108" ed:tosuperid="136"/><path stroke="#696969" stroke-linecap="round" fill="none" d="M-13.5,195.9C5.4,195.9,-13.5,-195.9,13.5,-195.9" transform="matrix(1,0,0,1,636,1015)" stroke-linejoin="round" id="139" ed:parentid="108" ed:tosuperid="138"/><path stroke="#696969" stroke-linecap="round" fill="none" d="M-13.5,172.6C5.4,172.6,-13.5,-172.6,13.5,-172.6" transform="matrix(1,0,0,1,636,1039)" stroke-linejoin="round" id="141" ed:parentid="108" ed:tosuperid="140"/><path stroke="#696969" stroke-linecap="round" fill="none" d="M-13.5,157.1C5.4,157.1,-13.5,-157.1,13.5,-157.1" transform="matrix(1,0,0,1,636,1054)" stroke-linejoin="round" id="143" ed:parentid="108" ed:tosuperid="142"/><path stroke="#696969" stroke-linecap="round" fill="none" d="M-13.5,141.6C5.4,141.6,-13.5,-141.6,13.5,-141.6" transform="matrix(1,0,0,1,636,1070)" stroke-linejoin="round" id="145" ed:parentid="108" ed:tosuperid="144"/><path stroke="#696969" stroke-linecap="round" fill="none" d="M-13.5,126.1C5.4,126.1,-13.5,-126.1,13.5,-126.1" transform="matrix(1,0,0,1,636,1085)" stroke-linejoin="round" id="147" ed:parentid="108" ed:tosuperid="146"/><path stroke="#696969" stroke-linecap="round" fill="none" d="M-13.5,110.6C5.4,110.6,-13.5,-110.6,13.5,-110.6" transform="matrix(1,0,0,1,636,1101)" stroke-linejoin="round" id="149" ed:parentid="108" ed:tosuperid="148"/><path stroke="#696969" stroke-linecap="round" fill="none" d="M-13.5,95.1C5.4,95.1,-13.5,-95.1,13.5,-95.1" transform="matrix(1,0,0,1,636,1116)" stroke-linejoin="round" id="151" ed:parentid="108" ed:tosuperid="150"/><path stroke="#696969" stroke-linecap="round" fill="none" d="M-13.5,79.6C5.4,79.6,-13.5,-79.6,13.5,-79.6" transform="matrix(1,0,0,1,636,1132)" stroke-linejoin="round" id="153" ed:parentid="108" ed:tosuperid="152"/><path stroke="#696969" stroke-linecap="round" fill="none" d="M-13.5,64.1C5.4,64.1,-13.5,-64.1,13.5,-64.1" transform="matrix(1,0,0,1,636,1147)" stroke-linejoin="round" id="155" ed:parentid="108" ed:tosuperid="154"/><path stroke="#696969" stroke-linecap="round" fill="none" d="M-13.5,48.6C5.3,48.6,-13.3,-48.6,13.5,-48.6" transform="matrix(1,0,0,1,636,1163)" stroke-linejoin="round" id="157" ed:parentid="108" ed:tosuperid="156"/><path stroke="#696969" stroke-linecap="round" fill="none" d="M-13.5,33.1C4,33.1,-10.1,-33.1,13.5,-33.1" transform="matrix(1,0,0,1,636,1178)" stroke-linejoin="round" id="159" ed:parentid="108" ed:tosuperid="158"/><path stroke="#696969" stroke-linecap="round" fill="none" d="M-13.5,17.6C1.3,17.6,-3.9,-17.6,13.5,-17.6" transform="matrix(1,0,0,1,636,1194)" stroke-linejoin="round" id="161" ed:parentid="108" ed:tosuperid="160"/><path stroke="#696969" stroke-linecap="round" fill="none" d="M-13.5,2.1C-2.2,2.1,4.2,-2.1,13.5,-2.1" transform="matrix(1,0,0,1,636,1209)" stroke-linejoin="round" id="163" ed:parentid="108" ed:tosuperid="162"/><path stroke="#696969" stroke-linecap="round" fill="none" d="M-13.5,-13.4C0.4,-13.4,-1.8,13.4,13.5,13.4" transform="matrix(1,0,0,1,636,1225)" stroke-linejoin="round" id="165" ed:parentid="108" ed:tosuperid="164"/><path stroke="#696969" stroke-linecap="round" fill="none" d="M-13.5,-28.9C3.3,-28.9,-8.7,28.9,13.5,28.9" transform="matrix(1,0,0,1,636,1240)" stroke-linejoin="round" id="167" ed:parentid="108" ed:tosuperid="166"/><path stroke="#696969" stroke-linecap="round" fill="none" d="M-13.5,-44.4C5.1,-44.4,-12.8,44.4,13.5,44.4" transform="matrix(1,0,0,1,636,1256)" stroke-linejoin="round" id="169" ed:parentid="108" ed:tosuperid="168"/><path stroke="#696969" stroke-linecap="round" fill="none" d="M-13.5,-59.9C5.4,-59.9,-13.5,59.9,13.5,59.9" transform="matrix(1,0,0,1,636,1271)" stroke-linejoin="round" id="171" ed:parentid="108" ed:tosuperid="170"/><path stroke="#696969" stroke-linecap="round" fill="none" d="M-13.5,-75.4C5.4,-75.4,-13.5,75.4,13.5,75.4" transform="matrix(1,0,0,1,636,1287)" stroke-linejoin="round" id="173" ed:parentid="108" ed:tosuperid="172"/><path stroke="#696969" stroke-linecap="round" fill="none" d="M-13.5,-90.9C5.4,-90.9,-13.5,90.9,13.5,90.9" transform="matrix(1,0,0,1,636,1302)" stroke-linejoin="round" id="175" ed:parentid="108" ed:tosuperid="174"/><path stroke="#696969" stroke-linecap="round" fill="none" d="M-13.5,-106.4C5.4,-106.4,-13.5,106.4,13.5,106.4" transform="matrix(1,0,0,1,636,1318)" stroke-linejoin="round" id="177" ed:parentid="108" ed:tosuperid="176"/><path stroke="#696969" stroke-linecap="round" fill="none" d="M-13.5,37.4C4.5,37.4,-11.3,-37.4,13.5,-37.4" transform="matrix(1,0,0,1,636,1815)" stroke-linejoin="round" id="265" ed:parentid="112" ed:tosuperid="264"/><path stroke="#696969" stroke-linecap="round" fill="none" d="M-13.5,14.1C0.5,14.1,-2.1,-14.1,13.5,-14.1" transform="matrix(1,0,0,1,636,1839)" stroke-linejoin="round" id="267" ed:parentid="112" ed:tosuperid="266"/><path stroke="#696969" stroke-linecap="round" fill="none" d="M-13.5,-13.9C0.5,-13.9,-2,13.9,13.5,13.9" transform="matrix(1,0,0,1,636,1867)" stroke-linejoin="round" id="269" ed:parentid="112" ed:tosuperid="268"/><path stroke="#696969" stroke-linecap="round" fill="none" d="M-13.5,-49.6C5.3,-49.6,-13.3,49.6,13.5,49.6" transform="matrix(1,0,0,1,636,1902)" stroke-linejoin="round" id="271" ed:parentid="112" ed:tosuperid="270"/><path stroke="#696969" stroke-linecap="round" fill="none" d="M-13.5,0C-2.7,0,5.4,0,13.5,0" transform="matrix(1,0,0,1,732,46)" stroke-linejoin="round" id="279" ed:parentid="116" ed:tosuperid="278"/><path stroke="#696969" stroke-linecap="round" fill="none" d="M-13.5,-7.8C-0.9,-7.8,1.2,7.8,13.5,7.8" transform="matrix(1,0,0,1,752,100)" stroke-linejoin="round" id="281" ed:parentid="118" ed:tosuperid="280"/><path stroke="#696969" stroke-linecap="round" fill="none" d="M-13.5,7.8C-0.9,7.8,1.2,-7.8,13.5,-7.8" transform="matrix(1,0,0,1,752,84)" stroke-linejoin="round" id="283" ed:parentid="118" ed:tosuperid="282"/><path stroke="#696969" stroke-linecap="round" fill="none" d="M-13.5,31C3.7,31,-9.4,-31,13.5,-31" transform="matrix(1,0,0,1,732,170)" stroke-linejoin="round" id="285" ed:parentid="120" ed:tosuperid="284"/><path stroke="#696969" stroke-linecap="round" fill="none" d="M-13.5,15.5C0.8,15.5,-2.8,-15.5,13.5,-15.5" transform="matrix(1,0,0,1,732,185)" stroke-linejoin="round" id="287" ed:parentid="120" ed:tosuperid="286"/><path stroke="#696969" stroke-linecap="round" fill="none" d="M-13.5,0C-2.7,0,5.4,0,13.5,0" transform="matrix(1,0,0,1,732,201)" stroke-linejoin="round" id="289" ed:parentid="120" ed:tosuperid="288"/><path stroke="#696969" stroke-linecap="round" fill="none" d="M-13.5,-15.5C0.8,-15.5,-2.8,15.5,13.5,15.5" transform="matrix(1,0,0,1,732,216)" stroke-linejoin="round" id="291" ed:parentid="120" ed:tosuperid="290"/><path stroke="#696969" stroke-linecap="round" fill="none" d="M-13.5,-31C3.7,-31,-9.4,31,13.5,31" transform="matrix(1,0,0,1,732,232)" stroke-linejoin="round" id="293" ed:parentid="120" ed:tosuperid="292"/><path stroke="#696969" stroke-linecap="round" fill="none" d="M-13.5,0C-2.7,0,5.4,0,13.5,0" transform="matrix(1,0,0,1,731,325)" stroke-linejoin="round" id="295" ed:parentid="128" ed:tosuperid="294"/><path stroke="#696969" stroke-linecap="round" fill="none" d="M-13.5,7.8C-0.9,7.8,1.2,-7.8,13.5,-7.8" transform="matrix(1,0,0,1,787,363)" stroke-linejoin="round" id="297" ed:parentid="126" ed:tosuperid="296"/><path stroke="#696969" stroke-linecap="round" fill="none" d="M-13.5,-7.8C-0.9,-7.8,1.2,7.8,13.5,7.8" transform="matrix(1,0,0,1,787,379)" stroke-linejoin="round" id="299" ed:parentid="126" ed:tosuperid="298"/><path stroke="#696969" stroke-linecap="round" fill="none" d="M-13.5,15.5C0.8,15.5,-2.8,-15.5,13.5,-15.5" transform="matrix(1,0,0,1,743,495)" stroke-linejoin="round" id="301" ed:parentid="130" ed:tosuperid="300"/><path stroke="#696969" stroke-linecap="round" fill="none" d="M-13.5,0C-2.7,0,5.4,0,13.5,0" transform="matrix(1,0,0,1,743,511)" stroke-linejoin="round" id="303" ed:parentid="130" ed:tosuperid="302"/><path stroke="#696969" stroke-linecap="round" fill="none" d="M-13.5,-15.5C0.8,-15.5,-2.8,15.5,13.5,15.5" transform="matrix(1,0,0,1,743,526)" stroke-linejoin="round" id="305" ed:parentid="130" ed:tosuperid="304"/><path stroke="#696969" stroke-linecap="round" fill="none" d="M-13.5,7.8C-0.9,7.8,1.2,-7.8,13.5,-7.8" transform="matrix(1,0,0,1,772,425)" stroke-linejoin="round" id="307" ed:parentid="122" ed:tosuperid="306"/><path stroke="#696969" stroke-linecap="round" fill="none" d="M-13.5,-7.8C-0.9,-7.8,1.2,7.8,13.5,7.8" transform="matrix(1,0,0,1,772,441)" stroke-linejoin="round" id="309" ed:parentid="122" ed:tosuperid="308"/><path stroke="#696969" stroke-linecap="round" fill="none" d="M-13.5,28C3.2,28,-8.3,-28,13.5,-28" transform="matrix(1,0,0,1,736,601)" stroke-linejoin="round" id="311" ed:parentid="132" ed:tosuperid="310"/><path stroke="#696969" stroke-linecap="round" fill="none" d="M-13.5,3C-2,3,3.8,-3,13.5,-3" transform="matrix(1,0,0,1,736,626)" stroke-linejoin="round" id="313" ed:parentid="132" ed:tosuperid="312"/><path stroke="#696969" stroke-linecap="round" fill="none" d="M-13.5,-12.5C0.2,-12.5,-1.3,12.5,13.5,12.5" transform="matrix(1,0,0,1,736,641)" stroke-linejoin="round" id="315" ed:parentid="132" ed:tosuperid="314"/><path stroke="#696969" stroke-linecap="round" fill="none" d="M-13.5,-28C3.2,-28,-8.3,28,13.5,28" transform="matrix(1,0,0,1,736,657)" stroke-linejoin="round" id="317" ed:parentid="132" ed:tosuperid="316"/><path stroke="#696969" stroke-linecap="round" fill="none" d="M-13.5,-121.9C5.4,-121.9,-13.5,121.9,13.5,121.9" transform="matrix(1,0,0,1,636,1333)" stroke-linejoin="round" id="319" ed:parentid="108" ed:tosuperid="318"/><path stroke="#696969" stroke-linecap="round" fill="none" d="M-13.5,-171.9C5.4,-171.9,-13.5,171.9,13.5,171.9" transform="matrix(1,0,0,1,636,1383)" stroke-linejoin="round" id="321" ed:parentid="108" ed:tosuperid="320"/><path stroke="#696969" stroke-linecap="round" fill="none" d="M-13.5,-234.4C5.4,-234.4,-13.5,234.4,13.5,234.4" transform="matrix(1,0,0,1,636,1446)" stroke-linejoin="round" id="323" ed:parentid="108" ed:tosuperid="322"/><path stroke="#696969" stroke-linecap="round" fill="none" d="M-13.5,7.8C-0.9,7.8,1.2,-7.8,13.5,-7.8" transform="matrix(1,0,0,1,759,1770)" stroke-linejoin="round" id="483" ed:parentid="264" ed:tosuperid="482"/><path stroke="#696969" stroke-linecap="round" fill="none" d="M-13.5,-7.8C-0.9,-7.8,1.2,7.8,13.5,7.8" transform="matrix(1,0,0,1,759,1786)" stroke-linejoin="round" id="485" ed:parentid="264" ed:tosuperid="484"/><path stroke="#696969" stroke-linecap="round" fill="none" d="M-13.5,0C-2.7,0,5.4,0,13.5,0" transform="matrix(1,0,0,1,759,1825)" stroke-linejoin="round" id="487" ed:parentid="266" ed:tosuperid="486"/><path stroke="#696969" stroke-linecap="round" fill="none" d="M-13.5,12.5C0.2,12.5,-1.3,-12.5,13.5,-12.5" transform="matrix(1,0,0,1,759,1868)" stroke-linejoin="round" id="489" ed:parentid="268" ed:tosuperid="488"/><path stroke="#696969" stroke-linecap="round" fill="none" d="M-13.5,-12.5C0.2,-12.5,-1.3,12.5,13.5,12.5" transform="matrix(1,0,0,1,759,1893)" stroke-linejoin="round" id="491" ed:parentid="268" ed:tosuperid="490"/><path stroke="#696969" stroke-linecap="round" fill="none" d="M-13.5,7.8C-0.9,7.8,1.2,-7.8,13.5,-7.8" transform="matrix(1,0,0,1,798,1944)" stroke-linejoin="round" id="493" ed:parentid="270" ed:tosuperid="492"/><path stroke="#696969" stroke-linecap="round" fill="none" d="M-13.5,-7.8C-0.9,-7.8,1.2,7.8,13.5,7.8" transform="matrix(1,0,0,1,798,1960)" stroke-linejoin="round" id="495" ed:parentid="270" ed:tosuperid="494"/><path stroke="#696969" stroke-linecap="round" fill="none" d="M-13.5,25C2.7,25,-7.2,-25,13.5,-25" transform="matrix(1,0,0,1,733,1530)" stroke-linejoin="round" id="503" ed:parentid="320" ed:tosuperid="502"/><path stroke="#696969" stroke-linecap="round" fill="none" d="M-13.5,-9.5C-0.5,-9.5,0.2,9.5,13.5,9.5" transform="matrix(1,0,0,1,733,1565)" stroke-linejoin="round" id="505" ed:parentid="320" ed:tosuperid="504"/><path stroke="#696969" stroke-linecap="round" fill="none" d="M-13.5,-34.5C4.1,-34.5,-10.5,34.5,13.5,34.5" transform="matrix(1,0,0,1,733,1590)" stroke-linejoin="round" id="507" ed:parentid="320" ed:tosuperid="506"/><path stroke="#696969" stroke-linecap="round" fill="none" d="M-13.5,3C-2,3,3.8,-3,13.5,-3" transform="matrix(1,0,0,1,746,1677)" stroke-linejoin="round" id="509" ed:parentid="322" ed:tosuperid="508"/><path stroke="#696969" stroke-linecap="round" fill="none" d="M-13.5,-12.5C0.2,-12.5,-1.3,12.5,13.5,12.5" transform="matrix(1,0,0,1,746,1693)" stroke-linejoin="round" id="513" ed:parentid="322" ed:tosuperid="512"/><path stroke="#696969" stroke-linecap="round" fill="none" d="M-13.5,0C-2.7,0,5.4,0,13.5,0" transform="matrix(1,0,0,1,707,773)" stroke-linejoin="round" id="515" ed:parentid="136" ed:tosuperid="514"/><path stroke="#696969" stroke-linecap="round" fill="none" d="M-13.5,7.8C-0.9,7.8,1.2,-7.8,13.5,-7.8" transform="matrix(1,0,0,1,759,812)" stroke-linejoin="round" id="517" ed:parentid="138" ed:tosuperid="516"/><path stroke="#696969" stroke-linecap="round" fill="none" d="M-13.5,-7.8C-0.9,-7.8,1.2,7.8,13.5,7.8" transform="matrix(1,0,0,1,759,827)" stroke-linejoin="round" id="519" ed:parentid="138" ed:tosuperid="518"/><path stroke="#696969" stroke-linecap="round" fill="none" d="M-13.5,0C-2.7,0,5.4,0,13.5,0" transform="matrix(1,0,0,1,733,866)" stroke-linejoin="round" id="521" ed:parentid="140" ed:tosuperid="520"/><path stroke="#696969" stroke-linecap="round" fill="none" d="M-13.5,0C-2.7,0,5.4,0,13.5,0" transform="matrix(1,0,0,1,746,897)" stroke-linejoin="round" id="523" ed:parentid="142" ed:tosuperid="522"/><path stroke="#696969" stroke-linecap="round" fill="none" d="M-13.5,0C-2.7,0,5.4,0,13.5,0" transform="matrix(1,0,0,1,746,928)" stroke-linejoin="round" id="525" ed:parentid="144" ed:tosuperid="524"/><g ed:width="433" ed:height="57" ed:layout="rightmap" transform="matrix(1,0,0,1,23,966)" id="101" ed:topictype="mainidea"><path stroke="#435fbc" fill="#435fbc" d="M4,0L429,0C431.7,0,433,1.3,433,4L433,53C433,55.7,431.7,57,429,57L4,57C1.3,57,0,55.7,0,53L0,4C0,1.3,1.3,0,4,0z" stroke-width="3" stroke-linejoin="round"/><text class="st1"><tspan style="white-space:pre" y="34.5" x="21">《学习JavaScript数据结构与算法（第2版）》</tspan></text></g><g ed:width="103" ed:height="37" transform="matrix(1,0,0,1,519,334)" id="106" ed:parentid="101"><path stroke="#ebecf3" fill="#ebecf3" d="M4,0L99,0C101.7,0,103,1.3,103,4L103,33C103,35.7,101.7,37,99,37L4,37C1.3,37,0,35.7,0,33L0,4C0,1.3,1.3,0,4,0z" stroke-linejoin="round"/><text class="st2"><tspan style="white-space:pre" y="23.4" x="18">数据结构</tspan></text></g><g ed:width="103" ed:height="37" transform="matrix(1,0,0,1,519,1193)" id="108" ed:parentid="101"><path stroke="#ebecf3" fill="#ebecf3" d="M4,0L99,0C101.7,0,103,1.3,103,4L103,33C103,35.7,101.7,37,99,37L4,37C1.3,37,0,35.7,0,33L0,4C0,1.3,1.3,0,4,0z" stroke-linejoin="round"/><text class="st2"><tspan style="white-space:pre" y="23.4" x="18">算法基础</tspan></text></g><g ed:width="103" ed:height="37" transform="matrix(1,0,0,1,519,1834)" id="112" ed:parentid="101"><path stroke="#ebecf3" fill="#ebecf3" d="M4,0L99,0C101.7,0,103,1.3,103,4L103,33C103,35.7,101.7,37,99,37L4,37C1.3,37,0,35.7,0,33L0,4C0,1.3,1.3,0,4,0z" stroke-linejoin="round"/><text class="st2"><tspan style="white-space:pre" y="23.4" x="18">设计原则</tspan></text></g><g ed:width="69" ed:height="24.5" transform="matrix(1,0,0,1,649,21)" id="116" ed:parentid="106"><path stroke="#696969" fill="none" d="M0,24.5L69,24.5" stroke-linejoin="round"/><text class="st3"><tspan style="white-space:pre" y="16.1" x="8">列表 List</tspan></text></g><g ed:width="89" ed:height="24.5" transform="matrix(1,0,0,1,649,68)" id="118" ed:parentid="106"><path stroke="#696969" fill="none" d="M0,24.5L89,24.5" stroke-linejoin="round"/><text class="st3"><tspan style="white-space:pre" y="16.1" x="8">队列 Queue</tspan></text></g><g ed:width="69" ed:height="24.5" transform="matrix(1,0,0,1,649,176)" id="120" ed:parentid="106"><path stroke="#696969" fill="none" d="M0,24.5L69,24.5" stroke-linejoin="round"/><text class="st3"><tspan style="white-space:pre" y="16.1" x="8">栈 Stack</tspan></text></g><g ed:width="109" ed:height="24.5" transform="matrix(1,0,0,1,649,409)" id="122" ed:parentid="106"><path stroke="#696969" fill="none" d="M0,24.5L109,24.5" stroke-linejoin="round"/><text class="st3"><tspan style="white-space:pre" y="16.1" x="8">链表 LinkedList</tspan></text></g><g ed:width="111" ed:height="24.5" transform="matrix(1,0,0,1,649,269)" id="124" ed:parentid="106"><path stroke="#696969" fill="none" d="M0,24.5L111,24.5" stroke-linejoin="round"/><text class="st3"><tspan style="white-space:pre" y="16.1" x="8">字典 Dictionary</tspan></text></g><g ed:width="124" ed:height="24.5" transform="matrix(1,0,0,1,649,347)" id="126" ed:parentid="106"><path stroke="#696969" fill="none" d="M0,24.5L124,24.5" stroke-linejoin="round"/><text class="st3"><tspan style="white-space:pre" y="16.1" x="8">散列表 HashTable</tspan></text></g><g ed:width="68" ed:height="24.5" transform="matrix(1,0,0,1,649,300)" id="128" ed:parentid="106"><path stroke="#696969" fill="none" d="M0,24.5L68,24.5" stroke-linejoin="round"/><text class="st3"><tspan style="white-space:pre" y="16.1" x="8">集合 Set</tspan></text></g><g ed:width="80" ed:height="24.5" transform="matrix(1,0,0,1,649,486)" id="130" ed:parentid="106"><path stroke="#696969" fill="none" d="M0,24.5L80,24.5" stroke-linejoin="round"/><text class="st3"><tspan style="white-space:pre" y="16.1" x="8">二叉树 Bst</tspan></text></g><g ed:width="73" ed:height="24.5" transform="matrix(1,0,0,1,649,604)" id="132" ed:parentid="106"><path stroke="#696969" fill="none" d="M0,24.5L73,24.5" stroke-linejoin="round"/><text class="st3"><tspan style="white-space:pre" y="16.1" x="8">图 Graph</tspan></text></g><g ed:width="83" ed:height="24.5" transform="matrix(1,0,0,1,649,718)" id="134" ed:parentid="108"><path stroke="#696969" fill="none" d="M0,24.5L83,24.5" stroke-linejoin="round"/><text class="st3"><tspan style="white-space:pre" y="16.1" x="8">基础算法：</tspan></text></g><g ed:width="44" ed:height="24.5" transform="matrix(1,0,0,1,649,749)" id="136" ed:parentid="108"><path stroke="#696969" fill="none" d="M0,24.5L44,24.5" stroke-linejoin="round"/><text class="st3"><tspan style="white-space:pre" y="16.1" x="8">阶乘</tspan></text></g><g ed:width="96" ed:height="24.5" transform="matrix(1,0,0,1,649,795)" id="138" ed:parentid="108"><path stroke="#696969" fill="none" d="M0,24.5L96,24.5" stroke-linejoin="round"/><text class="st3"><tspan style="white-space:pre" y="16.1" x="8">斐波那契数列</tspan></text></g><g ed:width="70" ed:height="24.5" transform="matrix(1,0,0,1,649,842)" id="140" ed:parentid="108"><path stroke="#696969" fill="none" d="M0,24.5L70,24.5" stroke-linejoin="round"/><text class="st3"><tspan style="white-space:pre" y="16.1" x="8">素数检测</tspan></text></g><g ed:width="83" ed:height="24.5" transform="matrix(1,0,0,1,649,873)" id="142" ed:parentid="108"><path stroke="#696969" fill="none" d="M0,24.5L83,24.5" stroke-linejoin="round"/><text class="st3"><tspan style="white-space:pre" y="16.1" x="8">最大公约数</tspan></text></g><g ed:width="83" ed:height="24.5" transform="matrix(1,0,0,1,649,904)" id="144" ed:parentid="108"><path stroke="#696969" fill="none" d="M0,24.5L83,24.5" stroke-linejoin="round"/><text class="st3"><tspan style="white-space:pre" y="16.1" x="8">最小公倍数</tspan></text></g><g ed:width="70" ed:height="24.5" transform="matrix(1,0,0,1,649,935)" id="146" ed:parentid="108"><path stroke="#696969" fill="none" d="M0,24.5L70,24.5" stroke-linejoin="round"/><text class="st3"><tspan style="white-space:pre" y="16.1" x="8">杨辉三角</tspan></text></g><g ed:width="96" ed:height="24.5" transform="matrix(1,0,0,1,649,966)" id="148" ed:parentid="108"><path stroke="#696969" fill="none" d="M0,24.5L96,24.5" stroke-linejoin="round"/><text class="st3"><tspan style="white-space:pre" y="16.1" x="8">最长公共子串</tspan></text></g><g ed:width="83" ed:height="24.5" transform="matrix(1,0,0,1,649,997)" id="150" ed:parentid="108"><path stroke="#696969" fill="none" d="M0,24.5L83,24.5" stroke-linejoin="round"/><text class="st3"><tspan style="white-space:pre" y="16.1" x="8">排序算法：</tspan></text></g><g ed:width="70" ed:height="24.5" transform="matrix(1,0,0,1,649,1028)" id="152" ed:parentid="108"><path stroke="#696969" fill="none" d="M0,24.5L70,24.5" stroke-linejoin="round"/><text class="st3"><tspan style="white-space:pre" y="16.1" x="8">选择排序</tspan></text></g><g ed:width="70" ed:height="24.5" transform="matrix(1,0,0,1,649,1059)" id="154" ed:parentid="108"><path stroke="#696969" fill="none" d="M0,24.5L70,24.5" stroke-linejoin="round"/><text class="st3"><tspan style="white-space:pre" y="16.1" x="8">插入排序</tspan></text></g><g ed:width="70" ed:height="24.5" transform="matrix(1,0,0,1,649,1090)" id="156" ed:parentid="108"><path stroke="#696969" fill="none" d="M0,24.5L70,24.5" stroke-linejoin="round"/><text class="st3"><tspan style="white-space:pre" y="16.1" x="8">希尔排序</tspan></text></g><g ed:width="70" ed:height="24.5" transform="matrix(1,0,0,1,649,1121)" id="158" ed:parentid="108"><path stroke="#696969" fill="none" d="M0,24.5L70,24.5" stroke-linejoin="round"/><text class="st3"><tspan style="white-space:pre" y="16.1" x="8">归并排序</tspan></text></g><g ed:width="57" ed:height="24.5" transform="matrix(1,0,0,1,649,1152)" id="160" ed:parentid="108"><path stroke="#696969" fill="none" d="M0,24.5L57,24.5" stroke-linejoin="round"/><text class="st3"><tspan style="white-space:pre" y="16.1" x="8">堆排序</tspan></text></g><g ed:width="70" ed:height="24.5" transform="matrix(1,0,0,1,649,1183)" id="162" ed:parentid="108"><path stroke="#696969" fill="none" d="M0,24.5L70,24.5" stroke-linejoin="round"/><text class="st3"><tspan style="white-space:pre" y="16.1" x="8">快速排序</tspan></text></g><g ed:width="83" ed:height="24.5" transform="matrix(1,0,0,1,649,1214)" id="164" ed:parentid="108"><path stroke="#696969" fill="none" d="M0,24.5L83,24.5" stroke-linejoin="round"/><text class="st3"><tspan style="white-space:pre" y="16.1" x="8">搜索算法：</tspan></text></g><g ed:width="70" ed:height="24.5" transform="matrix(1,0,0,1,649,1245)" id="166" ed:parentid="108"><path stroke="#696969" fill="none" d="M0,24.5L70,24.5" stroke-linejoin="round"/><text class="st3"><tspan style="white-space:pre" y="16.1" x="8">线性查找</tspan></text></g><g ed:width="70" ed:height="24.5" transform="matrix(1,0,0,1,649,1276)" id="168" ed:parentid="108"><path stroke="#696969" fill="none" d="M0,24.5L70,24.5" stroke-linejoin="round"/><text class="st3"><tspan style="white-space:pre" y="16.1" x="8">二分查找</tspan></text></g><g ed:width="70" ed:height="24.5" transform="matrix(1,0,0,1,649,1307)" id="170" ed:parentid="108"><path stroke="#696969" fill="none" d="M0,24.5L70,24.5" stroke-linejoin="round"/><text class="st3"><tspan style="white-space:pre" y="16.1" x="8">跳转查找</tspan></text></g><g ed:width="70" ed:height="24.5" transform="matrix(1,0,0,1,649,1338)" id="172" ed:parentid="108"><path stroke="#696969" fill="none" d="M0,24.5L70,24.5" stroke-linejoin="round"/><text class="st3"><tspan style="white-space:pre" y="16.1" x="8">插值查找</tspan></text></g><g ed:width="96" ed:height="24.5" transform="matrix(1,0,0,1,649,1369)" id="174" ed:parentid="108"><path stroke="#696969" fill="none" d="M0,24.5L96,24.5" stroke-linejoin="round"/><text class="st3"><tspan style="white-space:pre" y="16.1" x="8">深度优先搜索</tspan></text></g><g ed:width="96" ed:height="24.5" transform="matrix(1,0,0,1,649,1400)" id="176" ed:parentid="108"><path stroke="#696969" fill="none" d="M0,24.5L96,24.5" stroke-linejoin="round"/><text class="st3"><tspan style="white-space:pre" y="16.1" x="8">广度优先搜索</tspan></text></g><g ed:width="96" ed:height="24.5" transform="matrix(1,0,0,1,649,1754)" id="264" ed:parentid="112"><path stroke="#696969" fill="none" d="M0,24.5L96,24.5" stroke-linejoin="round"/><text class="st3"><tspan style="white-space:pre" y="16.1" x="8">单一职责原则</tspan></text></g><g ed:width="96" ed:height="24.5" transform="matrix(1,0,0,1,649,1800)" id="266" ed:parentid="112"><path stroke="#696969" fill="none" d="M0,24.5L96,24.5" stroke-linejoin="round"/><text class="st3"><tspan style="white-space:pre" y="16.1" x="8">最少知识原则</tspan></text></g><g ed:width="96" ed:height="24.5" transform="matrix(1,0,0,1,649,1856)" id="268" ed:parentid="112"><path stroke="#696969" fill="none" d="M0,24.5L96,24.5" stroke-linejoin="round"/><text class="st3"><tspan style="white-space:pre" y="16.1" x="8">开放封闭原则</tspan></text></g><g ed:width="135" ed:height="24.5" transform="matrix(1,0,0,1,649,1928)" id="270" ed:parentid="112"><path stroke="#696969" fill="none" d="M0,24.5L135,24.5" stroke-linejoin="round"/><text class="st3"><tspan style="white-space:pre" y="16.1" x="8">接口与面向接口原则</tspan></text></g><g ed:width="96" ed:height="24.5" transform="matrix(1,0,0,1,745,21)" id="278" ed:parentid="116"><path stroke="#696969" fill="none" d="M0,24.5L96,24.5" stroke-linejoin="round"/><text class="st3"><tspan style="white-space:pre" y="16.1" x="8">斐波那契数列</tspan></text></g><g ed:width="70" ed:height="24.5" transform="matrix(1,0,0,1,765,83)" id="280" ed:parentid="118"><path stroke="#696969" fill="none" d="M0,24.5L70,24.5" stroke-linejoin="round"/><text class="st3"><tspan style="white-space:pre" y="16.1" x="8">优先队列</tspan></text></g><g ed:width="109" ed:height="24.5" transform="matrix(1,0,0,1,765,52)" id="282" ed:parentid="118"><path stroke="#696969" fill="none" d="M0,24.5L109,24.5" stroke-linejoin="round"/><text class="st3"><tspan style="white-space:pre" y="16.1" x="8">对数据进行排序</tspan></text></g><g ed:width="70" ed:height="24.5" transform="matrix(1,0,0,1,745,114)" id="284" ed:parentid="120"><path stroke="#696969" fill="none" d="M0,24.5L70,24.5" stroke-linejoin="round"/><text class="st3"><tspan style="white-space:pre" y="16.1" x="8">括号闭合</tspan></text></g><g ed:width="70" ed:height="24.5" transform="matrix(1,0,0,1,745,145)" id="286" ed:parentid="120"><path stroke="#696969" fill="none" d="M0,24.5L70,24.5" stroke-linejoin="round"/><text class="st3"><tspan style="white-space:pre" y="16.1" x="8">进制转换</tspan></text></g><g ed:width="70" ed:height="24.5" transform="matrix(1,0,0,1,745,176)" id="288" ed:parentid="120"><path stroke="#696969" fill="none" d="M0,24.5L70,24.5" stroke-linejoin="round"/><text class="st3"><tspan style="white-space:pre" y="16.1" x="8">回文判断</tspan></text></g><g ed:width="70" ed:height="24.5" transform="matrix(1,0,0,1,745,207)" id="290" ed:parentid="120"><path stroke="#696969" fill="none" d="M0,24.5L70,24.5" stroke-linejoin="round"/><text class="st3"><tspan style="white-space:pre" y="16.1" x="8">递归演示</tspan></text></g><g ed:width="57" ed:height="24.5" transform="matrix(1,0,0,1,745,238)" id="292" ed:parentid="120"><path stroke="#696969" fill="none" d="M0,24.5L57,24.5" stroke-linejoin="round"/><text class="st3"><tspan style="white-space:pre" y="16.1" x="8">汉诺塔</tspan></text></g><g ed:width="161" ed:height="24.5" transform="matrix(1,0,0,1,744,300)" id="294" ed:parentid="128"><path stroke="#696969" fill="none" d="M0,24.5L161,24.5" stroke-linejoin="round"/><text class="st3"><tspan style="white-space:pre" y="16.1" x="8">并集、交集、差集、子集</tspan></text></g><g ed:width="70" ed:height="24.5" transform="matrix(1,0,0,1,800,331)" id="296" ed:parentid="126"><path stroke="#696969" fill="none" d="M0,24.5L70,24.5" stroke-linejoin="round"/><text class="st3"><tspan style="white-space:pre" y="16.1" x="8">散列函数</tspan></text></g><g ed:width="330" ed:height="24.5" transform="matrix(1,0,0,1,800,362)" id="298" ed:parentid="126"><path stroke="#696969" fill="none" d="M0,24.5L330,24.5" stroke-linejoin="round"/><text class="st3"><tspan style="white-space:pre" y="16.1" x="8">处理冲突有几种方法：分离链接、线性探查和双散列法</tspan></text></g><g ed:width="304" ed:height="24.5" transform="matrix(1,0,0,1,756,455)" id="300" ed:parentid="130"><path stroke="#696969" fill="none" d="M0,24.5L304,24.5" stroke-linejoin="round"/><text class="st3"><tspan style="white-space:pre" y="16.1" x="8">访问树的所有节点有三种方式：中序、先序和后序</tspan></text></g><g ed:width="135" ed:height="24.5" transform="matrix(1,0,0,1,756,486)" id="302" ed:parentid="130"><path stroke="#696969" fill="none" d="M0,24.5L135,24.5" stroke-linejoin="round"/><text class="st3"><tspan style="white-space:pre" y="16.1" x="8">难点：移除一个节点</tspan></text></g><g ed:width="225" ed:height="24.5" transform="matrix(1,0,0,1,756,517)" id="304" ed:parentid="130"><path stroke="#696969" fill="none" d="M0,24.5L225,24.5" stroke-linejoin="round"/><text class="st3"><tspan style="white-space:pre" y="16.1" x="8">自平衡二叉查找树、AVL树、红黑树</tspan></text></g><g ed:width="70" ed:height="24.5" transform="matrix(1,0,0,1,785,393)" id="306" ed:parentid="122"><path stroke="#696969" fill="none" d="M0,24.5L70,24.5" stroke-linejoin="round"/><text class="st3"><tspan style="white-space:pre" y="16.1" x="8">双向链表</tspan></text></g><g ed:width="70" ed:height="24.5" transform="matrix(1,0,0,1,785,424)" id="308" ed:parentid="122"><path stroke="#696969" fill="none" d="M0,24.5L70,24.5" stroke-linejoin="round"/><text class="st3"><tspan style="white-space:pre" y="16.1" x="8">循环链表</tspan></text></g><g ed:width="70" ed:height="24.5" transform="matrix(1,0,0,1,749,548)" id="310" ed:parentid="132"><path stroke="#696969" fill="none" d="M0,24.5L70,24.5" stroke-linejoin="round"/><text class="st3"><tspan style="white-space:pre" y="16.1" x="8">邻接矩阵</tspan></text></g><g ed:width="514" ed:height="43.5" transform="matrix(1,0,0,1,749,579)" id="312" ed:parentid="132"><path stroke="#696969" fill="none" d="M0,43.5L514,43.5" stroke-linejoin="round"/><text class="st3"><tspan style="white-space:pre" y="16.1" x="8">图遍历： 广度优先搜索（Breadth-First Search， BFS）和深度优先搜索（Depth-</tspan><tspan style="white-space:pre" y="35.1" x="8">First Search， DFS）</tspan></text></g><g ed:width="96" ed:height="24.5" transform="matrix(1,0,0,1,749,629)" id="314" ed:parentid="132"><path stroke="#696969" fill="none" d="M0,24.5L96,24.5" stroke-linejoin="round"/><text class="st3"><tspan style="white-space:pre" y="16.1" x="8">最短路径算法</tspan></text></g><g ed:width="83" ed:height="24.5" transform="matrix(1,0,0,1,749,660)" id="316" ed:parentid="132"><path stroke="#696969" fill="none" d="M0,24.5L83,24.5" stroke-linejoin="round"/><text class="st3"><tspan style="white-space:pre" y="16.1" x="8">最小生成树</tspan></text></g><g ed:width="83" ed:height="24.5" transform="matrix(1,0,0,1,649,1431)" id="318" ed:parentid="108"><path stroke="#696969" fill="none" d="M0,24.5L83,24.5" stroke-linejoin="round"/><text class="st3"><tspan style="white-space:pre" y="16.1" x="8">算法通识：</tspan></text></g><g ed:width="70" ed:height="24.5" transform="matrix(1,0,0,1,649,1531)" id="320" ed:parentid="108"><path stroke="#696969" fill="none" d="M0,24.5L70,24.5" stroke-linejoin="round"/><text class="st3"><tspan style="white-space:pre" y="16.1" x="8">算法模式</tspan></text></g><g ed:width="83" ed:height="24.5" transform="matrix(1,0,0,1,649,1656)" id="322" ed:parentid="108"><path stroke="#696969" fill="none" d="M0,24.5L83,24.5" stroke-linejoin="round"/><text class="st3"><tspan style="white-space:pre" y="16.1" x="8">算法复杂度</tspan></text></g><g ed:width="319" ed:height="24.5" transform="matrix(1,0,0,1,772,1738)" id="482" ed:parentid="264"><path stroke="#696969" fill="none" d="M0,24.5L319,24.5" stroke-linejoin="round"/><text class="st3"><tspan style="white-space:pre" y="16.1" x="8">SRP 原则体现为：一个对象（方法）只做一件事情。</tspan></text></g><g ed:width="371" ed:height="24.5" transform="matrix(1,0,0,1,772,1769)" id="484" ed:parentid="264"><path stroke="#696969" fill="none" d="M0,24.5L371,24.5" stroke-linejoin="round"/><text class="st3"><tspan style="white-space:pre" y="16.1" x="8">SRP 原则是所有原则中最简单也是最难正确运用的原则之一。</tspan></text></g><g ed:width="509" ed:height="24.5" transform="matrix(1,0,0,1,772,1800)" id="486" ed:parentid="266"><path stroke="#696969" fill="none" d="M0,24.5L509,24.5" stroke-linejoin="round"/><text class="st3"><tspan style="white-space:pre" y="16.1" x="8">最少知识原则（LKP）说的是一个软件实体应当尽可能少地与其他实体发生相互作用。</tspan></text></g><g ed:width="473" ed:height="24.5" transform="matrix(1,0,0,1,772,1831)" id="488" ed:parentid="268"><path stroke="#696969" fill="none" d="M0,24.5L473,24.5" stroke-linejoin="round"/><text class="st3"><tspan style="white-space:pre" y="16.1" x="8">定义如下：软件实体（类、模块、函数）等应该是可以扩展的，但是不可修改。</tspan></text></g><g ed:width="514" ed:height="43.5" transform="matrix(1,0,0,1,772,1862)" id="490" ed:parentid="268"><path stroke="#696969" fill="none" d="M0,43.5L514,43.5" stroke-linejoin="round"/><text class="st3"><tspan style="white-space:pre" y="16.1" x="8">几乎所有的设计模式都是遵守开放-封闭原则的，我们见到的好设计，通常都经得起开</tspan><tspan style="white-space:pre" y="35.1" x="8">放-封闭原则的考验。</tspan></text></g><g ed:width="213" ed:height="24.5" transform="matrix(1,0,0,1,811,1912)" id="492" ed:parentid="270"><path stroke="#696969" fill="none" d="M0,24.5L213,24.5" stroke-linejoin="round"/><text class="st3"><tspan style="white-space:pre" y="16.1" x="8">接口是对象能响应的请求的集合。</tspan></text></g><g ed:width="387" ed:height="24.5" transform="matrix(1,0,0,1,811,1943)" id="494" ed:parentid="270"><path stroke="#696969" fill="none" d="M0,24.5L387,24.5" stroke-linejoin="round"/><text class="st3"><tspan style="white-space:pre" y="16.1" x="8">接口在 JavaScript 中的最大作用就退化到了检查代码的规范性。</tspan></text></g><g ed:width="514" ed:height="43.5" transform="matrix(1,0,0,1,746,1462)" id="502" ed:parentid="320"><path stroke="#696969" fill="none" d="M0,43.5L514,43.5" stroke-linejoin="round"/><text class="st3"><tspan style="white-space:pre" y="16.1" x="8">1、递归：递归是一种解决问题的方法，它解决问题的各个小部分，直到解决最初的大</tspan><tspan style="white-space:pre" y="35.1" x="8">问题。递归通常涉及函数调用自身。ECMAScript 6有尾调用优化。</tspan></text></g><g ed:width="514" ed:height="62.5" transform="matrix(1,0,0,1,746,1512)" id="504" ed:parentid="320"><path stroke="#696969" fill="none" d="M0,62.5L514,62.5" stroke-linejoin="round"/><text class="st3"><tspan style="white-space:pre" y="16.1" x="8">2、动态规划（Dynamic Programming， DP）是一种将复杂问题分解成更小的子问</tspan><tspan style="white-space:pre" y="35.1" x="8">题来解决的优化技术。能解决的一些著名的问题如下：背包问题、最长公共子序列、矩</tspan><tspan style="white-space:pre" y="54.1" x="8">阵链相乘、硬币找零、图的全源最短路径。</tspan></text></g><g ed:width="514" ed:height="43.5" transform="matrix(1,0,0,1,746,1581)" id="506" ed:parentid="320"><path stroke="#696969" fill="none" d="M0,43.5L514,43.5" stroke-linejoin="round"/><text class="st3"><tspan style="white-space:pre" y="16.1" x="8">3、贪心算法遵循一种近似解决问题的技术，期盼通过每个阶段的局部最优选择（当前</tspan><tspan style="white-space:pre" y="35.1" x="8">最好的解），从而达到全局的最优（全局最优解）。</tspan></text></g><g ed:width="514" ed:height="43.5" transform="matrix(1,0,0,1,759,1631)" id="508" ed:parentid="322"><path stroke="#696969" fill="none" d="M0,43.5L514,43.5" stroke-linejoin="round"/><text class="st3"><tspan style="white-space:pre" y="16.1" x="8">1、大 O 表示法：一般考虑的是CPU（时间）占用。排序算法的时间复杂度；搜索算法</tspan><tspan style="white-space:pre" y="35.1" x="8">的时间复杂度；</tspan></text></g><g ed:width="205" ed:height="24.5" transform="matrix(1,0,0,1,759,1681)" id="512" ed:parentid="322"><path stroke="#696969" fill="none" d="M0,24.5L205,24.5" stroke-linejoin="round"/><text class="st3"><tspan style="white-space:pre" y="16.1" x="8">2、NP 完全理论：多项式算法。</tspan></text></g><g ed:width="173" ed:height="24.5" transform="matrix(1,0,0,1,720,749)" id="514" ed:parentid="136"><path stroke="#696969" fill="none" d="M0,24.5L173,24.5" stroke-linejoin="round"/><text class="st3"><tspan style="white-space:pre" y="16.1" x="8">return n * factorial(n - 1);</tspan></text></g><g ed:width="285" ed:height="24.5" transform="matrix(1,0,0,1,772,780)" id="516" ed:parentid="138"><path stroke="#696969" fill="none" d="M0,24.5L285,24.5" stroke-linejoin="round"/><text class="st3"><tspan style="white-space:pre" y="16.1" x="8">return fibonacci2(n - 1) + fibonacci2(n - 2);</tspan></text></g><g ed:width="83" ed:height="24.5" transform="matrix(1,0,0,1,772,811)" id="518" ed:parentid="138"><path stroke="#696969" fill="none" d="M0,24.5L83,24.5" stroke-linejoin="round"/><text class="st3"><tspan style="white-space:pre" y="16.1" x="8">尾递归优化</tspan></text></g><g ed:width="254" ed:height="24.5" transform="matrix(1,0,0,1,746,842)" id="520" ed:parentid="140"><path stroke="#696969" fill="none" d="M0,24.5L254,24.5" stroke-linejoin="round"/><text class="st3"><tspan style="white-space:pre" y="16.1" x="8">遍历i &lt; Math.sqrt(n); 判断n % i == 0；</tspan></text></g><g ed:width="351" ed:height="24.5" transform="matrix(1,0,0,1,759,873)" id="522" ed:parentid="142"><path stroke="#696969" fill="none" d="M0,24.5L351,24.5" stroke-linejoin="round"/><text class="st3"><tspan style="white-space:pre" y="16.1" x="8">遍历i=Math.min(a, b);判断a % i == 0 &amp;&amp; b % i == 0；</tspan></text></g><g ed:width="443" ed:height="24.5" transform="matrix(1,0,0,1,759,904)" id="524" ed:parentid="144"><path stroke="#696969" fill="none" d="M0,24.5L443,24.5" stroke-linejoin="round"/><text class="st3"><tspan style="white-space:pre" y="16.1" x="8">遍历从i=Math.max(a, b);到i &lt;= a * b;判断i % a == 0 &amp;&amp; i % b == 0；</tspan></text></g><symbol id="plus"><path fill="url(#lg1)" d="M11,6C11,8.8,8.8,11,6,11C3.2,11,1,8.8,1,6C1,3.2,3.2,1,6,1C8.8,1,11,3.2,11,6z"/><path stroke="#46a000" fill="none" d="M11,6C11,8.8,8.8,11,6,11C3.2,11,1,8.8,1,6C1,3.2,3.2,1,6,1C8.8,1,11,3.2,11,6zM3,6L9,6M6,3L6,9" stroke-width="0.7"/></symbol><symbol id="minus"><path fill="url(#lg1)" d="M11,6C11,8.8,8.8,11,6,11C3.2,11,1,8.8,1,6C1,3.2,3.2,1,6,1C8.8,1,11,3.2,11,6z"/><path stroke="#46a000" fill="none" d="M11,6C11,8.8,8.8,11,6,11C3.2,11,1,8.8,1,6C1,3.2,3.2,1,6,1C8.8,1,11,3.2,11,6zM3,6L9,6" stroke-width="0.7"/></symbol><g transform="translate(457,988)" ed:togtopicid="101"><use xlink:href="#minus"/></g><g transform="translate(623,347)" ed:togtopicid="106"><use xlink:href="#minus"/></g><g transform="translate(623,1205)" ed:togtopicid="108"><use xlink:href="#minus"/></g><g transform="translate(623,1847)" ed:togtopicid="112"><use xlink:href="#minus"/></g><g transform="translate(719,27)" ed:togtopicid="116"><use xlink:href="#minus"/></g><g transform="translate(739,74)" ed:togtopicid="118"><use xlink:href="#minus"/></g><g transform="translate(719,182)" ed:togtopicid="120"><use xlink:href="#minus"/></g><g transform="translate(759,415)" ed:togtopicid="122"><use xlink:href="#minus"/></g><g transform="translate(774,353)" ed:togtopicid="126"><use xlink:href="#minus"/></g><g transform="translate(718,306)" ed:togtopicid="128"><use xlink:href="#minus"/></g><g transform="translate(730,492)" ed:togtopicid="130"><use xlink:href="#minus"/></g><g transform="translate(723,610)" ed:togtopicid="132"><use xlink:href="#minus"/></g><g transform="translate(694,755)" ed:togtopicid="136"><use xlink:href="#minus"/></g><g transform="translate(746,801)" ed:togtopicid="138"><use xlink:href="#minus"/></g><g transform="translate(720,848)" ed:togtopicid="140"><use xlink:href="#minus"/></g><g transform="translate(733,879)" ed:togtopicid="142"><use xlink:href="#minus"/></g><g transform="translate(733,910)" ed:togtopicid="144"><use xlink:href="#minus"/></g><g transform="translate(746,1760)" ed:togtopicid="264"><use xlink:href="#minus"/></g><g transform="translate(746,1806)" ed:togtopicid="266"><use xlink:href="#minus"/></g><g transform="translate(746,1862)" ed:togtopicid="268"><use xlink:href="#minus"/></g><g transform="translate(785,1934)" ed:togtopicid="270"><use xlink:href="#minus"/></g><g transform="translate(720,1537)" ed:togtopicid="320"><use xlink:href="#minus"/></g><g transform="translate(733,1662)" ed:togtopicid="322"><use xlink:href="#minus"/></g></svg>